<svg width="20" height="21" viewBox="0 0 20 21" fill="none" xmlns="http://www.w3.org/2000/svg">
<path opacity="0.4" d="M20 6.46185V14.8419C20 17.6519 18.71 19.5818 16.44 20.3118C15.78 20.5418 15.02 20.6519 14.19 20.6519H5.81C4.98 20.6519 4.22 20.5418 3.56 20.3118C1.29 19.5818 0 17.6519 0 14.8419V6.46185C0 2.82185 2.17 0.651855 5.81 0.651855H14.19C17.83 0.651855 20 2.82185 20 6.46185Z" fill="#B48CFC"/>
<path d="M16.4396 20.3116C15.7796 20.5416 15.0196 20.6516 14.1896 20.6516H5.80957C4.97957 20.6516 4.21957 20.5416 3.55957 20.3116C3.90957 17.6716 6.66957 15.6216 9.99957 15.6216C13.3296 15.6216 16.0896 17.6716 16.4396 20.3116Z" fill="#B48CFC"/>
<path d="M13.5799 10.2319C13.5799 12.2119 11.9799 13.8218 9.99992 13.8218C8.01992 13.8218 6.41992 12.2119 6.41992 10.2319C6.41992 8.25187 8.01992 6.65186 9.99992 6.65186C11.9799 6.65186 13.5799 8.25187 13.5799 10.2319Z" fill="#B48CFC"/>
</svg>
