<svg width="16" height="21" viewBox="0 0 16 21" fill="none" xmlns="http://www.w3.org/2000/svg">
<path opacity="0.4" d="M15.1378 12.8107L14.1378 11.1507C13.9278 10.7807 13.7378 10.0807 13.7378 9.6707V7.1407C13.7378 3.8807 11.0878 1.2207 7.81779 1.2207C4.54779 1.2207 1.89779 3.8807 1.89779 7.1407V9.6707C1.89779 10.0807 1.70779 10.7807 1.49779 11.1407L0.487795 12.8107C0.0877945 13.4807 -0.00220571 14.2207 0.247794 14.9007C0.487794 15.5707 1.05779 16.0907 1.79779 16.3407C3.73779 17.0007 5.77779 17.3207 7.81779 17.3207C9.85779 17.3207 11.8978 17.0007 13.8378 16.3507C14.5378 16.1207 15.0778 15.5907 15.3378 14.9007C15.5978 14.2107 15.5278 13.4507 15.1378 12.8107Z" fill="#B48CFC"/>
<path d="M10.0477 1.6408C9.35766 1.3708 8.60766 1.2208 7.81766 1.2208C7.03766 1.2208 6.28766 1.3608 5.59766 1.6408C6.02766 0.830801 6.87766 0.320801 7.81766 0.320801C8.76766 0.320801 9.60766 0.830801 10.0477 1.6408Z" fill="#5B00FF" fill-opacity="0.4"/>
<path d="M10.6275 18.3308C10.2075 19.4908 9.09754 20.3208 7.79754 20.3208C7.00754 20.3208 6.22754 20.0008 5.67754 19.4308C5.35754 19.1308 5.11754 18.7308 4.97754 18.3208C5.10754 18.3408 5.23754 18.3508 5.37754 18.3708C5.60754 18.4008 5.84754 18.4308 6.08754 18.4508C6.65754 18.5008 7.23754 18.5308 7.81754 18.5308C8.38754 18.5308 8.95754 18.5008 9.51754 18.4508C9.72754 18.4308 9.93754 18.4208 10.1375 18.3908C10.2975 18.3708 10.4575 18.3508 10.6275 18.3308Z" fill="#5B00FF" fill-opacity="0.4"/>
</svg>
