<svg width="25" height="24" viewBox="0 0 25 24" fill="none" xmlns="http://www.w3.org/2000/svg">
<path opacity="0.4" d="M22.0116 7.19L12.9716 12.42L3.93164 7.19C4.33164 6.45 4.91164 5.8 5.56164 5.44L10.9016 2.48C12.0416 1.84 13.9016 1.84 15.0416 2.48L20.3816 5.44C21.0316 5.8 21.6116 6.45 22.0116 7.19Z" fill="#B48CFC"/>
<path opacity="0.6" d="M12.9713 12.4199V21.9999C12.2213 21.9999 11.4713 21.8399 10.9013 21.5199L5.56133 18.5599C4.35133 17.8899 3.36133 16.2099 3.36133 14.8299V9.16994C3.36133 8.52994 3.58133 7.82994 3.93133 7.18994L12.9713 12.4199Z" fill="#5521B4"/>
<path d="M22.5817 9.16994V14.8299C22.5817 16.2099 21.5917 17.8899 20.3817 18.5599L15.0417 21.5199C14.4717 21.8399 13.7217 21.9999 12.9717 21.9999V12.4199L22.0117 7.18994C22.3617 7.82994 22.5817 8.52994 22.5817 9.16994Z" fill="#5B00FF" fill-opacity="0.4"/>
</svg>
