<svg width="24" height="24" viewBox="0 0 24 24" fill="none" xmlns="http://www.w3.org/2000/svg">
<path d="M21.25 22H2.75C2.34 22 2 21.66 2 21.25C2 20.84 2.34 20.5 2.75 20.5H21.25C21.66 20.5 22 20.84 22 21.25C22 21.66 21.66 22 21.25 22Z" fill="#B48CFC"/>
<path opacity="0.4" d="M20.5899 13.7L13.3599 20.93C11.9399 22.35 9.64988 22.35 8.23988 20.94L3.62988 16.33L15.9899 3.96997L20.5999 8.57997C22.0099 9.98997 22.0099 12.28 20.5899 13.7Z" fill="#292D32" fill-opacity="0.5"/>
<path d="M15.9901 3.96992L3.62006 16.3299L2.71006 15.4199C1.30006 14.0099 1.30006 11.7199 2.72006 10.2999L9.95006 3.06992C11.3701 1.64992 13.6601 1.64992 15.0701 3.05992L15.9901 3.96992Z" fill="#B48CFC"/>
<path d="M12.8901 17.5999L11.5401 18.9499C11.2601 19.2299 10.8101 19.2299 10.5301 18.9499C10.2501 18.6699 10.2501 18.2199 10.5301 17.9399L11.8801 16.5899C12.1601 16.3099 12.6101 16.3099 12.8901 16.5899C13.1701 16.8699 13.1701 17.3199 12.8901 17.5999Z" fill="#B48CFC"/>
<path d="M17.2701 13.22L14.5801 15.91C14.3001 16.19 13.8501 16.19 13.5701 15.91C13.2901 15.63 13.2901 15.18 13.5701 14.9L16.2601 12.21C16.5401 11.93 16.9901 11.93 17.2701 12.21C17.5401 12.49 17.5401 12.94 17.2701 13.22Z" fill="#B48CFC"/>
</svg>
