<svg width="24" height="25" viewBox="0 0 24 25" fill="none" xmlns="http://www.w3.org/2000/svg">
<path d="M15 16.4663C15 20.0563 12.09 22.9663 8.5 22.9663C4.91 22.9663 2 20.0563 2 16.4663C2 12.8763 4.91 9.96631 8.5 9.96631C8.67 9.96631 8.84999 9.97631 9.01999 9.98631C12.19 10.2363 14.73 12.7763 14.98 15.9463C14.99 16.1163 15 16.2963 15 16.4663Z" fill="#5B00FF" fill-opacity="0.4"/>
<path opacity="0.4" d="M22 9.46631C22 13.0563 19.09 15.9663 15.5 15.9663C15.33 15.9663 15.15 15.9563 14.98 15.9463C14.73 12.7763 12.19 10.2363 9.01999 9.98631C9.00999 9.81631 9 9.63631 9 9.46631C9 5.87631 11.91 2.96631 15.5 2.96631C19.09 2.96631 22 5.87631 22 9.46631Z" fill="#B48CFC"/>
<path d="M5.59 2.96631H3C2.45 2.96631 2 3.41631 2 3.96631V6.5563C2 7.4463 3.07999 7.89631 3.70999 7.26631L6.29999 4.67632C6.91999 4.04632 6.48 2.96631 5.59 2.96631Z" fill="#5B00FF" fill-opacity="0.4"/>
<path d="M18.4097 22.9661H20.9997C21.5497 22.9661 21.9997 22.5161 21.9997 21.9661V19.3761C21.9997 18.4861 20.9197 18.0361 20.2897 18.6661L17.6997 21.2561C17.0797 21.8861 17.5197 22.9661 18.4097 22.9661Z" fill="#5B00FF" fill-opacity="0.4"/>
</svg>
