<svg width="20" height="20" viewBox="0 0 20 20" fill="none" xmlns="http://www.w3.org/2000/svg">
<path opacity="0.4" d="M15 16.3887H11L6.54999 19.3487C5.88999 19.7887 5 19.3187 5 18.5187V16.3887C2 16.3887 0 14.3887 0 11.3887V5.38867C0 2.38867 2 0.388672 5 0.388672H15C18 0.388672 20 2.38867 20 5.38867V11.3887C20 14.3887 18 16.3887 15 16.3887Z" fill="#B48CFC"/>
<path d="M10.0001 10.0684C9.59006 10.0684 9.25006 9.72836 9.25006 9.31836V9.1084C9.25006 7.9484 10.1 7.37839 10.42 7.15839C10.79 6.90839 10.91 6.73839 10.91 6.47839C10.91 5.97839 10.5001 5.56836 10.0001 5.56836C9.50006 5.56836 9.09009 5.97839 9.09009 6.47839C9.09009 6.88839 8.75009 7.22839 8.34009 7.22839C7.93009 7.22839 7.59009 6.88839 7.59009 6.47839C7.59009 5.14839 8.67006 4.06836 10.0001 4.06836C11.3301 4.06836 12.41 5.14839 12.41 6.47839C12.41 7.61839 11.5701 8.18838 11.2601 8.39838C10.8701 8.65838 10.7501 8.8284 10.7501 9.1084V9.31836C10.7501 9.73836 10.4101 10.0684 10.0001 10.0684Z" fill="#5B00FF" fill-opacity="0.4"/>
<path d="M10 12.5586C9.58 12.5586 9.25 12.2186 9.25 11.8086C9.25 11.3986 9.59 11.0586 10 11.0586C10.41 11.0586 10.75 11.3986 10.75 11.8086C10.75 12.2186 10.42 12.5586 10 12.5586Z" fill="#5B00FF" fill-opacity="0.4"/>
</svg>
