<svg width="21" height="21" viewBox="0 0 21 21" fill="none" xmlns="http://www.w3.org/2000/svg">
<path opacity="0.4" d="M10.76 20.2656C16.2829 20.2656 20.76 15.7885 20.76 10.2656C20.76 4.74278 16.2829 0.265625 10.76 0.265625C5.23716 0.265625 0.76001 4.74278 0.76001 10.2656C0.76001 15.7885 5.23716 20.2656 10.76 20.2656Z" fill="#B48CFC"/>
<path d="M10.76 18.0156C6.49001 18.0156 3.01001 14.5356 3.01001 10.2656C3.01001 8.90562 3.37001 7.57562 4.04001 6.40562C4.25001 6.04562 4.71 5.92563 5.06 6.12563L11.13 9.61563C11.49 9.82563 11.61 10.2756 11.41 10.6356C11.2 10.9956 10.75 11.1156 10.39 10.9156L5.01001 7.82562C4.69001 8.59562 4.52002 9.42563 4.52002 10.2656C4.52002 13.7156 7.32002 16.5156 10.77 16.5156C14.22 16.5156 17.02 13.7156 17.02 10.2656C17.02 6.81562 14.22 4.01562 10.77 4.01562C9.41002 4.01562 8.11002 4.44563 7.02002 5.26562C6.69002 5.51562 6.22 5.44563 5.97 5.11563C5.72 4.78563 5.79 4.31563 6.12 4.06563C7.47 3.05563 9.08002 2.51562 10.77 2.51562C15.04 2.51562 18.52 5.99563 18.52 10.2656C18.52 14.5356 15.03 18.0156 10.76 18.0156Z" fill="#B48CFC"/>
</svg>
