<svg width="22" height="12" viewBox="0 0 22 12" fill="none" xmlns="http://www.w3.org/2000/svg">
<path opacity="0.4" d="M16.7 11.5582C15.02 11.5582 13.47 10.7682 12.46 9.3782C12.22 9.0482 12.29 8.57822 12.62 8.32822C12.95 8.07822 13.42 8.15822 13.67 8.48822C14.4 9.47822 15.5 10.0482 16.7 10.0482C18.79 10.0482 20.5 8.3482 20.5 6.2482C20.5 4.1482 18.8 2.44821 16.7 2.44821C15.28 2.44821 13.94 3.20821 13.21 4.41821L10.56 8.82822C9.56 10.4982 7.73001 11.5282 5.79001 11.5282C2.87001 11.5282 0.48999 9.14821 0.48999 6.22821C0.48999 3.30821 2.87001 0.928223 5.79001 0.928223C7.47001 0.928223 9.02 1.71822 10.03 3.10822C10.27 3.43822 10.2 3.9082 9.87 4.1582C9.53 4.4082 9.07001 4.3282 8.82001 3.9982C8.09001 3.0082 6.99001 2.4382 5.79001 2.4382C3.70001 2.4382 1.98999 4.13822 1.98999 6.23822C1.98999 8.33822 3.69001 10.0382 5.79001 10.0382C7.21001 10.0382 8.55 9.27821 9.28 8.06821L11.93 3.6582C12.93 1.9882 14.76 0.958221 16.7 0.958221C19.62 0.958221 22 3.33821 22 6.25821C22 9.17821 19.62 11.5582 16.7 11.5582Z" fill="#B48CFC"/>
<path d="M5.75 8.2583C6.85457 8.2583 7.75 7.36287 7.75 6.2583C7.75 5.15373 6.85457 4.2583 5.75 4.2583C4.64543 4.2583 3.75 5.15373 3.75 6.2583C3.75 7.36287 4.64543 8.2583 5.75 8.2583Z" fill="#5B00FF" fill-opacity="0.4"/>
<path d="M16.75 8.2583C17.8546 8.2583 18.75 7.36287 18.75 6.2583C18.75 5.15373 17.8546 4.2583 16.75 4.2583C15.6454 4.2583 14.75 5.15373 14.75 6.2583C14.75 7.36287 15.6454 8.2583 16.75 8.2583Z" fill="#5B00FF" fill-opacity="0.4"/>
</svg>
