<svg width="18" height="21" viewBox="0 0 18 21" fill="none" xmlns="http://www.w3.org/2000/svg">
<path d="M17.17 13.6176L16.3201 12.7676C16.7601 12.0976 17.02 11.3076 17.02 10.4476C17.02 8.10763 15.12 6.20764 12.78 6.20764C10.44 6.20764 8.54004 8.10763 8.54004 10.4476C8.54004 12.7876 10.44 14.6877 12.78 14.6877C13.64 14.6877 14.44 14.4276 15.1 13.9876L15.9501 14.8376C16.1201 15.0076 16.3401 15.0876 16.5601 15.0876C16.7801 15.0876 17 15.0076 17.17 14.8376C17.5 14.4976 17.5 13.9476 17.17 13.6176Z" fill="#5521B4"/>
<path opacity="0.4" d="M2.83008 0.207642H16.0001C17.1001 0.207642 18.0001 1.11763 18.0001 2.22763V4.44763C18.0001 5.25763 17.5001 6.26764 17.0001 6.76764L12.7101 10.6076C12.1101 11.1176 11.7101 12.1276 11.7101 12.9276V17.2676C11.7101 17.8776 11.3101 18.6776 10.8101 18.9876L9.4101 19.8976C8.1101 20.7076 6.32013 19.7976 6.32013 18.1776V12.8276C6.32013 12.1176 5.92008 11.2076 5.52008 10.7076L1.7301 6.66763C1.2301 6.15763 0.830078 5.25764 0.830078 4.64764V2.32764C0.840078 1.11764 1.74008 0.207642 2.83008 0.207642Z" fill="#6F3FC4"/>
</svg>
