<svg width="19" height="21" viewBox="0 0 19 21" fill="none" xmlns="http://www.w3.org/2000/svg">
<path opacity="0.4" d="M15.25 17.4657H14.49C13.69 17.4657 12.93 17.7757 12.37 18.3357L10.66 20.0257C9.87997 20.7957 8.61002 20.7957 7.83002 20.0257L6.12 18.3357C5.56 17.7757 4.79 17.4657 4 17.4657H3.25C1.59 17.4657 0.25 16.1357 0.25 14.4957V3.58569C0.25 1.94569 1.59 0.615723 3.25 0.615723H15.25C16.91 0.615723 18.25 1.94569 18.25 3.58569V14.4957C18.25 16.1257 16.91 17.4657 15.25 17.4657Z" fill="#B48CFC"/>
<path d="M9.24994 9.01593C10.5368 9.01593 11.58 7.9728 11.58 6.68597C11.58 5.39915 10.5368 4.35596 9.24994 4.35596C7.96312 4.35596 6.91992 5.39915 6.91992 6.68597C6.91992 7.9728 7.96312 9.01593 9.24994 9.01593Z" fill="#5B00FF" fill-opacity="0.4"/>
<path d="M11.9302 13.6658C12.7402 13.6658 13.2102 12.7658 12.7602 12.0958C12.0802 11.0858 10.7602 10.4058 9.25017 10.4058C7.74017 10.4058 6.42016 11.0858 5.74016 12.0958C5.29016 12.7658 5.76018 13.6658 6.57018 13.6658H11.9302Z" fill="#5B00FF" fill-opacity="0.4"/>
</svg>
