<svg width="21" height="21" viewBox="0 0 21 21" fill="none" xmlns="http://www.w3.org/2000/svg">
<path opacity="0.4" d="M10.74 20.2656C16.2628 20.2656 20.74 15.7885 20.74 10.2656C20.74 4.74278 16.2628 0.265625 10.74 0.265625C5.21714 0.265625 0.73999 4.74278 0.73999 10.2656C0.73999 15.7885 5.21714 20.2656 10.74 20.2656Z" fill="#5B00FF" fill-opacity="0.4"/>
<path d="M10.74 2.51562C9.04999 2.51562 7.44 3.05563 6.09 4.06563C5.76 4.31563 5.69 4.78563 5.94 5.11563C6.19 5.44563 6.65999 5.51562 6.98999 5.26562C8.07999 4.44563 9.36999 4.01562 10.74 4.01562C14.19 4.01562 16.99 6.81562 16.99 10.2656C16.99 13.7156 14.19 16.5156 10.74 16.5156C7.28999 16.5156 4.48999 13.7156 4.48999 10.2656C4.48999 9.42563 4.65998 8.59562 4.97998 7.82562L6.12 8.47563C5.9 9.04563 5.78 9.64562 5.78 10.2656C5.78 12.9956 7.99998 15.2156 10.73 15.2156C13.46 15.2156 15.68 12.9956 15.68 10.2656C15.68 7.53562 13.46 5.31563 10.73 5.31563C9.98998 5.31563 9.28 5.47563 8.62 5.78563C8.25 5.96563 8.07998 6.40563 8.25998 6.78563C8.43998 7.15563 8.87998 7.31563 9.25998 7.14563C9.71998 6.92563 10.21 6.81563 10.73 6.81563C12.63 6.81563 14.18 8.36563 14.18 10.2656C14.18 12.1656 12.63 13.7156 10.73 13.7156C8.82998 13.7156 7.28 12.1656 7.28 10.2656C7.28 9.91563 7.34998 9.57562 7.44998 9.24562L10.36 10.9156C10.72 11.1256 11.18 10.9956 11.38 10.6356C11.59 10.2756 11.46 9.81563 11.1 9.61563L5.03 6.12563C4.67 5.91563 4.20998 6.04562 4.00998 6.40562C3.33998 7.57562 2.97998 8.90562 2.97998 10.2656C2.97998 14.5356 6.45998 18.0156 10.73 18.0156C15 18.0156 18.48 14.5356 18.48 10.2656C18.48 5.99563 15.01 2.51562 10.74 2.51562Z" fill="#5B00FF" fill-opacity="0.4"/>
</svg>
