<svg width="21" height="21" viewBox="0 0 21 21" fill="none" xmlns="http://www.w3.org/2000/svg">
<path opacity="0.4" d="M7.45898 0.562988C4.83898 0.562988 2.70898 2.69299 2.70898 5.31299C2.70898 7.88299 4.71898 9.96299 7.33898 10.053C7.41898 10.043 7.49898 10.043 7.55898 10.053C7.57898 10.053 7.58898 10.053 7.60898 10.053C7.61898 10.053 7.61898 10.053 7.62898 10.053C10.189 9.96299 12.199 7.88299 12.209 5.31299C12.209 2.69299 10.079 0.562988 7.45898 0.562988Z" fill="#5B00FF" fill-opacity="0.4"/>
<path d="M12.5389 12.4482C9.74895 10.5882 5.19895 10.5882 2.38895 12.4482C1.11895 13.2982 0.418945 14.4482 0.418945 15.6782C0.418945 16.9082 1.11895 18.0482 2.37895 18.8882C3.77895 19.8282 5.61895 20.2982 7.45895 20.2982C9.29895 20.2982 11.1389 19.8282 12.5389 18.8882C13.7989 18.0382 14.4989 16.8982 14.4989 15.6582C14.4889 14.4282 13.7989 13.2882 12.5389 12.4482Z" fill="#5B00FF" fill-opacity="0.4"/>
<path opacity="0.4" d="M18.4493 3.84645C18.6093 5.78645 17.2293 7.48645 15.3193 7.71645C15.3093 7.71645 15.3093 7.71645 15.2993 7.71645H15.2693C15.2093 7.71645 15.1493 7.71645 15.0993 7.73645C14.1293 7.78645 13.2393 7.47645 12.5693 6.90645C13.5993 5.98645 14.1893 4.60645 14.0693 3.10645C13.9993 2.29645 13.7193 1.55645 13.2993 0.926447C13.6793 0.736447 14.1193 0.616448 14.5693 0.576448C16.5293 0.406448 18.2793 1.86645 18.4493 3.84645Z" fill="#5B00FF" fill-opacity="0.4"/>
<path d="M20.4492 15.1529C20.3692 16.1229 19.7492 16.9629 18.7092 17.5329C17.7092 18.0829 16.4492 18.3429 15.1992 18.3129C15.9192 17.6629 16.3392 16.8529 16.4192 15.9929C16.5192 14.7529 15.9292 13.5629 14.7492 12.6129C14.0792 12.0829 13.2992 11.6629 12.4492 11.3529C14.6592 10.7129 17.4392 11.1429 19.1492 12.5229C20.0692 13.2629 20.5392 14.1929 20.4492 15.1529Z" fill="#5B00FF" fill-opacity="0.4"/>
</svg>
