<svg width="20" height="21" viewBox="0 0 20 21" fill="none" xmlns="http://www.w3.org/2000/svg">
<path d="M10 10.1309C12.7614 10.1309 15 7.89228 15 5.13086C15 2.36944 12.7614 0.130859 10 0.130859C7.23858 0.130859 5 2.36944 5 5.13086C5 7.89228 7.23858 10.1309 10 10.1309Z" fill="#5B00FF" fill-opacity="0.4"/>
<path opacity="0.4" d="M10.0002 12.6309C4.99018 12.6309 0.910156 15.9909 0.910156 20.1309C0.910156 20.4109 1.13016 20.6309 1.41016 20.6309H18.5902C18.8702 20.6309 19.0902 20.4109 19.0902 20.1309C19.0902 15.9909 15.0102 12.6309 10.0002 12.6309Z" fill="#B48CFC"/>
<path d="M19.43 12.8707C18.53 11.9707 17.8201 12.2607 17.2101 12.8707L13.67 16.4107C13.53 16.5507 13.4 16.8107 13.37 17.0007L13.18 18.3507C13.11 18.8407 13.45 19.1807 13.94 19.1107L15.29 18.9207C15.48 18.8907 15.75 18.7607 15.88 18.6207L19.42 15.0807C20.04 14.4807 20.33 13.7707 19.43 12.8707Z" fill="#5B00FF" fill-opacity="0.4"/>
</svg>
