<svg width="15" height="21" viewBox="0 0 15 21" fill="none" xmlns="http://www.w3.org/2000/svg">
<path d="M7.07031 0.716797C4.45031 0.716797 2.32031 2.8468 2.32031 5.4668C2.32031 8.0368 4.33031 10.1168 6.95031 10.2068C7.03031 10.1968 7.11031 10.1968 7.17031 10.2068C7.19031 10.2068 7.20031 10.2068 7.22031 10.2068C7.23031 10.2068 7.23031 10.2068 7.24031 10.2068C9.80031 10.1168 11.8103 8.0368 11.8203 5.4668C11.8203 2.8468 9.69031 0.716797 7.07031 0.716797Z" fill="#5B00FF" fill-opacity="0.4"/>
<path opacity="0.4" d="M12.1503 12.8769C9.36027 11.0169 4.81027 11.0169 2.00027 12.8769C0.730273 13.7169 0.0302734 14.8669 0.0302734 16.0969C0.0302734 17.3269 0.730273 18.4669 1.99027 19.3069C3.39027 20.2469 5.23027 20.7169 7.07027 20.7169C8.91027 20.7169 10.7503 20.2469 12.1503 19.3069C13.4103 18.4569 14.1103 17.3169 14.1103 16.0769C14.1003 14.8569 13.4103 13.7069 12.1503 12.8769Z" fill="#B48CFC"/>
<path d="M6.44055 17.9768C6.28055 17.9768 6.12055 17.9068 6.00055 17.7968L4.74055 16.5368C4.50055 16.2968 4.50055 15.8968 4.74055 15.6568C4.98055 15.4168 5.38055 15.4168 5.62055 15.6568L6.44055 16.4768L8.52055 14.3968C8.76055 14.1568 9.16055 14.1568 9.40055 14.3968C9.64055 14.6368 9.64055 15.0368 9.40055 15.2768L6.88055 17.7968C6.76055 17.9168 6.60055 17.9768 6.44055 17.9768Z" fill="#5B00FF" fill-opacity="0.4"/>
</svg>
