<svg width="25" height="24" viewBox="0 0 25 24" fill="none" xmlns="http://www.w3.org/2000/svg">
<path opacity="0.4" d="M17.8601 7.77C17.7901 7.76 17.7201 7.76 17.6501 7.77C16.1001 7.72 14.8701 6.45 14.8701 4.89C14.8701 3.3 16.1601 2 17.7601 2C19.3501 2 20.6501 3.29 20.6501 4.89C20.6401 6.45 19.4101 7.72 17.8601 7.77Z" fill="#B48CFC"/>
<path opacity="0.4" d="M21.1197 14.6999C19.9997 15.4499 18.4297 15.7299 16.9797 15.5399C17.3597 14.7199 17.5597 13.8099 17.5697 12.8499C17.5697 11.8499 17.3497 10.8999 16.9297 10.0699C18.4097 9.86992 19.9797 10.1499 21.1097 10.8999C22.6897 11.9399 22.6897 13.6499 21.1197 14.6999Z" fill="#B48CFC"/>
<path opacity="0.4" d="M6.77047 7.77C6.84047 7.76 6.91047 7.76 6.98047 7.77C8.53047 7.72 9.76047 6.45 9.76047 4.89C9.76047 3.3 8.47047 2 6.87047 2C5.28047 2 3.98047 3.29 3.98047 4.89C3.99047 6.45 5.22047 7.72 6.77047 7.77Z" fill="#B48CFC"/>
<path opacity="0.4" d="M6.88019 12.8501C6.88019 13.8201 7.09019 14.7401 7.47019 15.5701C6.06019 15.7201 4.5902 15.4201 3.5102 14.7101C1.9302 13.6601 1.9302 11.9501 3.5102 10.9001C4.5802 10.1801 6.0902 9.8901 7.5102 10.0501C7.1002 10.8901 6.88019 11.8401 6.88019 12.8501Z" fill="#B48CFC"/>
<path d="M12.4499 15.87C12.3699 15.86 12.2799 15.86 12.1899 15.87C10.3499 15.81 8.87988 14.3 8.87988 12.44C8.87988 10.54 10.4099 9 12.3199 9C14.2199 9 15.7599 10.54 15.7599 12.44C15.7599 14.3 14.2999 15.81 12.4499 15.87Z" fill="#5B00FF" fill-opacity="0.4"/>
<path d="M9.19988 17.9401C7.68988 18.9501 7.68988 20.6101 9.19988 21.6101C10.9199 22.7601 13.7399 22.7601 15.4599 21.6101C16.9699 20.6001 16.9699 18.9401 15.4599 17.9401C13.7499 16.7901 10.9299 16.7901 9.19988 17.9401Z" fill="#5B00FF" fill-opacity="0.4"/>
</svg>
