<svg width="22" height="22" viewBox="0 0 22 22" fill="none" xmlns="http://www.w3.org/2000/svg">
<path d="M11.0439 10.856C13.8054 10.856 16.0439 8.61738 16.0439 5.85596C16.0439 3.09453 13.8054 0.855957 11.0439 0.855957C8.28252 0.855957 6.04395 3.09453 6.04395 5.85596C6.04395 8.61738 8.28252 10.856 11.0439 10.856Z" fill="#5B00FF" fill-opacity="0.4"/>
<path opacity="0.4" d="M10.0441 13.356C5.03413 13.356 0.954102 16.716 0.954102 20.856C0.954102 21.136 1.1741 21.356 1.4541 21.356H18.6342C18.9142 21.356 19.1342 21.136 19.1342 20.856C19.1342 16.716 15.0541 13.356 10.0441 13.356Z" fill="#B48CFC"/>
<path d="M20.814 19.5357L20.054 18.7757C20.454 18.1757 20.684 17.4557 20.684 16.6857C20.684 14.5757 18.974 12.8657 16.864 12.8657C14.754 12.8657 13.0439 14.5757 13.0439 16.6857C13.0439 18.7957 14.754 20.5057 16.864 20.5057C17.634 20.5057 18.3539 20.2757 18.9539 19.8757L19.7139 20.6357C19.8639 20.7857 20.0639 20.8657 20.2639 20.8657C20.4639 20.8657 20.664 20.7857 20.814 20.6357C21.124 20.3257 21.124 19.8357 20.814 19.5357Z" fill="#5B00FF" fill-opacity="0.4"/>
</svg>
