<svg width="20" height="21" viewBox="0 0 20 21" fill="none" xmlns="http://www.w3.org/2000/svg">
<path opacity="0.4" d="M10 20.2344C4.48 20.2344 0 15.7544 0 10.2344C0 4.71438 4.48 0.234375 10 0.234375C15.52 0.234375 20 4.71438 20 10.2344C20 15.7544 15.52 20.2344 10 20.2344Z" fill="#B48CFC"/>
<path d="M10.2402 14.9844C7.62023 14.9844 5.49023 12.8544 5.49023 10.2344C5.49023 7.61438 7.62023 5.48438 10.2402 5.48438C11.3902 5.48438 12.5102 5.90438 13.3702 6.67438C13.6802 6.94438 13.7102 7.42437 13.4402 7.73438C13.1602 8.04438 12.6902 8.07438 12.3802 7.80438C11.7902 7.28438 11.0302 6.99438 10.2402 6.99438C8.45023 6.99438 6.99023 8.45438 6.99023 10.2444C6.99023 12.0344 8.45023 13.4944 10.2402 13.4944C11.0202 13.4944 11.7902 13.2044 12.3802 12.6844C12.6902 12.4144 13.1702 12.4444 13.4402 12.7544C13.7102 13.0644 13.6802 13.5444 13.3702 13.8144C12.5002 14.5644 11.3902 14.9844 10.2402 14.9844Z" fill="#5B00FF" fill-opacity="0.4"/>
</svg>
