<svg width="12" height="13" viewBox="0 0 12 13" fill="none" xmlns="http://www.w3.org/2000/svg">
<path opacity="0.4" d="M9 12.6256H6.6H4.5C4.5 13.2569 4.5 11.5 4.5 12.6256H3C1.2 12.6256 0 11.0474 0 8.68012V3.94551C0 1.5782 1.2 0 3 0H9C10.8 0 12 1.5782 12 3.94551V8.68012C12 11.0474 10.8 12.6256 9 12.6256Z" fill="#292D32"/>
<path d="M6.00006 8.67969C5.59006 8.67969 5.25006 8.33969 5.25006 7.92969V7.71973C5.25006 6.55973 6.10004 5.98971 6.42004 5.76971C6.79004 5.51971 6.91003 5.34972 6.91003 5.08972C6.91003 4.58972 6.50006 4.17969 6.00006 4.17969C5.50006 4.17969 5.09009 4.58972 5.09009 5.08972C5.09009 5.49972 4.75009 5.83972 4.34009 5.83972C3.93009 5.83972 3.59009 5.49972 3.59009 5.08972C3.59009 3.75972 4.67006 2.67969 6.00006 2.67969C7.33006 2.67969 8.41003 3.75972 8.41003 5.08972C8.41003 6.22972 7.57007 6.7997 7.26007 7.0097C6.87007 7.2697 6.75006 7.43973 6.75006 7.71973V7.92969C6.75006 8.34969 6.41006 8.67969 6.00006 8.67969Z" fill="#656668"/>
<path d="M6 11.1699C5.58 11.1699 5.25 10.8299 5.25 10.4199C5.25 10.0099 5.59 9.66992 6 9.66992C6.41 9.66992 6.75 10.0099 6.75 10.4199C6.75 10.8299 6.42 11.1699 6 11.1699Z" fill="#656668"/>
</svg>
