<svg width="25" height="24" viewBox="0 0 25 24" fill="none" xmlns="http://www.w3.org/2000/svg">
<path opacity="0.4" d="M12.5 21.5C17.7467 21.5 22 17.2467 22 12C22 6.75329 17.7467 2.5 12.5 2.5C7.25329 2.5 3 6.75329 3 12C3 17.2467 7.25329 21.5 12.5 21.5Z" fill="#5521B4"/>
<path d="M21.8001 22.0001C21.6201 22.0001 21.4401 21.9301 21.3101 21.8001L19.4501 19.9401C19.1801 19.6701 19.1801 19.2301 19.4501 18.9501C19.7201 18.6801 20.1601 18.6801 20.4401 18.9501L22.3001 20.8101C22.5701 21.0801 22.5701 21.5201 22.3001 21.8001C22.1601 21.9301 21.9801 22.0001 21.8001 22.0001Z" fill="#6F3FC4"/>
</svg>
