<svg width="20" height="21" viewBox="0 0 20 21" fill="none" xmlns="http://www.w3.org/2000/svg">
<path opacity="0.4" d="M19.085 6.93599V13.776C19.085 14.896 18.485 15.936 17.515 16.506L11.575 19.936C10.605 20.496 9.40504 20.496 8.42504 19.936L2.48504 16.506C1.51504 15.946 0.915039 14.906 0.915039 13.776V6.93599C0.915039 5.81599 1.51504 4.77595 2.48504 4.20595L8.42504 0.775957C9.39504 0.215957 10.595 0.215957 11.575 0.775957L17.515 4.20595C18.485 4.77595 19.085 5.80599 19.085 6.93599Z" fill="#B48CFC"/>
<path d="M10.0048 10.3558C11.2916 10.3558 12.3348 9.31258 12.3348 8.02576C12.3348 6.73893 11.2916 5.6958 10.0048 5.6958C8.71798 5.6958 7.6748 6.73893 7.6748 8.02576C7.6748 9.31258 8.71798 10.3558 10.0048 10.3558Z" fill="#5B00FF" fill-opacity="0.4"/>
<path d="M12.685 15.0158C13.495 15.0158 13.965 14.1159 13.515 13.4459C12.835 12.4359 11.515 11.7559 10.005 11.7559C8.49504 11.7559 7.17504 12.4359 6.49504 13.4459C6.04504 14.1159 6.51504 15.0158 7.32504 15.0158H12.685Z" fill="#5B00FF" fill-opacity="0.4"/>
</svg>
