<svg width="24" height="24" viewBox="0 0 24 24" fill="none" xmlns="http://www.w3.org/2000/svg">
<path opacity="0.4" d="M10.9696 2.06008L5.46957 4.12008C4.41957 4.52008 3.55957 5.76008 3.55957 6.89008V14.9901C3.55957 15.8001 4.08957 16.8701 4.73957 17.3501L10.2396 21.4601C11.2096 22.1901 12.7996 22.1901 13.7696 21.4601L19.2696 17.3501C19.9196 16.8601 20.4496 15.8001 20.4496 14.9901V6.89008C20.4496 5.77008 19.5896 4.52008 18.5396 4.13008L13.0396 2.07008C12.4796 1.85008 11.5396 1.85008 10.9696 2.06008Z" fill="#6F3FC4"/>
<path d="M10.67 14.2301C10.48 14.2301 10.29 14.1601 10.14 14.0101L8.53 12.4001C8.24 12.1101 8.24 11.6301 8.53 11.3401C8.82 11.0501 9.3 11.0501 9.59 11.3401L10.67 12.4201L14.44 8.65012C14.73 8.36012 15.21 8.36012 15.5 8.65012C15.79 8.94012 15.79 9.42012 15.5 9.71012L11.2 14.0101C11.05 14.1601 10.86 14.2301 10.67 14.2301Z" fill="#5521B4"/>
</svg>
