<svg width="22" height="20" viewBox="0 0 22 20" fill="none" xmlns="http://www.w3.org/2000/svg">
<path opacity="0.4" d="M2.91992 0.942627V12.9126C2.91992 13.8926 3.37992 14.8226 4.16992 15.4126L9.37991 19.3126C10.4899 20.1426 12.0199 20.1426 13.1299 19.3126L18.3399 15.4126C19.1299 14.8226 19.5899 13.8926 19.5899 12.9126V0.942627H2.91992Z" fill="#B48CFC"/>
<path d="M21.25 1.69263H1.25C0.84 1.69263 0.5 1.35263 0.5 0.942627C0.5 0.532627 0.84 0.192627 1.25 0.192627H21.25C21.66 0.192627 22 0.532627 22 0.942627C22 1.35263 21.66 1.69263 21.25 1.69263Z" fill="#5B00FF" fill-opacity="0.4"/>
<path d="M15.25 7.19263H7.25C6.84 7.19263 6.5 6.85263 6.5 6.44263C6.5 6.03263 6.84 5.69263 7.25 5.69263H15.25C15.66 5.69263 16 6.03263 16 6.44263C16 6.85263 15.66 7.19263 15.25 7.19263Z" fill="#5B00FF" fill-opacity="0.4"/>
<path d="M15.25 12.1926H7.25C6.84 12.1926 6.5 11.8526 6.5 11.4426C6.5 11.0326 6.84 10.6926 7.25 10.6926H15.25C15.66 10.6926 16 11.0326 16 11.4426C16 11.8526 15.66 12.1926 15.25 12.1926Z" fill="#5B00FF" fill-opacity="0.4"/>
</svg>
