<?xml version="1.0" encoding="utf-8"?>
<!-- Generator: Adobe Illustrator 27.5.0, SVG Export Plug-In . SVG Version: 6.00 Build 0)  -->
<svg version="1.1" xmlns="http://www.w3.org/2000/svg" xmlns:xlink="http://www.w3.org/1999/xlink" x="0px" y="0px"
	 viewBox="0 0 3710 3710" style="enable-background:new 0 0 3710 3710;" xml:space="preserve">
<g id="Background">
	<g>
		<g>
			<rect style="fill:#FFFFFF;" width="3710" height="3710"/>
		</g>
	</g>
</g>
<g id="Illustration">
	<g>
		<path style="fill:#F4F7FA;" d="M3255.273,1837.535c47.447,242.102,143.613,732.782-86.516,1061.033
			c-417.657,595.745-1838.071,553.763-2438.044-197.346c-51.871-64.937-312.076-403.668-283.686-867.5
			c49.245-804.531,938.127-1517.628,1650.502-1377.57c416.919,81.969,694.021,440.558,808.1,588.186
			C2952.644,1105.179,3167.957,1392.002,3255.273,1837.535z"/>
		<g>
			<g>
				<defs>
					<path id="SVGID_1_" d="M1170.865,2917.472c136.736-64.751,326.823-180.209,462.365-386.339
						c177.76-270.337,105.522-459.109,280.836-957.234c110.849-314.96,191.382-533.647,389.718-600.648
						c155.426-52.505,364.586-5.573,460.204,120.233c79.503,104.605,89.817,275.986,72.934,390.515
						c-13.759,93.341-46.312,153.853-10.262,216.957c36.841,64.491,101.873,55.623,139.304,106.654
						c75.911,103.491-57.767,322.348-79.372,357.719c-240.33,393.465-726.029,554.679-938.74,622.449
						C1771.975,2843.813,1506.945,2908.613,1170.865,2917.472z"/>
				</defs>
				
					<linearGradient id="SVGID_00000183947202608319012650000004614454059444743572_" gradientUnits="userSpaceOnUse" x1="1580.8484" y1="1504.196" x2="1924.6162" y2="1949.9613">
					<stop  offset="0" style="stop-color:#AA80F9"/>
					<stop  offset="0.9964" style="stop-color:#6165D7"/>
				</linearGradient>
				
					<use xlink:href="#SVGID_1_"  style="overflow:visible;fill:url(#SVGID_00000183947202608319012650000004614454059444743572_);"/>
				<clipPath id="SVGID_00000180338919685966035060000002303663959672353197_">
					<use xlink:href="#SVGID_1_"  style="overflow:visible;"/>
				</clipPath>
				<g style="opacity:0.5;clip-path:url(#SVGID_00000180338919685966035060000002303663959672353197_);">
					<path style="fill:#FFFFFF;" d="M1025.428,2956.625l-0.366-7.07c204.771-10.611,388.365-42.756,545.682-95.539
						c232.074-77.869,399.906-198.891,498.835-359.707c77.469-125.938,111.161-271.29,157.788-472.468
						c37.225-160.585,49.119-277.743,59.615-381.111c13.701-134.947,24.523-241.537,85.888-381.424
						c62.285-141.979,157.667-272.353,283.498-387.502l4.778,5.224c-125.095,114.479-219.906,244.052-281.79,385.124
						c-60.919,138.867-71.692,244.967-85.332,379.295c-10.514,103.576-22.435,220.973-59.757,381.995
						c-45.022,194.237-80.581,347.656-158.659,474.578c-99.818,162.267-268.922,284.3-502.612,362.709
						C1415.07,2913.718,1230.84,2945.982,1025.428,2956.625z"/>
					<path style="fill:#FFFFFF;" d="M2256.318,1908.013l-3.001-2.645c-0.892-0.786-89.937-80.216-159.371-220.478
						c-40.78-82.377-66.959-169.349-77.812-258.503c-13.563-111.426-3.087-226.567,31.141-342.224l6.79,2.009
						c-33.951,114.724-44.348,228.902-30.902,339.362c10.756,88.355,36.707,174.559,77.13,256.216
						c61.711,124.661,138.841,200.661,154.759,215.597c176.43-255.861,385.504-384.486,530.123-447.396
						c157.487-68.504,274.806-76.028,275.971-76.097l0.415,7.07c-1.158,0.067-117.471,7.567-273.869,75.656
						c-144.307,62.824-353.247,191.57-529.113,448.136L2256.318,1908.013z"/>
					<path style="fill:#FFFFFF;" d="M2154.823,2339.579c-2.59,0-5.145-0.033-7.7-0.1l-2.572-0.066l-0.729-2.467
						c-0.539-1.829-55.19-184.826-145.898-357.565c-90.327-172.025-384.821-316.453-387.784-317.893l3.091-6.369
						c2.985,1.449,299.552,146.881,390.965,320.97c85.283,162.41,138.793,333.828,145.666,356.365
						c1.639,0.028,3.281,0.042,4.927,0.042c184.855,0,430.325-173.698,604.798-320.554
						c191.926-161.546,341.626-326.331,343.117-327.977l5.248,4.75c-1.494,1.649-151.516,166.791-343.805,328.644
						c-112.997,95.109-218.285,170.511-312.937,224.11C2336.204,2306.594,2236.539,2339.579,2154.823,2339.579z"/>
					<path style="fill:#FFFFFF;" d="M1980.347,2866.765c-197.065,0-333.401-26.152-334.874-26.438l-6.925-1.354l5.224-4.742
						c71.18-64.622,114.622-142.138,129.121-230.397c11.619-70.714,4.813-148.501-20.226-231.202
						c-42.718-141.083-124.73-248.753-125.554-249.824l5.615-4.315c0.832,1.081,83.629,109.78,126.716,252.089
						c25.355,83.744,32.231,162.607,20.437,234.399c-14.403,87.683-56.815,164.91-126.094,229.653
						c33.144,5.772,181.538,29.206,379.881,24.407c207.2-5.017,512.812-42.764,792.084-194.114l541.943-293.702l3.375,6.227
						l-541.943,293.702c-280.573,152.052-587.446,189.952-795.476,194.97C2015.453,2866.563,1997.658,2866.765,1980.347,2866.765z"
						/>
				</g>
			</g>
		</g>
		<g>
			
				<linearGradient id="SVGID_00000099625734801291940490000002018811686161282237_" gradientUnits="userSpaceOnUse" x1="3318.7981" y1="1328.5265" x2="2143.4229" y2="1819.782" gradientTransform="matrix(0.9129 0.4081 -0.4081 0.9129 979.689 -27.106)">
				<stop  offset="0" style="stop-color:#FF9085"/>
				<stop  offset="1" style="stop-color:#FB6FBB"/>
			</linearGradient>
			<path style="fill:url(#SVGID_00000099625734801291940490000002018811686161282237_);" d="M1336.978,2868.16
				c173.629,123.675,413.452,252.381,698.007,289.604c72.619,9.5,521.225,68.182,595.029-137.592
				c25.997-72.484-16.467-116.568,16.79-213.982c39.408-115.428,124.251-127.417,239.801-224.712
				c68.948-58.055,270.725-227.954,235.871-424.751c-20.828-117.6-125.214-239.485-237.6-280.61
				c-164.847-60.322-314.605,64.926-565.044,281.296c-222.004,191.805-241.878,263.152-403.694,398.443
				C1796.045,2656.264,1611.084,2780.761,1336.978,2868.16z"/>
			<g>
				<defs>
					<path id="SVGID_00000153707186619779725370000010849084976152745641_" d="M1336.978,2868.16
						c173.629,123.675,413.452,252.381,698.007,289.604c72.619,9.5,521.225,68.182,595.029-137.592
						c25.997-72.484-16.467-116.568,16.79-213.982c39.408-115.428,124.251-127.417,239.801-224.712
						c68.948-58.055,270.725-227.954,235.871-424.751c-20.828-117.6-125.214-239.485-237.6-280.61
						c-164.847-60.322-314.605,64.926-565.044,281.296c-222.004,191.805-241.878,263.152-403.694,398.443
						C1796.045,2656.264,1611.084,2780.761,1336.978,2868.16z"/>
				</defs>
				
					<linearGradient id="SVGID_00000036238256676847745360000015691308936976317843_" gradientUnits="userSpaceOnUse" x1="1336.9777" y1="2516.8469" x2="3126.4885" y2="2516.8469">
					<stop  offset="0" style="stop-color:#FCB148"/>
					<stop  offset="0.0521" style="stop-color:#FDBA46"/>
					<stop  offset="0.1424" style="stop-color:#FFC244"/>
					<stop  offset="0.3183" style="stop-color:#FFC444"/>
					<stop  offset="0.4849" style="stop-color:#FDB946"/>
					<stop  offset="0.7754" style="stop-color:#F99C4D"/>
					<stop  offset="0.8658" style="stop-color:#F8924F"/>
					<stop  offset="1" style="stop-color:#F8924F"/>
				</linearGradient>
				
					<use xlink:href="#SVGID_00000153707186619779725370000010849084976152745641_"  style="overflow:visible;fill:url(#SVGID_00000036238256676847745360000015691308936976317843_);"/>
				<clipPath id="SVGID_00000062191017553057526180000014640943411565503155_">
					<use xlink:href="#SVGID_00000153707186619779725370000010849084976152745641_"  style="overflow:visible;"/>
				</clipPath>
				<g style="opacity:0.5;clip-path:url(#SVGID_00000062191017553057526180000014640943411565503155_);">
					<path style="fill:#FFFFFF;" d="M1456.821,2870.314c-124.787,0-244.82-20.425-359.584-61.329
						c-208.345-74.259-392.173-210.371-546.379-404.554l5.546-4.405c153.369,193.132,336.133,328.482,543.212,402.29
						c275.888,98.331,582.873,77.516,912.422-61.866c343.241-145.178,624.951-382.593,800.835-556.195
						c121.921-120.339,216.3-282.02,280.51-480.549l6.735,2.178c-64.563,199.622-159.533,362.265-282.274,483.411
						c-176.323,174.036-458.776,412.06-803.051,557.676C1820.492,2829.154,1633.894,2870.314,1456.821,2870.314z"/>
					<path style="fill:#FFFFFF;" d="M2434.508,2507.658l-0.138-3.523c-0.042-1.046-3.748-106.126,25.737-241.99
						c27.227-125.47,89.134-303.697,229.441-440.241l4.937,5.075c-138.99,135.263-200.386,312.014-227.419,436.473
						c-26.304,121.122-26.065,217.553-25.709,236.879c549.667-20.478,750.585-344.094,799.148-442.967
						c1.39-2.825,1.967-3.997,2.385-4.642l5.94,3.858l-2.97-1.929l2.973,1.924c-0.235,0.373-1.079,2.092-1.971,3.908
						c-49.109,99.98-252.558,427.698-808.832,447.052L2434.508,2507.658z"/>
					<path style="fill:#FFFFFF;" d="M2543.913,2991.7c-4.481,0-9-0.053-13.591-0.164c-77.597-1.888-156.024-19.648-233.11-52.786
						c-96.232-41.371-190.622-106.964-280.542-194.956l-1.338-1.31l0.328-1.843c0.567-3.179,59.578-321.629,297.075-644.529
						l239.758-325.973l5.705,4.194l-239.759,325.973c-227.18,308.87-290.323,613.348-295.46,639.752
						c111.646,108.899,289.918,239.105,507.515,244.398c130.354,3.158,214.036-40.728,214.865-41.172l3.34,6.244
						C2747.884,2949.965,2668.392,2991.7,2543.913,2991.7z"/>
				</g>
			</g>
		</g>
		<g>
			<g>
				
					<linearGradient id="SVGID_00000123426017876665399780000008204405383475288970_" gradientUnits="userSpaceOnUse" x1="800.8815" y1="2643.8706" x2="1272.793" y2="1130.9788" gradientTransform="matrix(0.9793 -0.2026 0.2026 0.9793 390.9596 342.528)">
					<stop  offset="0" style="stop-color:#311944"/>
					<stop  offset="1" style="stop-color:#893976"/>
				</linearGradient>
				<path style="fill:url(#SVGID_00000123426017876665399780000008204405383475288970_);" d="M768.883,3109.035
					c-54.259,13.182-112.494,9.397-164.236-14.708c-114.606-53.379-153.091-185.524-85.616-294.243l984.211-1598.261
					c32.268-51.966,86.952-88.213,149.743-99.427c62.509-11.164,126.922,3.575,176.665,40.284l519.581,383.426l370.583-626.713
					c55.432-93.753,178.73-124.266,275.113-68.934c95.794,54.992,129.547,174.539,75.666,267.774l-477.582,826.369
					c-29.748,51.474-80.895,88.521-140.333,101.48c-59.7,13.016-121.882,0.455-170.344-34.564l-523.676-378.384l-829.68,1380.99
					C893.273,3053.018,833.938,3093.231,768.883,3109.035z"/>
				<g>
					
						<linearGradient id="SVGID_00000178897435067755495020000013476353501064224685_" gradientUnits="userSpaceOnUse" x1="1786.7018" y1="2984.5286" x2="2267.458" y2="1443.282" gradientTransform="matrix(0.9793 -0.2026 0.2026 0.9793 390.9596 342.528)">
						<stop  offset="0" style="stop-color:#311944"/>
						<stop  offset="1" style="stop-color:#893976"/>
					</linearGradient>
					<polygon style="fill:url(#SVGID_00000178897435067755495020000013476353501064224685_);" points="3220.265,1168.584 
						2601.498,817.539 3232.403,449.608 3279.749,439.812 3267.707,1153.073 					"/>
				</g>
			</g>
			<g>
				
					<linearGradient id="SVGID_00000144297849855424066310000017875579282492719773_" gradientUnits="userSpaceOnUse" x1="849.2283" y1="2643.8696" x2="1321.1399" y2="1130.9777" gradientTransform="matrix(0.9793 -0.2026 0.2026 0.9793 390.9596 342.528)">
					<stop  offset="0" style="stop-color:#FF9085"/>
					<stop  offset="1" style="stop-color:#FB6FBB"/>
				</linearGradient>
				<path style="fill:url(#SVGID_00000144297849855424066310000017875579282492719773_);" d="M816.229,3099.24
					c-54.259,13.181-112.494,9.397-164.236-14.709c-114.607-53.379-153.091-185.524-85.616-294.243l984.211-1598.26
					c32.268-51.967,86.952-88.214,149.743-99.428c62.509-11.164,126.922,3.575,176.665,40.285l519.581,383.426l370.583-626.713
					c55.432-93.753,178.731-124.266,275.112-68.934c95.794,54.992,129.548,174.539,75.666,267.774l-477.581,826.369
					c-29.748,51.475-80.896,88.521-140.333,101.481c-59.7,13.016-121.882,0.454-170.344-34.564l-523.676-378.383l-829.68,1380.99
					C940.618,3043.222,881.284,3083.435,816.229,3099.24z"/>
				<g>
					
						<linearGradient id="SVGID_00000111901563162346828560000005092007478785090436_" gradientUnits="userSpaceOnUse" x1="1823.6379" y1="2944.3938" x2="2294.926" y2="1433.5004" gradientTransform="matrix(0.9793 -0.2026 0.2026 0.9793 390.9596 342.528)">
						<stop  offset="0" style="stop-color:#FF9085"/>
						<stop  offset="1" style="stop-color:#FB6FBB"/>
					</linearGradient>
					<polygon style="fill:url(#SVGID_00000111901563162346828560000005092007478785090436_);" points="3267.611,1158.788 
						2648.844,807.742 3279.749,439.812 					"/>
				</g>
			</g>
		</g>
		<g>
			<g>
				<g>
					
						<linearGradient id="SVGID_00000183967800496585733970000015164046190576235435_" gradientUnits="userSpaceOnUse" x1="1556.5781" y1="3462.1545" x2="1280.4314" y2="2931.1023">
						<stop  offset="0" style="stop-color:#311944"/>
						<stop  offset="1" style="stop-color:#6B3976"/>
					</linearGradient>
					<path style="fill:url(#SVGID_00000183967800496585733970000015164046190576235435_);" d="M954.415,2719.06l93.453,420.061
						c0,27.11,83.13,49.089,185.675,49.089c102.545,0,185.675-21.979,185.675-49.089l93.454-420.061H954.415z"/>
					
						<linearGradient id="SVGID_00000109025715709006748520000012725737283222169489_" gradientUnits="userSpaceOnUse" x1="1178.5341" y1="2898.5493" x2="1158.688" y2="3196.2375">
						<stop  offset="0" style="stop-color:#FF9085"/>
						<stop  offset="1" style="stop-color:#FB6FBB"/>
					</linearGradient>
					<path style="opacity:0.3;fill:url(#SVGID_00000109025715709006748520000012725737283222169489_);" d="M1323.075,3104.315
						c-39.028-52.761-17.666-89.407-61.742-148.639c-66.355-89.17-159.74-66.553-205.808-130.345
						c-16.049-22.225-26.492-55.231-20-106.271h-81.11l93.453,420.061c0,27.11,83.13,49.089,185.675,49.089
						c70.682,0,132.117-10.447,163.486-25.811C1360.55,3145.481,1337.893,3124.346,1323.075,3104.315z"/>
					
						<linearGradient id="SVGID_00000157306474651938679900000006798271313693844923_" gradientUnits="userSpaceOnUse" x1="954.4145" y1="2719.0608" x2="1512.6711" y2="2719.0608">
						<stop  offset="0" style="stop-color:#FF9085"/>
						<stop  offset="1" style="stop-color:#FB6FBB"/>
					</linearGradient>
					<path style="fill:url(#SVGID_00000157306474651938679900000006798271313693844923_);" d="M1512.671,2719.061
						c0,27.111-124.97,49.09-279.129,49.09c-154.158,0-279.128-21.979-279.128-49.09c0-27.112,124.97-49.091,279.128-49.091
						C1387.701,2669.971,1512.671,2691.949,1512.671,2719.061z"/>
					
						<linearGradient id="SVGID_00000137106558749906690950000005198355678502698136_" gradientUnits="userSpaceOnUse" x1="1223.6648" y1="2850.4475" x2="1230.525" y2="2757.834">
						<stop  offset="0" style="stop-color:#FF9085"/>
						<stop  offset="1" style="stop-color:#FB6FBB"/>
					</linearGradient>
					
						<ellipse style="opacity:0.69;fill:url(#SVGID_00000137106558749906690950000005198355678502698136_);" cx="1233.543" cy="2717.092" rx="260.051" ry="38.875"/>
					
						<linearGradient id="SVGID_00000013894374125428358670000018354532658657036471_" gradientUnits="userSpaceOnUse" x1="1274.4768" y1="2638.2688" x2="1185.2936" y2="2837.2161">
						<stop  offset="0" style="stop-color:#FCB148"/>
						<stop  offset="0.0521" style="stop-color:#FDBA46"/>
						<stop  offset="0.1424" style="stop-color:#FFC244"/>
						<stop  offset="0.3183" style="stop-color:#FFC444"/>
						<stop  offset="0.4849" style="stop-color:#FDB946"/>
						<stop  offset="0.7754" style="stop-color:#F99C4D"/>
						<stop  offset="0.8658" style="stop-color:#F8924F"/>
						<stop  offset="1" style="stop-color:#F8924F"/>
					</linearGradient>
					<path style="fill:url(#SVGID_00000013894374125428358670000018354532658657036471_);" d="M987.29,2729.582
						c34.811,15.342,131.873,26.382,246.252,26.382c114.381,0,211.442-11.041,246.254-26.382
						c-46.985-15.467-139.582-25.998-246.254-25.998C1126.873,2703.584,1034.275,2714.115,987.29,2729.582z"/>
				</g>
				
					<linearGradient id="SVGID_00000070815468823955001770000017392909989951846319_" gradientUnits="userSpaceOnUse" x1="1323.8361" y1="3001.7786" x2="1216.3932" y2="2101.3101">
					<stop  offset="0" style="stop-color:#311944"/>
					<stop  offset="1" style="stop-color:#6B3976"/>
				</linearGradient>
				<path style="fill:url(#SVGID_00000070815468823955001770000017392909989951846319_);" d="M1233.544,2731.047
					c-7.58,0-13.721-6.145-13.721-13.719v-944.563c0-7.575,6.141-13.721,13.721-13.721c7.579,0,13.72,6.146,13.72,13.721v944.563
					C1247.264,2724.902,1241.123,2731.047,1233.544,2731.047z"/>
				<g>
					
						<linearGradient id="SVGID_00000064314456245041941380000003735223608344044676_" gradientUnits="userSpaceOnUse" x1="956.9237" y1="1260.1503" x2="180.9967" y2="1509.1686">
						<stop  offset="0" style="stop-color:#FCB148"/>
						<stop  offset="0.0521" style="stop-color:#FDBA46"/>
						<stop  offset="0.1424" style="stop-color:#FFC244"/>
						<stop  offset="0.3183" style="stop-color:#FFC444"/>
						<stop  offset="0.4849" style="stop-color:#FDB946"/>
						<stop  offset="0.7754" style="stop-color:#F99C4D"/>
						<stop  offset="0.8658" style="stop-color:#F8924F"/>
						<stop  offset="1" style="stop-color:#F8924F"/>
					</linearGradient>
					<path style="fill:url(#SVGID_00000064314456245041941380000003735223608344044676_);" d="M1850.18,1231.994
						c0,359.963-281.466,643.125-641.216,632.079c-374.39-11.496-689.268-334.838-689.268-721.775s314.878-667.822,689.268-628.837
						C1568.714,550.917,1850.18,872.034,1850.18,1231.994z"/>
					
						<linearGradient id="SVGID_00000049201950698643779850000007151155513449057152_" gradientUnits="userSpaceOnUse" x1="1584.6034" y1="487.7928" x2="891.9042" y2="2016.0165">
						<stop  offset="0" style="stop-color:#FFDB44"/>
						<stop  offset="1" style="stop-color:#FEEF06"/>
					</linearGradient>
					<path style="fill:url(#SVGID_00000049201950698643779850000007151155513449057152_);" d="M1947.391,1200.956
						c0,359.963-281.466,643.125-641.216,632.078c-374.392-11.497-689.268-334.838-689.268-721.772
						c0-386.939,314.876-667.824,689.268-628.84C1665.926,519.881,1947.391,840.996,1947.391,1200.956z"/>
					
						<linearGradient id="SVGID_00000158022405041559010140000013733687468013955254_" gradientUnits="userSpaceOnUse" x1="1457.1821" y1="2101.4302" x2="1323.5242" y2="1371.2617">
						<stop  offset="0" style="stop-color:#FCB148"/>
						<stop  offset="0.0521" style="stop-color:#FDBA46"/>
						<stop  offset="0.1424" style="stop-color:#FFC244"/>
						<stop  offset="0.3183" style="stop-color:#FFC444"/>
						<stop  offset="0.4849" style="stop-color:#FDB946"/>
						<stop  offset="0.7754" style="stop-color:#F99C4D"/>
						<stop  offset="0.8658" style="stop-color:#F8924F"/>
						<stop  offset="1" style="stop-color:#F8924F"/>
					</linearGradient>
					<path style="fill:url(#SVGID_00000158022405041559010140000013733687468013955254_);" d="M1919.156,1199.052
						c0,344.114-269.312,614.348-612.981,603.221c-357.005-11.561-656.747-320.139-656.747-688.818
						c0-368.684,299.742-636.846,656.747-600.272C1649.844,548.395,1919.156,854.942,1919.156,1199.052z"/>
					
						<linearGradient id="SVGID_00000116220018653536762420000003813095503436587412_" gradientUnits="userSpaceOnUse" x1="1173.8024" y1="919.573" x2="1724.6229" y2="2088.8599">
						<stop  offset="0" style="stop-color:#FCB148"/>
						<stop  offset="0.0521" style="stop-color:#FDBA46"/>
						<stop  offset="0.1424" style="stop-color:#FFC244"/>
						<stop  offset="0.3183" style="stop-color:#FFC444"/>
						<stop  offset="0.4849" style="stop-color:#FDB946"/>
						<stop  offset="0.7754" style="stop-color:#F99C4D"/>
						<stop  offset="0.8658" style="stop-color:#F8924F"/>
						<stop  offset="1" style="stop-color:#F8924F"/>
					</linearGradient>
					<path style="fill:url(#SVGID_00000116220018653536762420000003813095503436587412_);" d="M1898.932,1197.689
						c0,332.756-260.596,593.762-592.757,582.609c-344.605-11.57-633.586-309.606-633.586-665.284
						c0-355.68,288.981-614.752,633.586-579.857C1638.336,568.792,1898.932,864.934,1898.932,1197.689z"/>
					<g>
						
							<linearGradient id="SVGID_00000094596910659361362340000000374871753816540565_" gradientUnits="userSpaceOnUse" x1="1151.8573" y1="667.9575" x2="1428.8291" y2="1705.999">
							<stop  offset="0" style="stop-color:#FFDB44"/>
							<stop  offset="1" style="stop-color:#FEEF06"/>
						</linearGradient>
						<path style="fill:url(#SVGID_00000094596910659361362340000000374871753816540565_);" d="M1302.775,648.362L1302.775,648.362
							c17.677,1.683,31.981,17.592,31.981,35.543v61.265c35.345,3.946,70.738,10.092,106.184,18.424
							c26.133,6.141,52.092,13.454,77.877,21.93c15.45,5.078,25.976,20.676,24.401,36.764l-7.525,76.826
							c-1.999,20.383-22.145,32.354-41.115,23.897c-16.981-7.575-34.397-14.065-52.245-19.463
							c-31.14-9.422-63.981-15.568-98.542-18.415l-9.037-0.745v175.457c92.209,25.799,159.927,60.502,203.69,104.155
							c43.549,43.443,65.247,97.585,65.247,162.583c0,70.29-23.989,126.576-72.158,169.026
							c-48.427,42.673-116.325,66.673-204.126,71.869v67.621c0,17.96-14.318,31.946-32.009,31.246l-0.567-0.023
							c-17.728-0.706-32.122-15.886-32.122-33.906v-66.706l-14.251-0.643c-41.158-1.856-80.586-6.056-118.254-12.607
							c-27.898-4.853-55.14-11.116-81.722-18.795c-16.075-4.643-27.11-19.957-25.635-36.41l8.852-98.758
							c1.913-21.349,23.359-33.77,43.66-25.762c23.664,9.332,47.623,17.195,71.872,23.59c37.79,9.966,76.097,16.358,114.909,19.196
							l0.569-195.172c-88.509-21.9-154.774-54.338-198.312-97.308c-43.74-43.169-65.687-98.415-65.687-165.589
							c0-69.513,23.797-123.171,71.212-160.828c47.176-37.467,114.238-56.11,200.756-56.062v-62.636
							C1270.68,659.913,1285.063,646.679,1302.775,648.362z M1270.68,882.571c-27.354,1.989-48.685,9.502-63.953,22.548
							c-15.291,13.066-22.947,30.628-22.947,52.669c0,20.879,7.082,38.332,21.227,52.341c14.127,13.989,36.036,25.158,65.673,33.503
							V882.571z M1327.409,1235.99v178.98c29.736,0.06,52.537-7.04,68.453-21.278c15.893-14.214,23.828-34.289,23.828-60.249
							c0-23.668-7.375-43.298-22.142-58.907C1382.759,1258.902,1359.4,1246.057,1327.409,1235.99z"/>
					</g>
					
						<linearGradient id="SVGID_00000145737252952427674760000012619029338737738371_" gradientUnits="userSpaceOnUse" x1="1011.7515" y1="995.2436" x2="1561.4617" y2="2162.1736">
						<stop  offset="0" style="stop-color:#FCB148"/>
						<stop  offset="0.0521" style="stop-color:#FDBA46"/>
						<stop  offset="0.1424" style="stop-color:#FFC244"/>
						<stop  offset="0.3183" style="stop-color:#FFC444"/>
						<stop  offset="0.4849" style="stop-color:#FDB946"/>
						<stop  offset="0.7754" style="stop-color:#F99C4D"/>
						<stop  offset="0.8658" style="stop-color:#F8924F"/>
						<stop  offset="1" style="stop-color:#F8924F"/>
					</linearGradient>
					<path style="opacity:0.3;fill:url(#SVGID_00000145737252952427674760000012619029338737738371_);" d="M1198.908,1279.177
						c20.028-197.802,201.816-281.535,178.092-463.481c-14.622-112.143-99.618-206.648-194.434-280.438
						c-287.591,30.16-509.979,268.293-509.979,579.758c0,355.68,288.984,653.716,633.589,665.286
						c33.459,1.123,66.136-0.618,97.91-4.781C1267.23,1639.336,1181.704,1449.113,1198.908,1279.177z"/>
				</g>
				
					<linearGradient id="SVGID_00000109738099206189229790000000256432923841014427_" gradientUnits="userSpaceOnUse" x1="820.5629" y1="1918.8813" x2="1294.739" y2="2875.0078">
					<stop  offset="0" style="stop-color:#AA80F9"/>
					<stop  offset="0.9964" style="stop-color:#6165D7"/>
				</linearGradient>
				<path style="fill:url(#SVGID_00000109738099206189229790000000256432923841014427_);" d="M1224.96,2714.046
					c-27.609,15.214-119.793-79.738-182.674-182.674c-40.908-66.965-23.578-73.002-56.611-120.052
					c-77.217-109.982-169.367-95.992-203.795-184.089c-24.876-63.651,18.015-84.298-7.081-141.614
					c-45.795-104.589-210.455-85.735-226.121-156.68c-10.319-46.728,49.096-109.305,108.826-136.034
					c166.684-74.59,456.346,87.322,520.815,295.387c34.651,111.832-23.999,145.834,3.886,361.461
					C1202.967,2610.287,1249.578,2700.481,1224.96,2714.046z"/>
				<path style="opacity:0.17;fill:#FFFFFF;" d="M619.024,1876.737c21.695-41.496,158.365-40.603,251.365,14.161
					c93.823,55.25,97.475,138.404,215.961,460.245c76.382,207.477,118.659,291.878,102.67,300.93
					c-16.497,9.339-89.653-64.578-130.993-155.776c-39.665-87.504-15.1-113.838-53.105-162.856
					c-62.962-81.207-160.377-47.611-191.179-113.291c-32.027-68.291,58.732-135.647,24.782-191.179
					c-35.486-58.044-153.632-15.517-205.34-92.049C629.418,1931.348,607.462,1898.851,619.024,1876.737z"/>
			</g>
			<g>
				
					<linearGradient id="SVGID_00000161591859003082378740000007909863000209080496_" gradientUnits="userSpaceOnUse" x1="305.2573" y1="4083.905" x2="319.4136" y2="4338.7202" gradientTransform="matrix(-0.7205 0.6935 0.6935 0.7205 357.1462 -137.4411)">
					<stop  offset="0" style="stop-color:#444B8C"/>
					<stop  offset="0.9964" style="stop-color:#26264F"/>
				</linearGradient>
				<path style="fill:url(#SVGID_00000161591859003082378740000007909863000209080496_);" d="M3058.146,3045.535
					c6.867,0.406,16.162,2.197,22.362,8.982c15.024,16.438,3.908,53.478-17.219,72.987c-22.354,20.643-58.638,24.177-63.663,15.452
					c-2.469-4.288,2.553-11.656,5.563-16.07c11.398-16.717,25.076-13.226,31.591-25.477c6.654-12.511-4.418-22.149,2.103-37.331
					C3043.101,3054.256,3051.881,3048.635,3058.146,3045.535z"/>
				
					<linearGradient id="SVGID_00000057110426956915522240000010907165466132581286_" gradientUnits="userSpaceOnUse" x1="2549.5996" y1="2971.2166" x2="2571.5532" y2="3366.3882">
					<stop  offset="0" style="stop-color:#444B8C"/>
					<stop  offset="0.9964" style="stop-color:#26264F"/>
				</linearGradient>
				<path style="fill:url(#SVGID_00000057110426956915522240000010907165466132581286_);" d="M2604.593,3111.733
					c0,0,2.745,21.845,0.904,29.163c-1.846,7.319-65.357,12.607-86.917,10.063c-21.559-2.543,12.842-24.566,26.578-28.698
					C2558.892,3118.129,2604.593,3111.733,2604.593,3111.733z"/>
				
					<linearGradient id="SVGID_00000057128991978606846400000017970145164175542947_" gradientUnits="userSpaceOnUse" x1="2591.0623" y1="3165.9629" x2="2579.3999" y2="2632.4258">
					<stop  offset="0" style="stop-color:#FFC444"/>
					<stop  offset="0.9964" style="stop-color:#F36F56"/>
				</linearGradient>
				<path style="fill:url(#SVGID_00000057128991978606846400000017970145164175542947_);" d="M2572.622,3075.292l6.694,43.827
					c0,0,17.071,7.673,25.277,0.089l0.904-45.874L2572.622,3075.292z"/>
				
					<linearGradient id="SVGID_00000173125743518372878660000008255983980369950618_" gradientUnits="userSpaceOnUse" x1="2421.6677" y1="2819.1868" x2="2643.2488" y2="2521.8013">
					<stop  offset="0" style="stop-color:#311944"/>
					<stop  offset="1" style="stop-color:#6B3976"/>
				</linearGradient>
				<path style="fill:url(#SVGID_00000173125743518372878660000008255983980369950618_);" d="M2439.613,2266.429
					c-4.648,45.642-9.108,116.483-2.44,202.46c8.69,112.015,31.089,182.898,59.178,302.335
					c17.168,72.991,40.299,180.42,61.231,314.776c4.857,2.78,19.146,10.089,37.543,7.361c10.299-1.531,18.004-5.624,22.553-8.569
					c54.921-167.823,38.701-271.822,12.196-336.616c-11.296-27.618-24.994-49.408-32.316-91.863
					c-9.689-56.17,2.291-87.571,19.374-217.682c12.175-92.737,10.068-107.072,1.966-120.979
					C2586.515,2262.047,2487.465,2263.134,2439.613,2266.429z"/>
				
					<linearGradient id="SVGID_00000181781368922804527160000001444918936874618765_" gradientUnits="userSpaceOnUse" x1="2449.9326" y1="2840.2468" x2="2671.5134" y2="2542.8618">
					<stop  offset="0" style="stop-color:#311944"/>
					<stop  offset="1" style="stop-color:#6B3976"/>
				</linearGradient>
				<path style="opacity:0.3;fill:url(#SVGID_00000181781368922804527160000001444918936874618765_);" d="M2629.873,2748.177
					c-11.296-27.62-24.994-49.41-32.316-91.863c-9.689-56.17,2.291-87.571,19.374-217.682
					c12.175-92.737,10.068-107.072,1.966-120.979c-17.598-30.217-54.893-43.625-92.951-49.102c0.507,1.951,1.02,3.907,1.434,5.795
					c19.969,91.197-56.243,146.842-21.867,247.091c16.949,49.426,43.992,60.747,50.292,118.08
					c5.903,53.706-15.506,64.893-10.931,113.706c6.834,72.967,58.669,90.627,72.159,146.505
					c8.764,36.31,1.383,89.403-62.629,166.252c1.063,6.622,2.125,13.264,3.178,20.02c4.859,2.78,19.146,10.089,37.543,7.361
					c10.299-1.531,18.004-5.624,22.553-8.569C2672.599,2916.969,2656.378,2812.971,2629.873,2748.177z"/>
				
					<linearGradient id="SVGID_00000017503198593077127240000007543388741901402026_" gradientUnits="userSpaceOnUse" x1="3052.3357" y1="3131.4724" x2="3036.0249" y2="2385.2729">
					<stop  offset="0" style="stop-color:#FFC444"/>
					<stop  offset="0.9964" style="stop-color:#F36F56"/>
				</linearGradient>
				<path style="fill:url(#SVGID_00000017503198593077127240000007543388741901402026_);" d="M3031.703,3013.158l16.003,50.38
					c2.146,6.754,10.657,9.611,15.943,4.891c1.326-1.184,2.646-2.681,3.904-4.571v-61.826L3031.703,3013.158z"/>
				
					<linearGradient id="SVGID_00000055686921191859486770000018228429144880605880_" gradientUnits="userSpaceOnUse" x1="2899.3552" y1="2950.1736" x2="2852.3809" y2="2616.408">
					<stop  offset="0" style="stop-color:#311944"/>
					<stop  offset="1" style="stop-color:#6B3976"/>
				</linearGradient>
				<path style="fill:url(#SVGID_00000055686921191859486770000018228429144880605880_);" d="M2616.969,2309.778
					c-12.332,18.349,1.888,46.279,160.701,275.666c93.948,135.694,119.279,169.698,154.955,232.39
					c50.97,89.569,83.208,167.679,102.282,218.937c4.573,0.889,12.431,1.724,20.901-1.362c0,0,8.141-2.965,14.836-10.049
					c7.87-8.325,41.544-77.676-1.989-232.68c-19.525-69.52-38.421-136.809-93.774-203.007
					c-36.064-43.135-55.209-47.056-84.482-94.364c-41.07-66.372-26.81-96.494-57.102-136.085
					C2778.307,2287.353,2642.936,2271.133,2616.969,2309.778z"/>
				
					<linearGradient id="SVGID_00000163774839405466264660000004695524748251597463_" gradientUnits="userSpaceOnUse" x1="2652.7141" y1="1283.7397" x2="3118.0222" y2="2041.3577">
					<stop  offset="0" style="stop-color:#444B8C"/>
					<stop  offset="0.9964" style="stop-color:#26264F"/>
				</linearGradient>
				<path style="fill:url(#SVGID_00000163774839405466264660000004695524748251597463_);" d="M2520.393,1714.922
					c-54.633-65.28-106.161-54.155-145.868-116.2c-23.513-36.742-40.285-95.089-14.982-129.769
					c13.121-17.982,33.43-23.946,49.596-28.461c59.112-16.509,96.782,7.987,140.923,12.362
					c76.163,7.547,88.625-53.02,207.542-100.246c40.073-15.915,167.335-66.453,274.565-11.009
					c13.827,7.152,91.6,49.297,96.421,113.728c3.817,51.002-41.168,74.663-29.927,102.94c19.541,49.162,161.211-7.982,225.242,55.29
					c59.741,59.032,32.774,203.992-32.141,294.208c-95.996,133.41-268.127,137.582-304.098,138.451
					c-180.349,4.37-363.978-106.668-417.826-234.872C2558.111,1783.419,2551.405,1751.979,2520.393,1714.922z"/>
				
					<linearGradient id="SVGID_00000105425624239481379130000000292708204422497201_" gradientUnits="userSpaceOnUse" x1="1792.9429" y1="2050.615" x2="1908.3184" y2="1886.6171">
					<stop  offset="0" style="stop-color:#FFC444"/>
					<stop  offset="0.9964" style="stop-color:#F36F56"/>
				</linearGradient>
				<path style="fill:url(#SVGID_00000105425624239481379130000000292708204422497201_);" d="M1866.709,1997.126
					c0,0-53.043-4.253-68.581,1.974c-15.539,6.227-38.418,31.876-36.682,44.669c1.736,12.793,1.736,12.793,1.736,12.793
					s32.908,14.085,41.95-1.542c9.042-15.626,18.939-28.955,35.267-31.579C1856.728,2020.818,1866.672,2012.794,1866.709,1997.126z"
					/>
				
					<linearGradient id="SVGID_00000101081603427127218110000013489867368735051666_" gradientUnits="userSpaceOnUse" x1="1646.4907" y1="1979.5565" x2="1936.4756" y2="2353.571">
					<stop  offset="0" style="stop-color:#FCB148"/>
					<stop  offset="0.0521" style="stop-color:#FDBA46"/>
					<stop  offset="0.1424" style="stop-color:#FFC244"/>
					<stop  offset="0.3183" style="stop-color:#FFC444"/>
					<stop  offset="0.4849" style="stop-color:#FDB946"/>
					<stop  offset="0.7754" style="stop-color:#F99C4D"/>
					<stop  offset="0.8658" style="stop-color:#F8924F"/>
					<stop  offset="1" style="stop-color:#F8924F"/>
				</linearGradient>
				<path style="fill:url(#SVGID_00000101081603427127218110000013489867368735051666_);" d="M1713.1,2204.598l54.818,140.434
					c6.978,17.878,26.326,27.543,44.794,22.32c49.859-14.101,142.675-48.395,180.52-115.503c7.491-13.283,5.667-29.908-4.059-41.654
					l-94.229-113.792c-6.577-7.943-17.962-9.904-26.818-4.621l-146.26,87.255C1713.092,2184.271,1709.385,2195.08,1713.1,2204.598z"
					/>
				
					<linearGradient id="SVGID_00000059291258774902539150000002824037487906668703_" gradientUnits="userSpaceOnUse" x1="1531.345" y1="2068.8333" x2="1821.4331" y2="2442.9812">
					<stop  offset="0" style="stop-color:#FCB148"/>
					<stop  offset="0.0521" style="stop-color:#FDBA46"/>
					<stop  offset="0.1424" style="stop-color:#FFC244"/>
					<stop  offset="0.3183" style="stop-color:#FFC444"/>
					<stop  offset="0.4849" style="stop-color:#FDB946"/>
					<stop  offset="0.7754" style="stop-color:#F99C4D"/>
					<stop  offset="0.8658" style="stop-color:#F8924F"/>
					<stop  offset="1" style="stop-color:#F8924F"/>
				</linearGradient>
				<polygon style="fill:url(#SVGID_00000059291258774902539150000002824037487906668703_);" points="1562.389,2212.517 
					1749.255,2236.928 1770.066,2316.264 1571.45,2233.52 				"/>
				
					<linearGradient id="SVGID_00000130641345694590133380000014800190099885201051_" gradientUnits="userSpaceOnUse" x1="1472.2747" y1="2128.4304" x2="1744.7991" y2="2479.925">
					<stop  offset="0" style="stop-color:#FCB148"/>
					<stop  offset="0.0521" style="stop-color:#FDBA46"/>
					<stop  offset="0.1424" style="stop-color:#FFC244"/>
					<stop  offset="0.3183" style="stop-color:#FFC444"/>
					<stop  offset="0.4849" style="stop-color:#FDB946"/>
					<stop  offset="0.7754" style="stop-color:#F99C4D"/>
					<stop  offset="0.8658" style="stop-color:#F8924F"/>
					<stop  offset="1" style="stop-color:#F8924F"/>
				</linearGradient>
				<path style="fill:url(#SVGID_00000130641345694590133380000014800190099885201051_);" d="M1512.238,2193.401
					c-1.091,26.935,1.164,48.518,6.253,65.577c1.328,4.451,5.92,7.043,10.398,5.807l67.797-18.718v-29.069l-72.666-31.141
					C1518.547,2183.511,1512.479,2187.451,1512.238,2193.401z"/>
				
					<linearGradient id="SVGID_00000179623163667000669250000016577403112660794018_" gradientUnits="userSpaceOnUse" x1="1729.0055" y1="2020.2678" x2="1820.1927" y2="2168.7395">
					<stop  offset="0" style="stop-color:#311944"/>
					<stop  offset="1" style="stop-color:#6B3976"/>
				</linearGradient>
				<path style="fill:url(#SVGID_00000179623163667000669250000016577403112660794018_);" d="M1743.918,2175.773
					c-3.51,0-6.91-1.873-8.701-5.176c-2.622-4.829-63.422-118.653-2.4-152.609c59.771-33.28,136.259,89.845,144.781,103.992
					c2.82,4.674,1.314,10.749-3.365,13.569c-4.689,2.811-10.749,1.314-13.574-3.36c-19.055-31.609-81.703-117.359-118.223-96.914
					c-43.416,24.153,9.619,124.882,10.165,125.896c2.607,4.8,0.821,10.806-3.979,13.405
					C1747.124,2175.387,1745.507,2175.773,1743.918,2175.773z"/>
				
					<linearGradient id="SVGID_00000116926646908764726130000009894620167160081821_" gradientUnits="userSpaceOnUse" x1="1646.4915" y1="1979.5566" x2="1936.4762" y2="2353.5713">
					<stop  offset="0" style="stop-color:#FCB148"/>
					<stop  offset="0.0521" style="stop-color:#FDBA46"/>
					<stop  offset="0.1424" style="stop-color:#FFC244"/>
					<stop  offset="0.3183" style="stop-color:#FFC444"/>
					<stop  offset="0.4849" style="stop-color:#FDB946"/>
					<stop  offset="0.7754" style="stop-color:#F99C4D"/>
					<stop  offset="0.8658" style="stop-color:#F8924F"/>
					<stop  offset="1" style="stop-color:#F8924F"/>
				</linearGradient>
				<path style="opacity:0.3;fill:url(#SVGID_00000116926646908764726130000009894620167160081821_);" d="M1989.172,2210.193
					l-94.228-113.791c-6.577-7.943-17.962-9.904-26.818-4.621l-100.783,60.123c-0.873,19.103,2.446,37.012,14.26,48.771
					c32.267,32.112,103.676-5.35,120.321,21.431c12.035,19.363-12.738,59.157-37.909,80.761
					c-31.734,27.235-71.16,31.644-100.855,29.972l4.759,12.193c6.978,17.876,26.326,27.543,44.794,22.319
					c49.859-14.1,142.675-48.395,180.518-115.505C2000.723,2238.567,1998.9,2221.942,1989.172,2210.193z"/>
				
					<linearGradient id="SVGID_00000087412120349536052580000000944340029036484007_" gradientUnits="userSpaceOnUse" x1="1788.3934" y1="2108.1477" x2="1792.514" y2="2132.4587">
					<stop  offset="0" style="stop-color:#FCB148"/>
					<stop  offset="0.0521" style="stop-color:#FDBA46"/>
					<stop  offset="0.1424" style="stop-color:#FFC244"/>
					<stop  offset="0.3183" style="stop-color:#FFC444"/>
					<stop  offset="0.4849" style="stop-color:#FDB946"/>
					<stop  offset="0.7754" style="stop-color:#F99C4D"/>
					<stop  offset="0.8658" style="stop-color:#F8924F"/>
					<stop  offset="1" style="stop-color:#F8924F"/>
				</linearGradient>
				<path style="fill:url(#SVGID_00000087412120349536052580000000944340029036484007_);" d="M1877.896,2092.094
					c5.66,9.803-27.361,39.465-73.756,66.251c-46.393,26.786-88.592,40.552-94.252,30.748c-5.66-9.803,27.362-39.465,73.755-66.25
					C1830.038,2096.056,1872.236,2082.291,1877.896,2092.094z"/>
				
					<linearGradient id="SVGID_00000096057811354700139400000003104459125378287745_" gradientUnits="userSpaceOnUse" x1="1773.8408" y1="1992.7312" x2="1865.0281" y2="2141.2029">
					<stop  offset="0" style="stop-color:#311944"/>
					<stop  offset="1" style="stop-color:#6B3976"/>
				</linearGradient>
				<path style="fill:url(#SVGID_00000096057811354700139400000003104459125378287745_);" d="M1877.598,2121.98
					c-6.208-10.304-48.483-78.38-94.087-101.762c-0.601,6.669-2.268,13.371-5.003,19.818c32.686,19.387,68.54,69.573,82.151,92.153
					c2.825,4.674,8.885,6.171,13.574,3.36C1878.912,2132.729,1880.418,2126.655,1877.598,2121.98z"/>
				
					<linearGradient id="SVGID_00000039128319588165858620000013563893848862798782_" gradientUnits="userSpaceOnUse" x1="1786.8435" y1="2046.3241" x2="1902.2189" y2="1882.3265">
					<stop  offset="0" style="stop-color:#FFC444"/>
					<stop  offset="0.9964" style="stop-color:#F36F56"/>
				</linearGradient>
				<path style="fill:url(#SVGID_00000039128319588165858620000013563893848862798782_);" d="M1814.03,2011.67l-38.921,26.475
					c0,0,0.252,11.356,16.56,0c16.306-11.356,27.02-12.229,27.02-12.229L1814.03,2011.67z"/>
				
					<linearGradient id="SVGID_00000180324322349271856450000017300146853828239275_" gradientUnits="userSpaceOnUse" x1="2873.6313" y1="2863.0574" x2="3245.3501" y2="3367.532">
					<stop  offset="0.494" style="stop-color:#EBEFF2"/>
					<stop  offset="1" style="stop-color:#FFFFFF"/>
				</linearGradient>
				<path style="fill:url(#SVGID_00000180324322349271856450000017300146853828239275_);" d="M1848.213,1989.455
					c3.07,13.819,6.139,27.635,9.209,41.455c51.451,15.732,138.091,34.299,242.29,18.132
					c199.487-30.952,317.458-166.593,349.423-206.029c0.445-90.593-27.849-170.254-73.813-180.047
					c-8.85-1.883-5.745-72.61-109.14,61.374c-72.705,94.215-82.234,118.436-108.783,148.341
					C2111.765,1924.082,2025.865,1980.999,1848.213,1989.455z"/>
				
					<linearGradient id="SVGID_00000147216394555042939900000010120233226869947803_" gradientUnits="userSpaceOnUse" x1="3063.1162" y1="2723.4402" x2="3434.8347" y2="3227.9146">
					<stop  offset="0.494" style="stop-color:#EBEFF2"/>
					<stop  offset="1" style="stop-color:#FFFFFF"/>
				</linearGradient>
				<path style="fill:url(#SVGID_00000147216394555042939900000010120233226869947803_);" d="M2601.952,1628.391
					c-53.688-54.165-163.738-22.685-185.426-16.481c-31.531,9.021-98.988,28.316-125.792,83.982
					c-12.737,26.452-15.022,58.471,32.524,190.863c71.301,198.536,112.883,228.01,98.633,306.599
					c-8.996,49.615-34.423,86.691-14.43,110.811c16.365,19.74,48.573,13.207,87.356,11.536
					c116.279-5.017,117.759,41.146,247.234,47.801c106.803,5.49,113.918-25.506,204.452-7.784
					c60.365,11.815,105.568,35.062,116.952,19.32c11.929-16.5-24.044-60.934-27.682-65.362
					c-47.868-58.283-92.832-44.222-145.381-94.514c-20.471-19.59-10.273-18.494-66.281-110.444
					c-30.519-50.103-55.419-86.339-78.764-120.309c-84.963-123.636-86.252-105.934-102.189-141.749
					C2595.892,1736.44,2650.002,1676.872,2601.952,1628.391z"/>
				<path style="opacity:0.57;fill:#D8DEE8;" d="M3035.774,2309.675c-47.868-58.283-92.832-44.222-145.381-94.514
					c-20.471-19.59-10.273-18.494-66.281-110.444c-30.519-50.103-55.419-86.339-78.764-120.309
					c-84.963-123.636-86.252-105.934-102.189-141.749c-36.702-82.481-12.3-136.824-22.047-179.694
					c-53.957,38.355-87.543,92.795-90.033,146.732c-3.891,84.349,67.252,186.884,145.043,206.025
					c21.917,5.394,43.747,4.013,52.744,19.779c18.794,32.932-53.735,78.787-46.15,128.562
					c12.211,80.134,221.178,99.005,217.566,125.269c-2.601,18.919-112.6,20.667-156.582,19.779
					c-25.846-0.522-50.101-1.014-82.412-6.596c-79.931-13.815-99.812-39.906-138.451-41.204
					c-25.697-0.859-59.813,9.373-101.592,52.658c17.833,7.132,43.74,3.019,73.573,1.734
					c116.279-5.017,117.759,41.146,247.234,47.801c106.803,5.49,113.918-25.506,204.452-7.784
					c60.365,11.815,105.568,35.062,116.952,19.32C3075.386,2358.538,3039.413,2314.104,3035.774,2309.675z"/>
				
					<linearGradient id="SVGID_00000171700507509395140540000006592530886590076858_" gradientUnits="userSpaceOnUse" x1="2507.4731" y1="1827.186" x2="2634.7988" y2="1961.9285">
					<stop  offset="0" style="stop-color:#FFC444"/>
					<stop  offset="0.9964" style="stop-color:#F36F56"/>
				</linearGradient>
				<path style="fill:url(#SVGID_00000171700507509395140540000006592530886590076858_);" d="M2597.379,1880.226
					c0,0-32.737-14.389-47.524-28.364c-14.785-13.979-63-14.235-63-14.235s-0.278,17.273,19.501,26.399
					c19.779,9.127,54.63,16.2,54.63,16.2l30.515,29.567L2597.379,1880.226z"/>
				
					<linearGradient id="SVGID_00000013895129955860160220000012682969297275921808_" gradientUnits="userSpaceOnUse" x1="3273.4006" y1="2568.4922" x2="3645.1208" y2="3072.9688">
					<stop  offset="0.494" style="stop-color:#EBEFF2"/>
					<stop  offset="1" style="stop-color:#FFFFFF"/>
				</linearGradient>
				<path style="fill:url(#SVGID_00000013895129955860160220000012682969297275921808_);" d="M2480.722,1617.106
					c31.108-48.375,182.057,0.648,245.672,27.355c71.835,30.156,167.426,70.288,186.294,160.021
					c9.518,45.26-1.1,100.217-34.245,135.423c-59.513,63.214-192.962,64.165-305.879-26.032
					c4.714-16.456,9.428-32.918,14.142-49.374c123.824,38.973,157.555,36.119,163.413,24.646
					c7.022-13.757-22.11-47.558-54.629-65.439c-36.361-19.991-61.711-11.69-91.477-18.543
					C2521.189,1786.094,2452.599,1660.84,2480.722,1617.106z"/>
				
					<linearGradient id="SVGID_00000083082167297044209200000000191339921449968023_" gradientUnits="userSpaceOnUse" x1="2729.5703" y1="1867.199" x2="2865.1384" y2="1670.4061" gradientTransform="matrix(0.9787 -0.2054 0.2054 0.9787 -614.8153 371.9818)">
					<stop  offset="0" style="stop-color:#FFC444"/>
					<stop  offset="0.9964" style="stop-color:#F36F56"/>
				</linearGradient>
				<path style="fill:url(#SVGID_00000083082167297044209200000000191339921449968023_);" d="M2436.155,1529.539
					c0,0,18.598,54.065,41.76,62.488c23.162,8.413,59.78,18.077,64.375,21.823c4.596,3.739-123.058,45.191-194.634,26.113l0,0
					c20.395-8.923,25.851-11.776,25.851-11.776c5.446-2.852,15.605-8.161,25.135-16.602c6.488-5.742,16.645-16.432,24.289-34.196
					l-6.69-30.694L2436.155,1529.539z"/>
				
					<linearGradient id="SVGID_00000015318874583327650300000017285199193751948929_" gradientUnits="userSpaceOnUse" x1="2717.2825" y1="1767.3813" x2="2931.5676" y2="1638.3727" gradientTransform="matrix(0.9787 -0.2054 0.2054 0.9787 -614.8153 371.9818)">
					<stop  offset="0" style="stop-color:#FFC444"/>
					<stop  offset="0.9964" style="stop-color:#F36F56"/>
				</linearGradient>
				<path style="fill:url(#SVGID_00000015318874583327650300000017285199193751948929_);" d="M2443.4,1548.551
					c0,0-9.514,21.143-32.07,17.897c-20.2-2.905-19.172-53.714-5.449-62.364c4.577-2.884,13.864-3.983,20.755-1.46
					c4.847,1.772,19.274,13.588,16.058,30.897c4.451-2.368,8.885-1.997,10.421,0.132c1.953,2.698-1.211,7.595-1.926,8.704
					C2448.705,1546.202,2445.091,1547.892,2443.4,1548.551z"/>
				<g>
					<path style="fill:#D8DEE8;" d="M1079.124,2726.745c-1.101,0-2.005-0.88-2.028-1.986c0,0-0.045-2.133-0.004-6.132
						c0.009-1.12,0.97-2.002,2.049-2.007c1.12,0.01,2.019,0.928,2.007,2.048c-0.038,3.898,0.004,5.988,0.004,6.007
						c0.022,1.12-0.866,2.047-1.986,2.069C1079.152,2726.745,1079.138,2726.745,1079.124,2726.745z"/>
					<path style="fill:#D8DEE8;" d="M1079.416,2708.479c-0.026,0-0.05,0-0.076,0c-1.118-0.042-1.993-0.982-1.953-2.102
						c0.133-3.625,0.316-7.739,0.576-12.298c0.064-1.118,1.035-2.005,2.138-1.91c1.119,0.062,1.974,1.02,1.91,2.138
						c-0.256,4.531-0.439,8.617-0.569,12.218C1081.402,2707.62,1080.502,2708.479,1079.416,2708.479z M1080.796,2683.989
						c-0.05,0-0.102-0.002-0.154-0.005c-1.117-0.083-1.953-1.056-1.87-2.175c0.289-3.867,0.629-7.954,1.027-12.242
						c0.102-1.117,1.061-1.972,2.206-1.832c1.115,0.102,1.936,1.091,1.832,2.206c-0.394,4.264-0.731,8.327-1.02,12.173
						C1082.737,2683.178,1081.847,2683.989,1080.796,2683.989z M1083.046,2659.596c-0.073,0-0.147-0.003-0.221-0.012
						c-1.115-0.121-1.919-1.122-1.796-2.235c0.429-3.935,0.904-8.002,1.431-12.191c0.138-1.112,1.141-1.893,2.265-1.76
						c1.112,0.14,1.9,1.153,1.76,2.265c-0.524,4.168-0.996,8.215-1.424,12.125
						C1084.948,2658.826,1084.068,2659.596,1083.046,2659.596z M1086.099,2635.308c-0.093,0-0.19-0.007-0.287-0.021
						c-1.11-0.157-1.881-1.184-1.724-2.294c0.562-3.955,1.169-8.004,1.826-12.134c0.175-1.106,1.214-1.872,2.322-1.686
						c1.106,0.177,1.862,1.215,1.686,2.322c-0.653,4.109-1.257,8.134-1.815,12.068
						C1087.963,2634.576,1087.093,2635.308,1086.099,2635.308z M1089.935,2611.139c-0.116,0-0.233-0.01-0.353-0.031
						c-1.103-0.194-1.841-1.246-1.647-2.349c0.695-3.958,1.435-7.983,2.223-12.066c0.213-1.101,1.265-1.82,2.377-1.606
						c1.099,0.213,1.819,1.276,1.606,2.377c-0.785,4.059-1.518,8.059-2.209,11.997
						C1091.759,2610.446,1090.902,2611.139,1089.935,2611.139z M1094.563,2587.115c-0.138,0-0.278-0.016-0.418-0.045
						c-1.096-0.23-1.798-1.305-1.568-2.401c0.828-3.948,1.701-7.945,2.621-11.982c0.249-1.094,1.333-1.782,2.427-1.528
						c1.093,0.249,1.777,1.334,1.528,2.427c-0.913,4.016-1.782,7.988-2.607,11.916
						C1096.345,2586.458,1095.503,2587.115,1094.563,2587.115z M1099.998,2563.266c-0.161,0-0.323-0.019-0.488-0.061
						c-1.087-0.268-1.751-1.366-1.483-2.455c0.966-3.927,1.979-7.89,3.037-11.881c0.287-1.084,1.399-1.73,2.481-1.44
						c1.082,0.287,1.727,1.397,1.44,2.481c-1.051,3.967-2.057,7.905-3.02,11.812
						C1101.739,2562.647,1100.909,2563.266,1099.998,2563.266z M1106.268,2539.626c-0.185,0-0.372-0.026-0.557-0.078
						c-1.077-0.308-1.703-1.429-1.397-2.507c1.11-3.9,2.266-7.822,3.469-11.767c0.325-1.07,1.45-1.68,2.531-1.347
						c1.072,0.327,1.675,1.461,1.348,2.532c-1.196,3.917-2.342,7.815-3.445,11.691
						C1107.964,2539.044,1107.151,2539.626,1106.268,2539.626z M1113.402,2516.241c-0.208,0-0.42-0.033-0.629-0.1
						c-1.065-0.347-1.646-1.494-1.3-2.559c1.26-3.86,2.565-7.736,3.919-11.624c0.368-1.058,1.523-1.618,2.583-1.248
						c1.058,0.368,1.616,1.525,1.248,2.583c-1.343,3.86-2.641,7.712-3.891,11.548
						C1115.051,2515.696,1114.256,2516.241,1113.402,2516.241z M1121.442,2493.149c-0.235,0-0.474-0.042-0.705-0.128
						c-1.051-0.391-1.587-1.558-1.196-2.607c1.416-3.813,2.878-7.632,4.387-11.456c0.411-1.042,1.585-1.552,2.631-1.141
						c1.042,0.411,1.552,1.589,1.141,2.631c-1.499,3.796-2.951,7.591-4.356,11.376
						C1123.04,2492.643,1122.265,2493.149,1121.442,2493.149z M1130.426,2470.415c-0.261,0-0.527-0.052-0.785-0.159
						c-1.032-0.434-1.518-1.623-1.084-2.657c1.578-3.753,3.203-7.504,4.878-11.254c0.453-1.025,1.656-1.487,2.678-1.025
						c1.023,0.456,1.483,1.656,1.025,2.677c-1.661,3.722-3.276,7.449-4.84,11.174
						C1131.972,2469.948,1131.22,2470.415,1130.426,2470.415z M1140.399,2448.099c-0.29,0-0.588-0.064-0.868-0.197
						c-1.013-0.48-1.443-1.691-0.963-2.702c1.748-3.682,3.544-7.355,5.392-11.02c0.506-1.001,1.725-1.402,2.724-0.899
						c1.001,0.505,1.402,1.725,0.899,2.725c-1.834,3.637-3.616,7.283-5.35,10.934
						C1141.886,2447.671,1141.158,2448.099,1140.399,2448.099z M1151.402,2426.277c-0.323,0-0.65-0.078-0.956-0.24
						c-0.987-0.529-1.359-1.758-0.831-2.747c1.924-3.594,3.898-7.177,5.926-10.746c0.551-0.975,1.793-1.315,2.766-0.76
						c0.973,0.553,1.314,1.791,0.761,2.766c-2.01,3.537-3.967,7.089-5.874,10.656
						C1152.827,2425.888,1152.126,2426.277,1151.402,2426.277z M1163.47,2405.029c-0.356,0-0.717-0.095-1.046-0.292
						c-0.959-0.579-1.267-1.825-0.69-2.785c2.107-3.494,4.265-6.97,6.476-10.424c0.603-0.942,1.86-1.221,2.802-0.614
						c0.942,0.603,1.219,1.858,0.614,2.802c-2.19,3.423-4.33,6.868-6.417,10.331
						C1164.829,2404.678,1164.158,2405.029,1163.47,2405.029z M1176.641,2384.451c-0.392,0-0.788-0.112-1.137-0.349
						c-0.927-0.631-1.169-1.891-0.539-2.818c2.294-3.376,4.64-6.728,7.043-10.052c0.655-0.909,1.922-1.113,2.832-0.456
						c0.908,0.655,1.113,1.924,0.456,2.832c-2.379,3.293-4.704,6.614-6.974,9.956
						C1177.929,2384.14,1177.291,2384.451,1176.641,2384.451z M1190.939,2364.647c-0.43,0-0.864-0.137-1.232-0.418
						c-0.889-0.681-1.056-1.955-0.375-2.844c2.482-3.236,5.02-6.448,7.615-9.627c0.707-0.866,1.986-0.998,2.854-0.289
						c0.868,0.707,0.997,1.986,0.289,2.854c-2.567,3.148-5.081,6.325-7.539,9.53
						C1192.151,2364.374,1191.549,2364.647,1190.939,2364.647z M1206.374,2345.72c-0.47,0-0.944-0.163-1.328-0.496
						c-0.845-0.733-0.937-2.014-0.202-2.861c2.672-3.081,5.4-6.13,8.187-9.146c0.761-0.824,2.048-0.871,2.866-0.114
						c0.823,0.76,0.875,2.043,0.114,2.866c-2.759,2.985-5.459,6.004-8.104,9.053
						C1207.507,2345.483,1206.943,2345.72,1206.374,2345.72z M1222.949,2327.786c-0.513,0-1.028-0.194-1.423-0.583
						c-0.799-0.785-0.809-2.069-0.022-2.868c2.861-2.906,5.777-5.776,8.754-8.609c0.811-0.773,2.095-0.74,2.868,0.071
						c0.773,0.813,0.74,2.095-0.071,2.868c-2.946,2.802-5.831,5.641-8.661,8.516
						C1223.998,2327.584,1223.473,2327.786,1222.949,2327.786z M1240.634,2310.954c-0.558,0-1.113-0.228-1.514-0.678
						c-0.745-0.837-0.671-2.119,0.164-2.864c3.042-2.712,6.142-5.383,9.3-8.014c0.859-0.717,2.14-0.6,2.857,0.261
						c0.716,0.861,0.6,2.14-0.261,2.857c-3.124,2.6-6.189,5.243-9.197,7.924C1241.596,2310.785,1241.114,2310.954,1240.634,2310.954
						z M1259.391,2295.329c-0.605,0-1.203-0.268-1.603-0.783c-0.688-0.883-0.529-2.157,0.356-2.845
						c3.214-2.5,6.484-4.958,9.814-7.373c0.906-0.657,2.173-0.455,2.833,0.451c0.657,0.907,0.455,2.175-0.451,2.833
						c-3.291,2.387-6.527,4.818-9.707,7.29C1260.265,2295.19,1259.827,2295.329,1259.391,2295.329z M1279.154,2281.001
						c-0.652,0-1.291-0.313-1.684-0.894c-0.626-0.928-0.38-2.188,0.548-2.816c3.373-2.275,6.802-4.505,10.291-6.69
						c0.954-0.598,2.202-0.306,2.795,0.641c0.595,0.949,0.308,2.201-0.641,2.795c-3.45,2.161-6.842,4.367-10.177,6.617
						C1279.939,2280.889,1279.545,2281.001,1279.154,2281.001z M1299.838,2268.048c-0.7,0-1.38-0.363-1.756-1.011
						c-0.562-0.97-0.232-2.211,0.736-2.773c3.516-2.04,7.089-4.035,10.718-5.979c0.987-0.531,2.213-0.159,2.745,0.83
						c0.529,0.987,0.159,2.216-0.83,2.745c-3.587,1.924-7.119,3.895-10.597,5.914
						C1300.534,2267.958,1300.183,2268.048,1299.838,2268.048z M1321.344,2256.513c-0.749,0-1.466-0.415-1.82-1.131
						c-0.496-1.004-0.085-2.221,0.92-2.718c3.642-1.8,7.337-3.551,11.088-5.254c1.02-0.468,2.221-0.012,2.685,1.008
						c0.463,1.02,0.012,2.221-1.008,2.685c-3.71,1.686-7.366,3.419-10.967,5.198
						C1321.953,2256.445,1321.645,2256.513,1321.344,2256.513z M1343.563,2246.426c-0.795,0-1.549-0.472-1.874-1.252
						c-0.429-1.034,0.061-2.221,1.096-2.652c3.748-1.556,7.549-3.065,11.402-4.522c1.047-0.396,2.22,0.13,2.614,1.179
						c0.398,1.048-0.131,2.218-1.179,2.614c-3.812,1.444-7.572,2.935-11.281,4.477
						C1344.087,2246.375,1343.822,2246.426,1343.563,2246.426z M1366.387,2237.786c-0.842,0-1.63-0.529-1.919-1.371
						c-0.363-1.06,0.2-2.213,1.26-2.577c3.836-1.317,7.724-2.584,11.66-3.803c1.084-0.337,2.206,0.271,2.538,1.338
						c0.33,1.07-0.268,2.206-1.338,2.538c-3.898,1.205-7.745,2.462-11.542,3.765
						C1366.828,2237.75,1366.605,2237.786,1366.387,2237.786z M1389.7,2230.567c-0.889,0-1.705-0.589-1.953-1.488
						c-0.299-1.079,0.334-2.197,1.414-2.496c3.903-1.082,7.86-2.118,11.862-3.101c1.08-0.28,2.185,0.396,2.453,1.485
						c0.268,1.087-0.396,2.187-1.485,2.453c-3.962,0.977-7.881,2.002-11.748,3.074
						C1390.063,2230.542,1389.88,2230.567,1389.7,2230.567z M1413.398,2224.731c-0.935,0-1.775-0.65-1.981-1.601
						c-0.237-1.094,0.46-2.175,1.554-2.411c3.958-0.856,7.966-1.665,12.016-2.427c1.096-0.213,2.161,0.517,2.368,1.618
						c0.207,1.101-0.517,2.161-1.618,2.368c-4.016,0.756-7.985,1.558-11.909,2.406
						C1413.684,2224.715,1413.54,2224.731,1413.398,2224.731z M1437.389,2220.219c-0.979,0-1.841-0.71-2.002-1.708
						c-0.176-1.106,0.576-2.147,1.682-2.323c4-0.643,8.044-1.241,12.132-1.789c1.143-0.136,2.133,0.633,2.28,1.741
						c0.149,1.11-0.631,2.131-1.741,2.28c-4.054,0.545-8.063,1.136-12.028,1.774
						C1437.604,2220.21,1437.495,2220.219,1437.389,2220.219z M1461.591,2216.96c-1.022,0-1.902-0.769-2.014-1.808
						c-0.123-1.113,0.683-2.114,1.796-2.235c4.026-0.439,8.094-0.835,12.206-1.184c1.127-0.112,2.097,0.733,2.192,1.85
						c0.095,1.117-0.733,2.097-1.85,2.192c-4.078,0.346-8.115,0.738-12.109,1.174
						C1461.738,2216.957,1461.663,2216.96,1461.591,2216.96z"/>
					<path style="fill:#D8DEE8;" d="M1485.927,2214.886c-1.063,0-1.957-0.826-2.023-1.903c-0.069-1.117,0.781-2.08,1.9-2.149
						c2.023-0.125,4.056-0.239,6.097-0.342c1.174-0.066,2.073,0.804,2.13,1.922s-0.804,2.073-1.922,2.13
						c-2.028,0.104-4.047,0.214-6.056,0.339C1486.012,2214.886,1485.969,2214.886,1485.927,2214.886z"/>
				</g>
				<g>
					<path style="fill:#D8DEE8;" d="M1495.846,2237.53c-0.807,0-1.571-0.486-1.886-1.282c-0.411-1.042,0.099-2.221,1.139-2.633
						c3.73-1.476,5.765-2.177,5.765-2.177c1.061-0.36,2.214,0.199,2.578,1.259c0.365,1.06-0.199,2.214-1.257,2.579
						c-0.028,0.009-2,0.688-5.592,2.111C1496.348,2237.483,1496.095,2237.53,1495.846,2237.53z"/>
					<path style="fill:#D8DEE8;" d="M1222.28,2701.981c-1.039,0-1.924-0.792-2.019-1.846c-0.363-4.055-0.684-8.08-0.963-12.073
						c-0.076-1.117,0.766-2.087,1.884-2.164c1.113-0.049,2.087,0.767,2.164,1.884c0.275,3.966,0.593,7.962,0.956,11.99
						c0.1,1.115-0.724,2.102-1.839,2.202C1222.401,2701.979,1222.34,2701.981,1222.28,2701.981z M1220.608,2677.899
						c-1.075,0-1.971-0.844-2.024-1.929c-0.199-4.068-0.354-8.104-0.463-12.104c-0.031-1.12,0.852-2.052,1.972-2.083
						c1.103-0.004,2.052,0.85,2.083,1.972c0.109,3.972,0.261,7.978,0.46,12.018c0.055,1.118-0.807,2.069-1.927,2.125
						C1220.676,2677.899,1220.641,2677.899,1220.608,2677.899z M1219.948,2653.772c-1.115,0-2.022-0.901-2.028-2.017l-0.009-3.06
						c0-3.039,0.026-6.057,0.076-9.057c0.019-1.118,0.828-1.998,2.062-1.993c1.12,0.019,2.012,0.942,1.993,2.062
						c-0.05,2.975-0.076,5.973-0.076,8.988l0.009,3.039c0.007,1.12-0.897,2.033-2.017,2.038
						C1219.955,2653.772,1219.952,2653.772,1219.948,2653.772z M1220.361,2629.634c-0.028,0-0.055,0-0.083-0.002
						c-1.118-0.043-1.99-0.987-1.945-2.106c0.161-4.071,0.37-8.104,0.626-12.101c0.073-1.118,1.011-1.965,2.154-1.895
						c1.117,0.071,1.966,1.036,1.895,2.154c-0.252,3.962-0.462,7.964-0.622,12
						C1222.342,2628.778,1221.443,2629.634,1220.361,2629.634z M1221.896,2605.552c-0.059,0-0.119-0.002-0.18-0.007
						c-1.117-0.099-1.941-1.082-1.843-2.199c0.358-4.057,0.762-8.076,1.214-12.054c0.128-1.112,1.131-1.893,2.244-1.787
						c1.113,0.126,1.914,1.13,1.787,2.244c-0.448,3.947-0.849,7.931-1.203,11.954
						C1223.822,2604.758,1222.937,2605.552,1221.896,2605.552z M1224.614,2581.576c-0.093,0-0.187-0.005-0.282-0.019
						c-1.11-0.154-1.884-1.179-1.729-2.289c0.562-4.033,1.172-8.026,1.826-11.978c0.185-1.103,1.224-1.843,2.334-1.67
						c1.105,0.183,1.851,1.228,1.67,2.334c-0.65,3.917-1.253,7.876-1.812,11.874
						C1226.479,2580.844,1225.611,2581.576,1224.614,2581.576z M1228.564,2557.774c-0.128,0-0.256-0.012-0.387-0.038
						c-1.099-0.212-1.819-1.276-1.606-2.377c0.773-3.999,1.592-7.954,2.457-11.866c0.24-1.094,1.324-1.788,2.418-1.544
						c1.094,0.242,1.786,1.324,1.544,2.419c-0.857,3.877-1.67,7.798-2.436,11.762
						C1230.367,2557.1,1229.516,2557.774,1228.564,2557.774z M1233.779,2534.216c-0.162,0-0.328-0.021-0.494-0.062
						c-1.086-0.271-1.748-1.373-1.475-2.46c0.987-3.95,2.024-7.857,3.105-11.715c0.302-1.081,1.43-1.711,2.5-1.407
						c1.079,0.302,1.71,1.421,1.407,2.5c-1.07,3.824-2.097,7.693-3.077,11.608C1235.515,2533.6,1234.688,2534.216,1233.779,2534.216
						z M1240.286,2510.982c-0.199,0-0.401-0.029-0.602-0.092c-1.07-0.332-1.668-1.469-1.336-2.539
						c1.208-3.89,2.464-7.732,3.763-11.525c0.363-1.06,1.516-1.625,2.576-1.262s1.625,1.516,1.262,2.576
						c-1.286,3.758-2.531,7.563-3.725,11.415C1241.953,2510.424,1241.152,2510.982,1240.286,2510.982z M1248.105,2488.153
						c-0.237,0-0.477-0.042-0.712-0.13c-1.049-0.394-1.58-1.563-1.188-2.612c1.43-3.815,2.904-7.577,4.422-11.29
						c0.424-1.037,1.599-1.539,2.645-1.11c1.037,0.424,1.533,1.608,1.11,2.645c-1.5,3.675-2.961,7.402-4.377,11.179
						C1249.699,2487.65,1248.926,2488.153,1248.105,2488.153z M1257.227,2465.817c-0.275,0-0.553-0.057-0.821-0.175
						c-1.023-0.455-1.485-1.653-1.032-2.678c1.653-3.724,3.345-7.394,5.077-11.013c0.48-1.01,1.692-1.44,2.705-0.952
						c1.01,0.482,1.437,1.694,0.953,2.705c-1.715,3.582-3.39,7.217-5.025,10.906
						C1258.747,2465.365,1258.005,2465.817,1257.227,2465.817z M1267.648,2444.051c-0.313,0-0.629-0.073-0.927-0.226
						c-0.996-0.512-1.388-1.736-0.875-2.731c1.864-3.622,3.77-7.188,5.712-10.699c0.543-0.98,1.781-1.331,2.757-0.793
						c0.98,0.543,1.335,1.777,0.793,2.757c-1.924,3.477-3.81,7.008-5.656,10.592
						C1269.093,2443.648,1268.382,2444.051,1267.648,2444.051z M1279.325,2422.928c-0.351,0-0.707-0.092-1.032-0.283
						c-0.963-0.572-1.283-1.815-0.712-2.78c2.076-3.506,4.187-6.953,6.331-10.344c0.598-0.946,1.846-1.231,2.799-0.631
						c0.947,0.598,1.229,1.851,0.631,2.799c-2.123,3.357-4.213,6.773-6.268,10.244
						C1280.694,2422.572,1280.018,2422.928,1279.325,2422.928z M1292.221,2402.523c-0.389,0-0.783-0.111-1.13-0.346
						c-0.93-0.626-1.176-1.886-0.55-2.814c2.275-3.381,4.585-6.7,6.92-9.961c0.655-0.911,1.922-1.118,2.83-0.469
						c0.911,0.654,1.12,1.921,0.468,2.83c-2.315,3.229-4.6,6.517-6.854,9.864C1293.514,2402.21,1292.873,2402.523,1292.221,2402.523
						z M1306.275,2382.9c-0.427,0-0.859-0.135-1.226-0.413c-0.892-0.677-1.065-1.95-0.387-2.842
						c2.467-3.245,4.961-6.429,7.478-9.551c0.698-0.871,1.978-1.011,2.852-0.304c0.871,0.702,1.008,1.979,0.304,2.853
						c-2.493,3.091-4.963,6.244-7.406,9.458C1307.492,2382.625,1306.887,2382.9,1306.275,2382.9z M1321.425,2364.103
						c-0.465,0-0.933-0.159-1.316-0.486c-0.852-0.726-0.953-2.007-0.225-2.859c2.648-3.101,5.316-6.14,8-9.115
						c0.755-0.833,2.038-0.897,2.864-0.147c0.832,0.75,0.897,2.033,0.147,2.864c-2.66,2.948-5.304,5.959-7.928,9.032
						C1322.568,2363.862,1321.999,2364.103,1321.425,2364.103z M1337.604,2346.178c-0.503,0-1.006-0.185-1.399-0.558
						c-0.811-0.773-0.844-2.057-0.071-2.868c2.818-2.958,5.648-5.847,8.488-8.668c0.794-0.792,2.078-0.787,2.868,0.009
						c0.79,0.793,0.787,2.078-0.009,2.868c-2.813,2.797-5.618,5.658-8.408,8.588
						C1338.674,2345.967,1338.14,2346.178,1337.604,2346.178z M1354.727,2329.15c-0.539,0-1.077-0.213-1.476-0.636
						c-0.767-0.816-0.729-2.099,0.085-2.868c2.977-2.806,5.957-5.539,8.937-8.203c0.837-0.743,2.116-0.673,2.865,0.161
						c0.747,0.835,0.674,2.117-0.161,2.864c-2.953,2.64-5.909,5.349-8.858,8.13
						C1355.726,2328.967,1355.226,2329.15,1354.727,2329.15z M1372.734,2313.053c-0.576,0-1.148-0.242-1.549-0.716
						c-0.724-0.854-0.619-2.135,0.235-2.859c3.127-2.652,6.244-5.229,9.349-7.729c0.871-0.702,2.149-0.565,2.852,0.308
						c0.702,0.873,0.565,2.149-0.308,2.853c-3.077,2.479-6.17,5.032-9.269,7.663
						C1373.665,2312.896,1373.198,2313.053,1372.734,2313.053z M1391.546,2297.901c-0.61,0-1.214-0.273-1.613-0.795
						c-0.681-0.89-0.512-2.163,0.379-2.844c3.269-2.5,6.515-4.915,9.731-7.247c0.906-0.657,2.173-0.455,2.833,0.451
						c0.657,0.908,0.455,2.175-0.451,2.833c-3.188,2.311-6.406,4.705-9.648,7.184
						C1392.409,2297.766,1391.975,2297.901,1391.546,2297.901z M1411.099,2283.713c-0.645,0-1.279-0.306-1.673-0.878
						c-0.634-0.923-0.401-2.187,0.522-2.821c3.411-2.344,6.775-4.595,10.083-6.752c0.94-0.61,2.195-0.347,2.807,0.591
						c0.612,0.939,0.348,2.196-0.591,2.807c-3.281,2.14-6.617,4.37-10,6.697C1411.896,2283.598,1411.495,2283.713,1411.099,2283.713
						z M1431.351,2270.518c-0.679,0-1.345-0.342-1.727-0.965c-0.589-0.952-0.294-2.202,0.66-2.79
						c3.552-2.196,7.027-4.275,10.407-6.246c0.968-0.562,2.211-0.237,2.775,0.731c0.564,0.968,0.237,2.209-0.731,2.774
						c-3.352,1.953-6.795,4.016-10.32,6.19C1432.082,2270.42,1431.714,2270.518,1431.351,2270.518z M1452.237,2258.347
						c-0.716,0-1.411-0.38-1.779-1.053c-0.539-0.982-0.182-2.214,0.8-2.754c3.732-2.052,7.314-3.952,10.723-5.706
						c1.001-0.515,2.22-0.123,2.731,0.875c0.513,0.996,0.121,2.218-0.875,2.731c-3.378,1.741-6.929,3.623-10.626,5.655
						C1452.902,2258.265,1452.567,2258.347,1452.237,2258.347z M1473.74,2247.276c-0.755,0-1.481-0.425-1.831-1.151
						c-0.484-1.011-0.059-2.221,0.951-2.707c4.066-1.952,7.765-3.647,11.048-5.1c1.032-0.451,2.223,0.012,2.676,1.034
						c0.453,1.025-0.01,2.223-1.034,2.676c-3.248,1.438-6.91,3.117-10.934,5.048
						C1474.333,2247.21,1474.034,2247.276,1473.74,2247.276z"/>
					<path style="fill:#D8DEE8;" d="M1224.173,2720.093c-1.015,0-1.889-0.757-2.012-1.789c-0.242-2.028-0.474-4.05-0.693-6.063
						c-0.123-1.115,0.681-2.116,1.794-2.237c1.139-0.125,2.116,0.683,2.237,1.794c0.22,2.002,0.451,4.01,0.69,6.028
						c0.133,1.112-0.662,2.121-1.775,2.252C1224.332,2720.089,1224.252,2720.093,1224.173,2720.093z"/>
				</g>
				<g>
					<path style="fill:#D8DEE8;" d="M1496.619,2263.73c-0.614,0-1.22-0.277-1.618-0.804c-0.678-0.892-0.501-2.164,0.392-2.84
						c3.203-2.427,4.998-3.635,4.998-3.635c0.928-0.624,2.189-0.382,2.816,0.548c0.626,0.928,0.38,2.188-0.548,2.816
						c-0.028,0.019-1.753,1.186-4.818,3.504C1497.475,2263.597,1497.046,2263.73,1496.619,2263.73z"/>
					<path style="fill:#D8DEE8;" d="M1371.832,2719.781c-0.875,0-1.68-0.569-1.943-1.448c-1.16-3.877-2.272-7.731-3.333-11.558
						c-0.299-1.08,0.334-2.199,1.412-2.498c1.077-0.299,2.199,0.333,2.498,1.412c1.054,3.803,2.156,7.629,3.309,11.482
						c0.322,1.074-0.289,2.202-1.362,2.524C1372.219,2719.754,1372.024,2719.781,1371.832,2719.781z M1365.424,2696.676
						c-0.904,0-1.729-0.61-1.964-1.526c-1.004-3.921-1.955-7.817-2.858-11.688c-0.254-1.091,0.424-2.182,1.516-2.436
						c1.084-0.259,2.18,0.424,2.436,1.516c0.896,3.839,1.839,7.708,2.837,11.601c0.277,1.086-0.377,2.19-1.463,2.469
						C1365.761,2696.655,1365.592,2696.676,1365.424,2696.676z M1359.982,2673.327c-0.939,0-1.782-0.657-1.983-1.611
						c-0.835-3.964-1.616-7.898-2.346-11.803c-0.206-1.101,0.519-2.161,1.62-2.367c1.113-0.208,2.163,0.52,2.366,1.62
						c0.726,3.877,1.501,7.781,2.329,11.713c0.232,1.096-0.47,2.173-1.566,2.403
						C1360.26,2673.311,1360.12,2673.327,1359.982,2673.327z M1355.579,2649.76c-0.977,0-1.838-0.707-2-1.701
						c-0.653-3.999-1.253-7.966-1.8-11.904c-0.154-1.108,0.621-2.133,1.73-2.287c1.127-0.163,2.133,0.621,2.287,1.73
						c0.543,3.904,1.136,7.84,1.786,11.804c0.182,1.106-0.569,2.149-1.673,2.33
						C1355.797,2649.749,1355.688,2649.76,1355.579,2649.76z M1352.281,2626.012c-1.018,0-1.895-0.762-2.014-1.796
						c-0.462-4.026-0.866-8.019-1.219-11.978c-0.099-1.115,0.724-2.1,1.841-2.201c1.082-0.088,2.099,0.726,2.201,1.841
						c0.349,3.924,0.75,7.883,1.208,11.874c0.128,1.113-0.671,2.119-1.784,2.247
						C1352.435,2626.009,1352.357,2626.012,1352.281,2626.012z M1350.156,2602.131c-1.061,0-1.955-0.825-2.023-1.9
						c-0.258-4.043-0.456-8.054-0.603-12.026c-0.04-1.12,0.833-2.061,1.953-2.102c1.067-0.03,2.059,0.831,2.102,1.953
						c0.143,3.938,0.342,7.91,0.596,11.919c0.071,1.117-0.778,2.082-1.896,2.152
						C1350.243,2602.131,1350.199,2602.131,1350.156,2602.131z M1349.276,2578.173c-1.112,0-2.017-0.894-2.028-2.007
						c-0.016-1.49-0.023-2.973-0.023-4.451c-0.002-2.546,0.021-5.077,0.064-7.592c0.021-1.119,0.866-1.931,2.062-1.993
						c1.12,0.019,2.012,0.942,1.993,2.062c-0.043,2.491-0.066,4.998-0.064,7.521c0,1.466,0.007,2.935,0.022,4.412
						c0.012,1.12-0.887,2.038-2.007,2.048C1349.29,2578.173,1349.283,2578.173,1349.276,2578.173z M1349.695,2554.205
						c-0.031,0-0.062,0-0.093-0.002c-1.12-0.05-1.986-0.999-1.934-2.118c0.183-4.05,0.424-8.058,0.717-12.021
						c0.083-1.115,1.027-1.953,2.173-1.872c1.117,0.083,1.955,1.054,1.872,2.173c-0.29,3.926-0.527,7.895-0.711,11.904
						C1351.671,2553.356,1350.772,2554.205,1349.695,2554.205z M1351.463,2530.302c-0.069,0-0.138-0.003-0.209-0.01
						c-1.115-0.114-1.926-1.112-1.81-2.225c0.415-4.033,0.885-8.02,1.409-11.961c0.145-1.112,1.186-1.886,2.277-1.744
						c1.112,0.147,1.891,1.167,1.744,2.277c-0.517,3.903-0.984,7.852-1.395,11.843
						C1353.371,2529.526,1352.49,2530.302,1351.463,2530.302z M1354.62,2506.546c-0.107,0-0.218-0.009-0.328-0.028
						c-1.105-0.18-1.855-1.222-1.675-2.329c0.652-4,1.359-7.954,2.116-11.857c0.214-1.099,1.265-1.824,2.379-1.606
						c1.099,0.214,1.817,1.278,1.604,2.377c-0.75,3.865-1.45,7.777-2.095,11.74
						C1356.457,2505.838,1355.596,2506.546,1354.62,2506.546z M1359.185,2483.021c-0.149,0-0.297-0.017-0.448-0.05
						c-1.094-0.247-1.779-1.333-1.533-2.425c0.894-3.957,1.839-7.86,2.833-11.71c0.28-1.084,1.386-1.741,2.47-1.457
						c1.086,0.28,1.737,1.386,1.457,2.47c-0.984,3.812-1.919,7.674-2.802,11.589
						C1360.95,2482.379,1360.112,2483.021,1359.185,2483.021z M1365.177,2459.81c-0.188,0-0.38-0.028-0.569-0.081
						c-1.075-0.314-1.694-1.44-1.381-2.515c1.136-3.895,2.318-7.732,3.547-11.515c0.346-1.063,1.485-1.647,2.557-1.302
						c1.065,0.346,1.647,1.49,1.302,2.557c-1.215,3.741-2.387,7.541-3.509,11.394
						C1366.864,2459.234,1366.055,2459.81,1365.177,2459.81z M1372.581,2437.015c-0.228,0-0.46-0.04-0.686-0.121
						c-1.055-0.379-1.601-1.54-1.222-2.595c1.374-3.82,2.792-7.58,4.249-11.276c0.413-1.044,1.587-1.549,2.633-1.143
						c1.041,0.411,1.552,1.59,1.141,2.633c-1.442,3.658-2.845,7.376-4.206,11.159
						C1374.192,2436.5,1373.412,2437.015,1372.581,2437.015z M1381.38,2414.715c-0.268,0-0.539-0.053-0.8-0.166
						c-1.029-0.444-1.504-1.637-1.061-2.666c1.608-3.73,3.255-7.396,4.937-10.993c0.474-1.011,1.68-1.45,2.697-0.978
						c1.015,0.475,1.452,1.682,0.978,2.697c-1.665,3.559-3.295,7.186-4.885,10.879
						C1382.913,2414.255,1382.166,2414.715,1381.38,2414.715z M1391.539,2392.998c-0.308,0-0.621-0.071-0.914-0.219
						c-0.999-0.507-1.4-1.727-0.894-2.726c1.836-3.629,3.706-7.186,5.601-10.668c0.538-0.986,1.768-1.348,2.752-0.813
						s1.347,1.768,0.813,2.752c-1.877,3.447-3.727,6.967-5.546,10.561C1392.993,2392.59,1392.279,2392.998,1391.539,2392.998z
						 M1403.007,2371.946c-0.348,0-0.7-0.09-1.022-0.278c-0.968-0.565-1.293-1.808-0.728-2.774c2.057-3.521,4.14-6.958,6.242-10.312
						c0.595-0.947,1.848-1.238,2.795-0.641c0.949,0.595,1.236,1.846,0.641,2.795c-2.078,3.319-4.14,6.721-6.177,10.204
						C1404.383,2371.584,1403.704,2371.946,1403.007,2371.946z M1415.734,2351.616c-0.387,0-0.78-0.111-1.125-0.342
						c-0.932-0.622-1.182-1.883-0.558-2.813c2.273-3.4,4.56-6.706,6.851-9.916c0.652-0.913,1.924-1.125,2.828-0.474
						c0.913,0.65,1.125,1.917,0.474,2.828c-2.266,3.179-4.529,6.45-6.782,9.815
						C1417.03,2351.302,1416.387,2351.616,1415.734,2351.616z M1429.658,2332.094c-0.427,0-0.859-0.135-1.226-0.413
						c-0.892-0.677-1.065-1.95-0.387-2.842c2.489-3.276,4.97-6.439,7.435-9.489c0.705-0.871,1.981-1.006,2.852-0.304
						c0.873,0.705,1.008,1.981,0.304,2.852c-2.441,3.022-4.897,6.154-7.363,9.395
						C1430.875,2331.819,1430.27,2332.094,1429.658,2332.094z M1444.74,2313.437c-0.467,0-0.937-0.161-1.319-0.489
						c-0.851-0.729-0.947-2.01-0.218-2.859c2.704-3.149,5.374-6.159,7.995-9.027c0.755-0.83,2.036-0.887,2.864-0.13
						c0.828,0.755,0.885,2.038,0.13,2.865c-2.593,2.84-5.236,5.819-7.912,8.934
						C1445.879,2313.198,1445.312,2313.437,1444.74,2313.437z M1460.923,2295.721c-0.51,0-1.02-0.19-1.414-0.574
						c-0.804-0.781-0.821-2.064-0.04-2.868c2.947-3.03,5.805-5.869,8.545-8.514c0.805-0.778,2.088-0.754,2.868,0.05
						c0.778,0.806,0.755,2.09-0.05,2.868c-2.712,2.617-5.539,5.425-8.455,8.424
						C1461.98,2295.517,1461.453,2295.721,1460.923,2295.721z M1478.197,2279.067c-0.553,0-1.106-0.225-1.507-0.671
						c-0.749-0.832-0.683-2.114,0.15-2.865c3.324-2.996,6.384-5.634,9.121-7.921c0.861-0.716,2.14-0.601,2.856,0.258
						c0.719,0.859,0.605,2.138-0.256,2.857c-2.702,2.256-5.724,4.863-9.007,7.821
						C1479.166,2278.896,1478.681,2279.067,1478.197,2279.067z"/>
					<path style="fill:#D8DEE8;" d="M1377.276,2737.07c-0.852,0-1.644-0.541-1.926-1.394c-0.641-1.939-1.271-3.874-1.889-5.805
						c-0.341-1.066,0.247-2.208,1.316-2.55c1.056-0.346,2.206,0.247,2.55,1.316c0.612,1.917,1.238,3.838,1.876,5.767
						c0.351,1.063-0.225,2.211-1.29,2.562C1377.701,2737.036,1377.487,2737.07,1377.276,2737.07z"/>
				</g>
			</g>
		</g>
	</g>
</g>
</svg>
