<?xml version="1.0" encoding="utf-8"?>
<!-- Generator: Adobe Illustrator 27.5.0, SVG Export Plug-In . SVG Version: 6.00 Build 0)  -->
<svg version="1.1" xmlns="http://www.w3.org/2000/svg" xmlns:xlink="http://www.w3.org/1999/xlink" x="0px" y="0px"
	 viewBox="0 0 3710 3710" style="enable-background:new 0 0 3710 3710;" xml:space="preserve">
<g id="Background">
	<g>
		<g>
			<rect style="fill:#FFFFFF;" width="3710" height="3710"/>
		</g>
	</g>
</g>
<g id="Illustration">
	<g>
		<path style="fill:#F4F7FA;" d="M1116.951,529.321c-95.516,139.337,16.479,365.237-125.25,470.03
			c-137.963,102.008-307.445-65.196-437.466,22.612c-192.879,130.258-157.655,726.296,124.343,1096.626
			c84.806,111.371,155.667,154.704,187.052,280.659c67.39,270.458-169.454,431.343-124.382,565.108
			c101.484,301.188,1662.231,553.919,2288.473-351.249c292.48-422.752,336.241-1033.208,74.919-1496.854
			C2632.434,278.454,1331.272,216.673,1116.951,529.321z"/>
		<g>
			<g>
				
					<linearGradient id="SVGID_1_" gradientUnits="userSpaceOnUse" x1="-4779.0151" y1="-4185.8613" x2="-4231.1626" y2="-683.5109" gradientTransform="matrix(-0.5317 -0.847 -0.847 0.5317 -2678.0039 105.4171)">
					<stop  offset="0" style="stop-color:#FFC444"/>
					<stop  offset="0.9964" style="stop-color:#F36F56"/>
				</linearGradient>
				<path style="fill:url(#SVGID_1_);" d="M1866.048,2852.866c-17.567-9.672-47.258-46.199-51.071-58.912
					c-25.381-84.603-83.192-239.917-43.964-324.652c6.7-14.472,78.318-2.184,92.945-12.133
					c47.563-3.249,64.264-1.426,107.964-26.727c129.014-74.697,12.458-356.08,269.619-337.728
					c188.367,13.443,307.294,126.932,391.654-140.519c84.36-267.452,477.415-660.681,680.903-370.94
					c116.783,166.284-130.463,324.69-113.51,519.926c16.109,185.525-99.925,287.407-301.412,315.699
					c-201.487,28.292-141.58,134.525-151.671,300.842c-12.121,199.782-296.972,123.992-425.495,77.783
					C2218.513,2758.294,1929.87,2733.367,1866.048,2852.866z"/>
				<g>
					<defs>
						<path id="SVGID_00000116935136855815464210000004872699029035202997_" d="M1737.911,2430.401
							c-8.363,137.594-22.541,277.26-31.711,415.777c70.634,34.61,154.563,73.601,205.988-9.752
							c71.497-115.886,306.916-78.796,410.128-41.065c127.745,46.698,413.248,121.976,425.212-77.668
							c9.96-166.202-49.804-272.559,151.661-300.82c201.466-28.26,317.471-130.171,301.4-315.704
							c-16.912-195.244,230.246-353.555,113.509-519.92c-203.411-289.88-596.72,103.736-680.823,370.856
							c-84.103,267.121-204.156,154.982-391.518,140.363c-255.789-19.958-144.285,267.285-268.238,335.869
							C1876.346,2482.103,1830.172,2447.143,1737.911,2430.401z"/>
					</defs>
					<clipPath id="SVGID_00000121278535240241844110000008589187723629735850_">
						<use xlink:href="#SVGID_00000116935136855815464210000004872699029035202997_"  style="overflow:visible;"/>
					</clipPath>
					<g style="clip-path:url(#SVGID_00000121278535240241844110000008589187723629735850_);">
						<path style="fill:#FCFDFE;" d="M1792.369,2640.012l-0.335-4.25c654.795-51.663,1207.984-486.218,1479.776-1162.435l3.96,1.589
							c-128.812,320.478-328.765,596.991-578.244,799.645C2435.248,2487.616,2122.25,2613.985,1792.369,2640.012z"/>
						<path style="fill:#FCFDFE;" d="M2751.991,2801.337c-138.356-114.6-403.5-220.524-591.049-236.12l0.355-4.25
							c188.286,15.659,454.488,122.015,593.413,237.084L2751.991,2801.337z"/>
						<path style="fill:#FCFDFE;" d="M1920.791,2628.399l-1.499-3.993c91.568-34.419,162.219-113.81,209.987-235.963
							c35.026-89.568,57.163-199.616,65.795-327.094l4.255,0.29c-8.662,127.909-30.893,238.385-66.077,328.356
							C2085.025,2513.323,2013.544,2593.534,1920.791,2628.399z"/>
						<path style="fill:#FCFDFE;" d="M2731.819,2244.422l-1.704-3.91c169.265-73.756,359.788-36.358,489.814,8l-1.379,4.038
							C3089.24,2208.433,2899.83,2171.211,2731.819,2244.422z"/>
						<path style="fill:#FCFDFE;" d="M3020.514,1935.721l-3.845-1.845c89.929-187.558,45.755-401.378,11.421-512.139l4.074-1.264
							C3066.683,1531.833,3111.073,1746.849,3020.514,1935.721z"/>
					</g>
				</g>
			</g>
		</g>
		<g>
			<g>
				<defs>
					<path id="SVGID_00000013875001427425350380000008768090901515399608_" d="M2467.179,2810.137
						c-99.433-13.374-198.795-29.031-298.004-46.964c-1.592,1.476-36.782-213.868,64.305-328.273
						c199.951-221.683,61.03-416.722,20.659-532.807c-64.338-163.603-34.859-363.776,146.641-328.584
						c176.771,30.055,199.055-333.38,165.17-612.735c-27.658-135.827,98.767-302.599,226.493-341.929
						c130.349-43.437,261.999,40.568,305.362,311.452c64.456,313.467-162.521,505.773-245.494,664.353
						c-81.646,155.676,114.254,278.408-40.498,417.357c-130.087,123.372-294.852,212.937-232.302,365.126
						C2643.701,2527.571,2630.301,2651.374,2467.179,2810.137z"/>
				</defs>
				<clipPath id="SVGID_00000083782727896724638410000014963554671369785498_">
					<use xlink:href="#SVGID_00000013875001427425350380000008768090901515399608_"  style="overflow:visible;"/>
				</clipPath>
				
					<linearGradient id="SVGID_00000054960926969116873910000007085333951568752790_" gradientUnits="userSpaceOnUse" x1="-214.6993" y1="-1049.4485" x2="-927.3804" y2="976.0679" gradientTransform="matrix(-0.8735 -0.4869 -0.4869 0.8735 2094.822 1475.1353)">
					<stop  offset="0" style="stop-color:#AA80F9"/>
					<stop  offset="0.9964" style="stop-color:#6165D7"/>
				</linearGradient>
				
					<path style="clip-path:url(#SVGID_00000083782727896724638410000014963554671369785498_);fill:url(#SVGID_00000054960926969116873910000007085333951568752790_);" d="
					M2467.179,2810.137c-99.433-13.374-198.795-29.031-298.004-46.964c-1.592,1.476-36.782-213.868,64.305-328.273
					c199.951-221.683,61.03-416.722,20.659-532.807c-63.712-163.489-33.455-341.748,133.684-346.436
					c185.331-8.829,215.169-316.131,178.127-594.883c-27.658-135.827,98.767-302.599,226.493-341.929
					c130.349-43.437,261.999,40.568,305.362,311.452c64.456,313.467-162.521,505.773-245.494,664.353
					c-81.646,155.676,114.254,278.408-40.498,417.357c-130.087,123.372-294.852,212.937-232.302,365.126
					C2643.701,2527.571,2630.301,2651.374,2467.179,2810.137z"/>
				<g style="clip-path:url(#SVGID_00000083782727896724638410000014963554671369785498_);">
					<path style="fill:#BEB8F2;" d="M2329.603,2824.597c-0.052-1.916,89.179-457.081,247.374-901.074
						c21.692-71.771,45.346-144.219,68.217-214.282c127.382-390.176,247.698-758.715,108.125-1165.161l5.652-1.942
						c140.221,408.343,19.604,777.804-108.096,1168.96c-22.863,70.031-46.505,142.448-68.224,214.294
						c-159.047,446.396-246.817,896.479-247.078,899.276L2329.603,2824.597z"/>
					<path style="fill:#BEB8F2;" d="M2761.076,1347.695l-4.489-3.945c109.105-124.268,240.446-300.605,311.006-395.337
						c57.108-76.67,57.362-76.647,60.413-76.197l-0.423,2.956l1.424,2.565c-3.128,2.426-26.736,34.119-56.623,74.244
						C3001.773,1046.782,2870.342,1223.242,2761.076,1347.695z"/>
					<path style="fill:#BEB8F2;" d="M2790.755,1178.191c-24.503-139.916-83.253-231.541-128.223-283.768
						c-48.986-56.89-94.819-82.764-100.437-83.7l0.382-2.287l-2.132-3.097c1.476-1.017,3.182-0.609,5.817,0.496
						c37.723,15.843,187.392,125.291,230.479,371.322L2790.755,1178.191z"/>
					<path style="fill:#BEB8F2;" d="M2489.115,2214.067l-5.944-0.633c29.934-280.865-163.757-540.188-248.424-638.647
						c-4.549-5.288-6.013-7.006-6.551-7.907l5.134-3.058l-2.566,1.529l2.555-1.546c0.403,0.628,2.98,3.62,5.958,7.087
						c61.06,71.006,112.646,145.803,153.325,222.309C2470.742,1940.173,2503.214,2081.771,2489.115,2214.067z"/>
					<path style="fill:#BEB8F2;" d="M2532.007,2075.9l-5.12-3.083c116.458-193.434,366.49-210.39,370.564-209.989
						c0.016,0.001,0.03,0.003,0.038,0.006l2.258,2.768l-2.007,2.958l-0.98-2.794l-0.17,2.943
						C2894.211,1868.676,2647.302,1884.397,2532.007,2075.9z M2895.764,1862.922l0.986,2.813L2895.764,1862.922z"/>
					<path style="fill:#BEB8F2;" d="M2345.255,2750.219c1.393-56.934-20.175-153.726-130.811-291.523
						c-6.279-7.819-6.279-7.819-6.075-9.364l5.924,0.782l-2.962-0.391l2.679-1.267c0.36,0.603,2.554,3.335,5.092,6.499
						c111.768,139.206,133.544,237.479,132.129,295.407L2345.255,2750.219z"/>
					<path style="fill:#BEB8F2;" d="M2375.073,2642.781l-5.758-1.594c28.172-101.885,168.924-177.884,250.316-214.116
						c2.581-1.149,4.243-1.884,4.836-2.198l2.795,5.281c-0.636,0.337-2.423,1.137-5.202,2.375
						C2541.632,2468.335,2402.594,2543.261,2375.073,2642.781z"/>
				</g>
			</g>
		</g>
		<g>
			
				<linearGradient id="SVGID_00000122714979416751596450000014356077752304608164_" gradientUnits="userSpaceOnUse" x1="-279.4039" y1="-2148.4456" x2="2803.572" y2="4353.832">
				<stop  offset="0" style="stop-color:#311944"/>
				<stop  offset="1" style="stop-color:#A03976"/>
			</linearGradient>
			<path style="fill:url(#SVGID_00000122714979416751596450000014356077752304608164_);" d="M2494.646,2918.202
				c0,28.474-21.625,52.68-48.36,54.069l-1699.236,88.267c-31.198,1.621-56.55-22.082-56.55-52.945V486.566
				c0-30.863,25.352-54.335,56.55-52.432l22.763-1.216l1676.474,104.886c26.735,1.632,48.36,26.034,48.36,54.508V2918.202z"/>
			
				<linearGradient id="SVGID_00000046332001770731683500000012793172468495240590_" gradientUnits="userSpaceOnUse" x1="982.9822" y1="442.268" x2="4065.9587" y2="6944.5474">
				<stop  offset="0.0036" style="stop-color:#E38DDD"/>
				<stop  offset="1" style="stop-color:#9571F6"/>
			</linearGradient>
			<path style="fill:url(#SVGID_00000046332001770731683500000012793172468495240590_);" d="M2528.123,2917.034
				c0,28.474-21.624,52.681-48.36,54.07l-1699.236,88.266c-31.198,1.621-56.55-22.082-56.55-52.945V485.398
				c0-30.863,25.352-54.336,56.55-52.432l1699.236,103.671c26.736,1.631,48.36,26.033,48.36,54.507V2917.034z"/>
			
				<linearGradient id="SVGID_00000182523527122157028180000015066618333686188200_" gradientUnits="userSpaceOnUse" x1="1297.3148" y1="238.6002" x2="1765.3082" y2="1225.6409">
				<stop  offset="0.0036" style="stop-color:#E38DDD"/>
				<stop  offset="1" style="stop-color:#9571F6"/>
			</linearGradient>
			<path style="opacity:0.3;fill:url(#SVGID_00000182523527122157028180000015066618333686188200_);" d="M1221.359,669.98
				c-42.236,54.303-48.269,156.874,24.135,199.109c156.873,96.538,362.016,66.37,512.857-36.201
				c111.017-77.713,63.738-221.79,31.969-338.315l-334.195-20.389C1427.369,554.56,1274.327,599.358,1221.359,669.98z"/>
			<path style="fill:#FFFFFF;" d="M2448.198,2816.129c0,25.21-19.214,46.546-42.963,47.658l-1538.583,72.01
				c-27.311,1.279-49.498-19.664-49.498-46.778V731.058c0-27.115,22.187-47.978,49.498-46.601l1538.583,77.514
				c23.749,1.196,42.963,22.601,42.963,47.811V2816.129z"/>
			<path style="fill:#6165D7;" d="M2026.384,693.341c-2.292-13.227-12.612-22.58-25.709-23.284l-80.97-4.349
				c-36.593-1.966-63.056-32.476-61.321-70.829l4.018-88.837c0.742-16.423-10.603-29.593-26.356-30.573l-26.14-1.624
				c-19.886-1.236-33.493-19.041-30.355-39.771c5.549-36.672-18.559-68.314-53.949-70.682
				c-35.504-2.375-68.895,25.596-74.477,62.481c-1.515,10.014-6.815,19.375-14.739,26.026c-7.929,6.655-17.837,10.053-27.549,9.45
				l-26.682-1.658c-16.141-1.003-31.612,10.678-35.893,27.12l-23.179,89.028c-10.02,38.483-46.344,66.075-84.431,64.028
				l-85.192-4.576c-13.901-0.747-27.648,7.594-34.216,20.773l-61.143,122.689l5.255,6.714l784.269,30.506L2026.384,693.341z
				 M1714.039,439.794c-10.4-0.66-17.515-9.941-15.883-20.732c1.633-10.79,11.393-18.987,21.791-18.309
				c10.388,0.678,17.481,9.958,15.851,20.73C1734.168,432.255,1724.431,440.452,1714.039,439.794z"/>
			
				<linearGradient id="SVGID_00000010282701793886786800000009591235806401785229_" gradientUnits="userSpaceOnUse" x1="1455.203" y1="370.3726" x2="1803.9845" y2="1043.0219">
				<stop  offset="0" style="stop-color:#AA80F9"/>
				<stop  offset="0.9964" style="stop-color:#6165D7"/>
			</linearGradient>
			<path style="fill:url(#SVGID_00000010282701793886786800000009591235806401785229_);" d="M2031.639,700.056
				c-2.292-13.227-12.612-22.58-25.709-23.284l-80.969-4.349c-36.593-1.966-63.057-32.475-61.322-70.829l4.018-88.837
				c0.743-16.423-10.603-29.593-26.356-30.573l-26.139-1.625c-19.886-1.235-33.493-19.04-30.355-39.77
				c5.55-36.672-18.559-68.314-53.95-70.682c-35.504-2.375-68.895,25.596-74.476,62.481c-1.516,10.015-6.815,19.375-14.738,26.027
				c-7.929,6.655-17.836,10.053-27.549,9.45l-26.682-1.658c-16.141-1.004-31.612,10.678-35.894,27.119l-23.179,89.028
				c-10.02,38.484-46.344,66.074-84.429,64.029l-85.193-4.576c-13.901-0.746-27.648,7.595-34.216,20.774l-61.142,122.688
				l789.524,37.222L2031.639,700.056z M1719.295,446.508c-10.401-0.659-17.516-9.941-15.884-20.731
				c1.633-10.791,11.393-18.987,21.792-18.309c10.388,0.677,17.481,9.958,15.851,20.73
				C1739.423,438.969,1729.686,447.168,1719.295,446.508z"/>
			<polygon style="fill:#D8DEE8;" points="2009.916,1015.057 1281.591,987.392 1281.591,859.728 2009.916,891.479 			"/>
			<g>
				<path style="fill:#D8DEE8;" d="M2337.726,1253.593c0,4.802-3.677,8.595-8.213,8.472l-608.876-16.539
					c-4.797-0.13-8.688-4.241-8.688-9.182v-107.356c0-4.942,3.891-8.819,8.688-8.662l608.876,19.954
					c4.536,0.149,8.213,4.163,8.213,8.965V1253.593z"/>
				<path style="fill:#D8DEE8;" d="M2337.726,1373.88c0,4.802-3.677,8.616-8.213,8.519l-608.876-13.163
					c-4.797-0.103-8.688-4.192-8.688-9.134v-29.822c0-4.94,3.891-8.854,8.688-8.739l608.876,14.464
					c4.536,0.108,8.213,4.089,8.213,8.89V1373.88z"/>
				<path style="fill:#D8DEE8;" d="M2337.726,1484.025c0,4.802-3.677,8.634-8.213,8.559l-608.876-10.071
					c-4.797-0.08-8.688-4.15-8.688-9.09v-29.821c0-4.941,3.891-8.874,8.688-8.784l608.876,11.373
					c4.536,0.084,8.213,4.046,8.213,8.849V1484.025z"/>
				<path style="fill:#D8DEE8;" d="M2337.726,1594.168c0,4.802-3.677,8.653-8.213,8.601l-608.876-6.98
					c-4.797-0.055-8.688-4.105-8.688-9.045v-29.822c0-4.941,3.891-8.893,8.688-8.828l608.876,8.281
					c4.536,0.062,8.213,4.005,8.213,8.807V1594.168z"/>
				<path style="fill:#D8DEE8;" d="M2337.726,1704.312c0,4.803-3.677,8.672-8.213,8.643l-608.876-3.889
					c-4.797-0.031-8.688-4.061-8.688-9.002v-29.821c0-4.941,3.891-8.913,8.688-8.873l608.876,5.19
					c4.536,0.039,8.213,3.964,8.213,8.766V1704.312z"/>
			</g>
			<g>
				<path style="fill:#F4F7FA;" d="M1504.729,1712.201l-497.655-3.078c-18.529-0.114-33.573-15.208-33.573-33.711v-549.92
					c0-18.503,15.043-33.009,33.573-32.398l497.655,16.393c17.709,0.583,32.045,15.689,32.045,33.74v536.486
					C1536.774,1697.766,1522.438,1712.311,1504.729,1712.201z"/>
				<path style="fill:#D8DEE8;" d="M1005.948,1107.919l0.638,0.011l497.654,16.393c9.755,0.321,17.692,8.803,17.692,18.906v536.486
					c0,9.73-7.628,17.645-17.111,17.645l-497.653-3.079c-10.379-0.064-18.822-8.528-18.822-18.868v-549.92
					C988.344,1115.639,996.077,1107.92,1005.948,1107.919z M1005.948,1093.076c-18.008,0.001-32.447,14.291-32.447,32.417v549.92
					c0,18.503,15.043,33.597,33.573,33.711l497.655,3.08c0.066,0,0.132,0,0.198,0c17.617,0,31.847-14.505,31.847-32.488v-536.486
					c0-18.052-14.336-33.157-32.045-33.74l-497.655-16.393C1006.697,1093.082,1006.322,1093.076,1005.948,1093.076z"/>
			</g>
			<g>
				<g>
					<path style="fill:#F4F7FA;" d="M2322.809,2687.846c0,15.068-11.547,27.742-25.808,28.309l-562.86,22.39
						c-15.029,0.598-27.227-11.478-27.227-26.974v-426.956c0-15.496,12.198-28.278,27.227-28.55l562.86-10.211
						c14.261-0.259,25.808,11.747,25.808,26.814V2687.846z"/>
					<polygon style="fill:#FFFFFF;" points="2322.836,2558.115 1706.698,2578.168 1706.698,2590.542 2322.836,2570.147 					"/>
					<polygon style="fill:#FFFFFF;" points="2002.236,2251.152 2002.236,2577.258 2013.936,2576.873 2013.936,2250.94 					"/>
				</g>
				<g>
					<polygon style="fill:#D8DEE8;" points="1949.668,2448.446 1775.161,2453.162 1775.161,2296.585 1949.668,2293.096 					"/>
					<polygon style="fill:#D8DEE8;" points="1949.668,2533.3 1775.161,2538.687 1775.161,2483.425 1949.668,2478.471 					"/>
				</g>
				<g>
					<path style="fill:#D8DEE8;" d="M1861.493,2647.195l-85.821,3.08c-1.017,0.036-1.842-0.785-1.842-1.836v-20.886
						c0-1.05,0.826-1.93,1.842-1.966l85.821-2.985c1.009-0.035,1.828,0.785,1.828,1.831v20.802
						C1863.321,2646.281,1862.502,2647.159,1861.493,2647.195z"/>
					<path style="fill:#D8DEE8;" d="M2117.765,2684.22l-342.093,12.998c-1.017,0.039-1.842-0.781-1.842-1.832V2674.5
						c0-1.05,0.826-1.932,1.842-1.969l342.093-12.619c0.986-0.036,1.786,0.773,1.786,1.806v20.562
						C2119.551,2683.314,2118.751,2684.182,2117.765,2684.22z"/>
				</g>
				<g>
					<polygon style="fill:#FFFFFF;" points="2112.345,2524.39 2063.25,2525.897 2063.25,2290.825 2112.345,2289.844 					"/>
					<polygon style="fill:#FFFFFF;" points="2194.12,2521.88 2145.392,2523.376 2145.392,2289.184 2194.12,2288.208 					"/>
					<polygon style="fill:#FFFFFF;" points="2275.287,2519.389 2226.92,2520.874 2226.92,2287.553 2275.287,2286.586 					"/>
					<g>
						<defs>
							<path id="SVGID_00000177443614892204372500000011691058206728965798_" d="M2043.887,2426.07c0,36.074,0,72.147,0,108.221
								c82.623-2.565,164.625-5.111,246.017-7.639c0-46.138,0-92.277,0-138.414c-65.3-32.273-102.01-27.509-123.552-16.836
								c-24.211,11.994-38.222,35.894-78.527,48.237C2069.768,2425.17,2053.945,2426.084,2043.887,2426.07z"/>
						</defs>
						<clipPath id="SVGID_00000019664878452395479580000012209437091328217987_">
							<use xlink:href="#SVGID_00000177443614892204372500000011691058206728965798_"  style="overflow:visible;"/>
						</clipPath>
						<g style="clip-path:url(#SVGID_00000019664878452395479580000012209437091328217987_);">
							<polygon style="fill:#D8DEE8;" points="2112.345,2524.39 2063.25,2525.897 2063.25,2403.815 2112.345,2402.582 							"/>
							<polygon style="fill:#D8DEE8;" points="2194.12,2521.88 2145.392,2523.376 2145.392,2343.526 2194.12,2342.431 							"/>
							<polygon style="fill:#D8DEE8;" points="2275.287,2519.389 2226.92,2520.874 2226.92,2362.319 2275.287,2361.186 							"/>
						</g>
					</g>
				</g>
			</g>
			<g>
				<g>
					<path style="fill:#F4F7FA;" d="M1601.615,2740.732l-599.949,23.783c-16.033,0.635-29.047-11.823-29.047-27.828v-440.999
						c0-16.005,13.014-29.214,29.047-29.503l599.949-10.8c15.188-0.274,27.485,12.11,27.485,27.659v428.445
						C1629.1,2727.038,1616.803,2740.131,1601.615,2740.732z"/>
					<polygon style="fill:#FFFFFF;" points="972.632,2591.72 972.632,2604.5 1629.083,2583.066 1629.083,2570.649 					"/>
				</g>
				<g>
					<path style="fill:#D8DEE8;" d="M1161.29,2662.068l-112.29,3.979c-1.085,0.038-1.965-0.81-1.965-1.895v-21.567
						c0-1.085,0.879-1.995,1.965-2.032l112.29-3.854c1.074-0.037,1.945,0.808,1.945,1.887v21.459
						C1163.234,2661.125,1162.364,2662.03,1161.29,2662.068z"/>
					<path style="fill:#D8DEE8;" d="M1279.037,2705.886L1049,2714.524c-1.085,0.041-1.965-0.806-1.965-1.89v-21.568
						c0-1.085,0.879-1.996,1.965-2.035l230.037-8.382c1.063-0.039,1.925,0.8,1.925,1.874v21.349
						C1280.962,2704.944,1280.1,2705.846,1279.037,2705.886z"/>
				</g>
				<g>
					<polygon style="fill:#FFFFFF;" points="1069.738,2543.382 1035.081,2544.426 1035.081,2322.825 1069.738,2322.115 					"/>
					<polygon style="fill:#FFFFFF;" points="1121.133,2541.834 1086.631,2542.873 1086.631,2321.768 1121.133,2321.061 					"/>
					<polygon style="fill:#FFFFFF;" points="1172.298,2540.292 1137.95,2541.327 1137.95,2320.717 1172.298,2320.013 					"/>
					<polygon style="fill:#FFFFFF;" points="1223.235,2538.758 1189.04,2539.788 1189.04,2319.67 1223.235,2318.969 					"/>
					<polygon style="fill:#FFFFFF;" points="1273.947,2537.229 1239.904,2538.255 1239.904,2318.628 1273.947,2317.93 					"/>
					<polygon style="fill:#FFFFFF;" points="1324.433,2535.708 1290.541,2536.73 1290.541,2317.589 1324.433,2316.895 					"/>
					<polygon style="fill:#FFFFFF;" points="1374.696,2534.194 1340.953,2535.211 1340.953,2316.557 1374.696,2315.865 					"/>
					<polygon style="fill:#FFFFFF;" points="1424.735,2532.687 1391.142,2533.699 1391.142,2315.528 1424.735,2314.84 					"/>
					<polygon style="fill:#FFFFFF;" points="1474.555,2531.186 1441.11,2532.194 1441.11,2314.504 1474.555,2313.819 					"/>
					<polygon style="fill:#FFFFFF;" points="1524.156,2529.691 1490.858,2530.695 1490.858,2313.484 1524.156,2312.803 					"/>
					<polygon style="fill:#FFFFFF;" points="1573.54,2528.203 1540.387,2529.202 1540.387,2312.47 1573.54,2311.79 					"/>
					<g>
						<defs>
							<path id="SVGID_00000152953380706544810910000015392384471143154838_" d="M1007.439,2470.396
								c29.638-20.404,53.367-24.552,70.03-24.273c21.092,0.353,27.867,7.748,50.727,4.779c23.311-3.028,25.112-11.883,51.173-16.2
								c4.304-0.713,25.001-3.908,50.278,1.414c29.826,6.279,30.986,17.055,49.389,16.22c16.97-0.771,18.226-10.049,51.829-24.854
								c15.855-6.985,30.658-13.508,50.274-15.336c21.368-1.99,22.891,3.978,50.051,3.438c21.589-0.429,38.514-4.56,49.176-7.227
								c28.945-7.238,32.68-13.578,52.219-16.585c11.593-1.785,29.224-2.468,51.978,4.724c0,48.228,0,96.456,0,144.684
								c-188.914,5.804-381.034,11.706-576.444,17.708C1007.893,2529.391,1007.667,2499.894,1007.439,2470.396z"/>
						</defs>
						<clipPath id="SVGID_00000006671177281096732730000003228553266808715910_">
							<use xlink:href="#SVGID_00000152953380706544810910000015392384471143154838_"  style="overflow:visible;"/>
						</clipPath>
						<g style="clip-path:url(#SVGID_00000006671177281096732730000003228553266808715910_);">
							<polygon style="fill:#D8DEE8;" points="1069.738,2543.382 1035.081,2544.426 1035.081,2429.34 1069.738,2428.47 							"/>
							<polygon style="fill:#D8DEE8;" points="1121.133,2541.834 1086.631,2542.873 1086.631,2373.074 1121.133,2372.291 							"/>
							<polygon style="fill:#D8DEE8;" points="1172.298,2540.292 1137.95,2541.327 1137.95,2391.409 1172.298,2390.6 							"/>
							<polygon style="fill:#D8DEE8;" points="1223.235,2538.758 1189.04,2539.788 1189.04,2388.541 1223.235,2387.737 							"/>
							<polygon style="fill:#D8DEE8;" points="1273.947,2537.229 1239.904,2538.255 1239.904,2369.59 1273.947,2368.817 							"/>
							<polygon style="fill:#D8DEE8;" points="1324.433,2535.708 1290.541,2536.73 1290.541,2387.811 1324.433,2387.012 							"/>
							<polygon style="fill:#D8DEE8;" points="1374.696,2534.194 1340.953,2535.211 1340.953,2374.239 1374.696,2373.461 							"/>
							<polygon style="fill:#D8DEE8;" points="1424.735,2532.687 1391.142,2533.699 1391.142,2389.144 1424.735,2388.346 							"/>
							<polygon style="fill:#D8DEE8;" points="1474.555,2531.186 1441.11,2532.194 1441.11,2384.261 1474.555,2383.472 							"/>
							<polygon style="fill:#D8DEE8;" points="1524.156,2529.691 1490.858,2530.695 1490.858,2363.887 1524.156,2363.131 							"/>
							<polygon style="fill:#D8DEE8;" points="1573.54,2528.203 1540.387,2529.202 1540.387,2372.304 1573.54,2371.537 							"/>
						</g>
					</g>
				</g>
			</g>
			<g>
				<path style="fill:#D8DEE8;" d="M1302.427,1834.847l-317.161-0.233c-2.112-0.001-3.824-1.71-3.824-3.816v-41.872
					c0-2.106,1.712-3.808,3.824-3.802l317.161,0.914c2.053,0.006,3.718,1.694,3.718,3.77v41.282
					C1306.146,1833.166,1304.481,1834.848,1302.427,1834.847z"/>
				<path style="fill:#D8DEE8;" d="M1526.506,1934.05l-541.239,1.984c-2.112,0.007-3.824-1.693-3.824-3.799v-41.872
					c0-2.106,1.712-3.815,3.824-3.818l541.239-0.821c2.013-0.003,3.645,1.661,3.645,3.716v40.876
					C1530.151,1932.37,1528.519,1934.043,1526.506,1934.05z"/>
				<path style="fill:#D8DEE8;" d="M1526.506,2033.089l-541.239,4.365c-2.112,0.017-3.824-1.676-3.824-3.782V1991.8
					c0-2.105,1.712-3.824,3.824-3.835l541.239-3.204c2.013-0.012,3.645,1.644,3.645,3.701v40.875
					C1530.151,2031.393,1528.519,2033.071,1526.506,2033.089z"/>
				<path style="fill:#D8DEE8;" d="M1526.506,2132.127l-541.239,6.747c-2.112,0.026-3.824-1.659-3.824-3.765v-41.872
					c0-2.105,1.712-3.83,3.824-3.851l541.239-5.586c2.013-0.021,3.645,1.628,3.645,3.684v40.875
					C1530.151,2130.415,1528.519,2132.102,1526.506,2132.127z"/>
			</g>
			<g>
				<path style="fill:#D8DEE8;" d="M2185.495,1835.496l-469.959-0.346c-1.981-0.001-3.587-1.655-3.587-3.695v-40.545
					c0-2.04,1.606-3.688,3.587-3.682l469.959,1.354c1.898,0.006,3.436,1.628,3.436,3.624v39.679
					C2188.93,1833.88,2187.392,1835.497,2185.495,1835.496z"/>
				<path style="fill:#D8DEE8;" d="M2326.121,1931.119l-610.586,2.238c-1.981,0.007-3.587-1.64-3.587-3.679v-40.546
					c0-2.039,1.606-3.694,3.587-3.697l610.586-0.927c1.873-0.003,3.392,1.602,3.392,3.585v39.424
					C2329.513,1929.499,2327.994,1931.112,2326.121,1931.119z"/>
				<path style="fill:#D8DEE8;" d="M2326.121,2026.639l-610.586,4.925c-1.981,0.016-3.587-1.624-3.587-3.663v-40.546
					c0-2.039,1.606-3.7,3.587-3.713l610.586-3.614c1.873-0.01,3.392,1.588,3.392,3.57v39.423
					C2329.513,2025.004,2327.994,2026.624,2326.121,2026.639z"/>
				<path style="fill:#D8DEE8;" d="M2326.121,2122.159l-610.586,7.612c-1.981,0.024-3.587-1.609-3.587-3.648v-40.545
					c0-2.04,1.606-3.709,3.587-3.729l610.586-6.301c1.873-0.02,3.392,1.572,3.392,3.555v39.423
					C2329.513,2120.509,2327.994,2122.135,2326.121,2122.159z"/>
			</g>
			
				<linearGradient id="SVGID_00000140016173642558586450000018010875062450702760_" gradientUnits="userSpaceOnUse" x1="1677.8538" y1="1376.3903" x2="1643.5991" y2="382.9899">
				<stop  offset="0" style="stop-color:#AA80F9"/>
				<stop  offset="0.9964" style="stop-color:#6165D7"/>
			</linearGradient>
			<path style="fill:url(#SVGID_00000140016173642558586450000018010875062450702760_);" d="M2005.93,676.773l-80.969-4.349
				c-24.298-1.305-44.068-15.236-54.145-35.65c-75.032,15.698-154.084-0.705-233.137,15.106
				c-54.303,12.067-48.269,96.538-108.604,102.571c-86.545,11.695-172.176,12.51-256.906,13.34l-8.811,17.679l789.524,37.222
				l-21.242-122.636C2029.347,686.829,2019.027,677.476,2005.93,676.773z"/>
		</g>
		<g>
			<g>
				
					<linearGradient id="SVGID_00000067947118836638169790000005053911888092865193_" gradientUnits="userSpaceOnUse" x1="318.6009" y1="1463.8361" x2="828.1694" y2="1690.311" gradientTransform="matrix(-0.994 0.1095 0.1095 0.994 2352.2312 -108.4884)">
					<stop  offset="0" style="stop-color:#FFC444"/>
					<stop  offset="0.9964" style="stop-color:#F36F56"/>
				</linearGradient>
				<path style="fill:url(#SVGID_00000067947118836638169790000005053911888092865193_);" d="M2092.611,1646.828
					c-4.876,29.967-24.883,131.326-102.58,173.562c-127.996,69.577-352.685-58.363-379.159-225.699
					c-20.234-127.892,77.3-265.565,131.186-257.686c67.657,9.891,37.098,244.926,170.359,312.743
					C1973.412,1680.787,2044.235,1664.336,2092.611,1646.828z"/>
				
					<linearGradient id="SVGID_00000060737424032722929620000012815256138233602749_" gradientUnits="userSpaceOnUse" x1="159.7705" y1="1618.8008" x2="243.625" y2="1694.6691" gradientTransform="matrix(-1 0 0 1 2286.5637 0)">
					<stop  offset="0" style="stop-color:#AB316D"/>
					<stop  offset="1" style="stop-color:#792D3D"/>
				</linearGradient>
				<path style="fill:url(#SVGID_00000060737424032722929620000012815256138233602749_);" d="M2145.347,1644.405
					c-13.499-16.985-20.982-34.25-37.462-44.984c-34.038-22.17-66.12,40.519-30.652,64.357c9.898,6.652,34.17,10.68,52.225,12.177
					c16.243,1.347-16.304-15.099,5.928-18.01C2149.997,1656.031,2136.78,1641.371,2145.347,1644.405z"/>
				
					<linearGradient id="SVGID_00000041995720885514983530000003418527381149083783_" gradientUnits="userSpaceOnUse" x1="765.6987" y1="3141.2209" x2="878.4" y2="3141.2209" gradientTransform="matrix(-0.9996 0.0289 0.0289 0.9996 2205.6753 -31.2392)">
					<stop  offset="0" style="stop-color:#444B8C"/>
					<stop  offset="0.9964" style="stop-color:#26264F"/>
				</linearGradient>
				<path style="fill:url(#SVGID_00000041995720885514983530000003418527381149083783_);" d="M1426.9,3107.798
					c-6.163,5.01-7.297,17.52-8.036,25.698c-0.333,3.653-0.497,5.48-0.089,6.77c2.977,9.411,21.23,10.401,49.853,13.326
					c45.231,4.621,58.691,8.181,62.231,1.45c3.318-6.308-4.71-16.636-5.615-17.775c-4.86-6.122-10.825-8.349-22.358-12.145
					c-21.34-7.024-35.759-10.87-40.125-12.034C1435.502,3105.81,1430.948,3104.51,1426.9,3107.798z"/>
				
					<linearGradient id="SVGID_00000173153016459120912730000011667887922120393605_" gradientUnits="userSpaceOnUse" x1="1204.0071" y1="3171.4258" x2="1253.4509" y2="3069.0881" gradientTransform="matrix(-0.9925 0.1225 0.1225 0.9925 2272.9387 -162.6817)">
					<stop  offset="0" style="stop-color:#FFC444"/>
					<stop  offset="0.9964" style="stop-color:#F36F56"/>
				</linearGradient>
				<path style="fill:url(#SVGID_00000173153016459120912730000011667887922120393605_);" d="M1453.8,3066.476l4.527,51.543
					c-1.285,2.489-16.605,9.955-28.775,3.552l-11.63-50.665L1453.8,3066.476z"/>
				
					<linearGradient id="SVGID_00000054986021596115744600000008677150940021951382_" gradientUnits="userSpaceOnUse" x1="1149.4032" y1="3202.5225" x2="1269.1412" y2="3202.5225" gradientTransform="matrix(-0.9642 0.2651 0.2651 0.9642 2192.8501 -308.9189)">
					<stop  offset="0" style="stop-color:#444B8C"/>
					<stop  offset="0.9964" style="stop-color:#26264F"/>
				</linearGradient>
				<path style="fill:url(#SVGID_00000054986021596115744600000008677150940021951382_);" d="M1822.315,3085.004
					c-7.386,8.157-9.069,23.177-2.646,30.577c6.313,7.276,15.807,1.819,42.732,2.622c28.841,0.863,36.372,7.674,55.971,2.266
					c7.918-2.188,21.902-7.497,21.636-13.151c-0.186-3.977-7.306-6.03-31.085-13.996c-33.753-11.306-33.604-11.924-40.772-13.112
					C1850.149,3077.229,1832.072,3074.234,1822.315,3085.004z"/>
				
					<linearGradient id="SVGID_00000074443149093421846010000005075319108877083264_" gradientUnits="userSpaceOnUse" x1="994.1324" y1="3195.8271" x2="1044.626" y2="3091.3171" gradientTransform="matrix(-0.9802 0.1979 0.1979 0.9802 2204.0603 -227.1835)">
					<stop  offset="0" style="stop-color:#FFC444"/>
					<stop  offset="0.9964" style="stop-color:#F36F56"/>
				</linearGradient>
				<path style="fill:url(#SVGID_00000074443149093421846010000005075319108877083264_);" d="M1840.795,3037.964l14.465,48.118
					c-1.093,2.582-15.799,11.191-28.419,5.737l-21.484-46.703L1840.795,3037.964z"/>
				
					<linearGradient id="SVGID_00000083789442931741505380000017626764327346403515_" gradientUnits="userSpaceOnUse" x1="1894.255" y1="2888.7651" x2="1574.8909" y2="2168.8423">
					<stop  offset="0" style="stop-color:#444B8C"/>
					<stop  offset="0.9964" style="stop-color:#26264F"/>
				</linearGradient>
				<path style="fill:url(#SVGID_00000083789442931741505380000017626764327346403515_);" d="M1712.266,1984.105
					c2.072,161.713,13.107,343.541,39.586,541.085c26.168,195.243,62.842,371.654,102.847,526.782
					c-18.456,4.966-36.912,9.931-55.368,14.897c-46.824-43.661-105.892-112.39-134.393-209.516
					c-17.69-60.282-11.795-91.259-23.015-165.405c-17.866-118.056-54.055-179.908-91.458-275.108
					c-33.611-85.547-73.342-211.096-94.643-378.915C1541.303,2019.987,1626.785,2002.045,1712.266,1984.105z"/>
				
					<linearGradient id="SVGID_00000151521964974079087810000010338330302885070495_" gradientUnits="userSpaceOnUse" x1="1258.7097" y1="3007.668" x2="939.3514" y2="2287.7581" gradientTransform="matrix(0.9925 -0.1225 0.1225 0.9925 83.0051 108.1241)">
					<stop  offset="0" style="stop-color:#444B8C"/>
					<stop  offset="0.9964" style="stop-color:#26264F"/>
				</linearGradient>
				<path style="fill:url(#SVGID_00000151521964974079087810000010338330302885070495_);" d="M1508.97,1984.845
					c-11.296,205.672-20.587,415.172-27.627,628.383c-5.285,159.993-9.164,317.957-11.743,473.842
					c-18.852,2.328-37.705,4.657-56.559,6.982c-18.216-33.916-42.412-85.77-58.987-152.231
					c-20.131-80.718-15.469-128.654-24.298-212.313c-9.906-93.83-24.293-114.272-49.782-232.637
					c-51.732-240.217-77.599-360.329-19.891-435.042C1278.815,2037.574,1337.541,1976.729,1508.97,1984.845z"/>
				
					<linearGradient id="SVGID_00000039821986190049588570000007947713100096491143_" gradientUnits="userSpaceOnUse" x1="1605.9423" y1="1476.4819" x2="1341.6248" y2="1939.9419">
					<stop  offset="0" style="stop-color:#FFC444"/>
					<stop  offset="0.9964" style="stop-color:#F36F56"/>
				</linearGradient>
				<path style="fill:url(#SVGID_00000039821986190049588570000007947713100096491143_);" d="M1253.862,1305.419
					c17.844-7.923,42.2-9.306,72.692-17.988c11.992-3.415,73.747-13.842,145.613-12.74c117.215,1.796,238.335,3.654,286.124,72.941
					c16.792,24.345,9.656,35.452-7.702,235.479c-13.876,159.9-20.599,240.456-10.094,270.219c0,0,24.3,64.719,15.869,127.703
					c-1.199,8.955-3.068,17.097-5.335,25.171c-3.564,12.692-10.903,23.696-23.45,42.316
					c-62.096,92.129-265.155-56.798-375.449,23.494c-59.189,43.091-59.281,122.962-104.626,123.685
					c-31.4,0.499-55.496-37.411-64.53-51.626C1096.41,2007.879,1222.617,1441.086,1253.862,1305.419z"/>
				<g style="opacity:0.3;">
					
						<linearGradient id="SVGID_00000097465742136787988330000000929904333924372903_" gradientUnits="userSpaceOnUse" x1="1608.6802" y1="1475.7161" x2="1343.7017" y2="1940.3352">
						<stop  offset="0" style="stop-color:#FFC444"/>
						<stop  offset="0.9964" style="stop-color:#F36F56"/>
					</linearGradient>
					<path style="fill:url(#SVGID_00000097465742136787988330000000929904333924372903_);" d="M1452.389,1965.002
						c-39.924-94.62,88.779-198.628,36.298-307.327c-44.017-91.169-160.318-71.372-212.95-166.974
						c-21.563-39.166-24.731-83.729-18.464-127.555c-5.488-0.527-10.696-1.786-15.624-3.591
						c-42.581,192.768-136.405,662.22-58.674,784.517c9.034,14.215,33.13,52.125,64.529,51.625
						c45.344-0.723,45.437-80.593,104.627-123.685c98.335-71.585,270.405,39.026,350.571-1.436
						C1528.978,2056.742,1471.086,2009.313,1452.389,1965.002z"/>
				</g>
				
					<linearGradient id="SVGID_00000100345829662234676020000000988623991711260814_" gradientUnits="userSpaceOnUse" x1="1275.8181" y1="1760.6263" x2="656.8505" y2="-120.5473">
					<stop  offset="0" style="stop-color:#FFC444"/>
					<stop  offset="0.9193" style="stop-color:#F36F56"/>
				</linearGradient>
				<path style="fill:url(#SVGID_00000100345829662234676020000000988623991711260814_);" d="M1253.862,1305.419
					c-128.108,50.064-246.578,212.691-219.927,362.065c4.438,24.888,22.562,127.055,109.252,176.66
					c79.476,45.478,186.793,33.782,272.777-30.63c11.747-10.427,23.501-20.851,35.251-31.279
					c11.561-12.496,23.124-24.991,34.682-37.489c-18.173-15.116-49.051-36.921-92.415-50.915
					c-56.34-18.179-96.427,12.401-125.319-10.512c-22.562-17.893-23.741-52.387-22.878-82.299
					C1248.472,1490.347,1285.633,1293.005,1253.862,1305.419z"/>
				<polygon style="fill:#FFFFFF;" points="1482.723,1824.974 1543.465,1591.046 1733.583,1586.555 1662.945,1824.974 
					1482.723,1831.601 				"/>
				
					<linearGradient id="SVGID_00000065073069284125303800000008458845031066298786_" gradientUnits="userSpaceOnUse" x1="1827.1189" y1="2748.7927" x2="1951.9954" y2="2748.7927" gradientTransform="matrix(0.7104 -0.7038 0.7038 0.7104 -1768.5068 1111.4609)">
					<stop  offset="0" style="stop-color:#AB316D"/>
					<stop  offset="1" style="stop-color:#792D3D"/>
				</linearGradient>
				<path style="fill:url(#SVGID_00000065073069284125303800000008458845031066298786_);" d="M1455.707,1769.42
					c-3.095,0.663-11.941-31.657,1.112-38.717c13.052-7.057,90.943-27.401,107.138-20.049c16.195,7.352,16.195,7.352,16.195,7.352
					s-19.912,23.07-37.754,31.833C1524.555,1758.604,1474.421,1765.416,1455.707,1769.42z"/>
				<g>
					
						<linearGradient id="SVGID_00000109023677742066644280000015799376785038281123_" gradientUnits="userSpaceOnUse" x1="1579.1497" y1="1055.0681" x2="1591.7195" y2="720.2488" gradientTransform="matrix(0.917 0.3988 -0.3988 0.917 399.6047 -184.8945)">
						<stop  offset="0" style="stop-color:#AB316D"/>
						<stop  offset="1" style="stop-color:#792D3D"/>
					</linearGradient>
					<path style="fill:url(#SVGID_00000109023677742066644280000015799376785038281123_);" d="M1480.605,1151.207
						c0.281,33.508-3.457,60.082-6.994,78.28c-4.05,20.851-6.97,26.238-10.695,30.609c-5.608,6.58-14.106,12.099-62.12,24.006
						c-26.129,6.477-29.491,6.301-30.068,8.894c-2.814,12.648,68.433,55.759,142.042,45.368
						c45.05-6.358,86.038-32.059,83.522-45.557c-2.532-13.583-47.532-6.295-60.944-30.868c-9.331-17.095,1.128-41.364,13.491-61.462
						C1536.865,1178.042,1492.578,1173.641,1480.605,1151.207z"/>
					<g>
						
							<linearGradient id="SVGID_00000107550538200568999620000008242382939499961013_" gradientUnits="userSpaceOnUse" x1="604.3887" y1="1156.3829" x2="519.1609" y2="939.9199" gradientTransform="matrix(-1 0.0037 0.0037 1 2039.0248 162.9159)">
							<stop  offset="0" style="stop-color:#311944"/>
							<stop  offset="1" style="stop-color:#6B3976"/>
						</linearGradient>
						<path style="fill:url(#SVGID_00000107550538200568999620000008242382939499961013_);" d="M1564.219,1164.454
							c10.631-14.123,11.287-38.78-0.963-54.365c-10.543-13.411-27.132-15.323-37.064-16.473
							c-28.781-3.323-65.095,8.692-77.726,35.181c-7.485,15.697,8.706,48.314,11.24,54.178c2.872,6.63,8.076,8.904,12.892,13.917
							c6.673,6.952,17.12,18.007,34.172,36.496c1.325-5.455,3.34-12.209,6.54-19.529c1.232-2.819,6.18-13.823,13.667-22.949
							C1541.978,1172.62,1554.14,1177.839,1564.219,1164.454z"/>
						
							<linearGradient id="SVGID_00000042709611591890913480000007156172198212423315_" gradientUnits="userSpaceOnUse" x1="917.7097" y1="1007.1766" x2="913.7904" y2="1322.9528" gradientTransform="matrix(0.9979 -0.0649 0.0649 0.9979 531.9276 219.5886)">
							<stop  offset="0" style="stop-color:#AB316D"/>
							<stop  offset="1" style="stop-color:#792D3D"/>
						</linearGradient>
						<path style="fill:url(#SVGID_00000042709611591890913480000007156172198212423315_);" d="M1482.447,1217.842
							c0,0,18.92,31.039,56.591,28.589c33.727-2.196,38.668-77.832,17.125-93.883c-7.188-5.354-21.581-7.578-33.285-4.299
							c-6.912,1.938-9.254,4.81-20.61,7.755c-10.477,2.719-13.434,1.558-16.597,4.217c-3.955,3.33-6.852,11.49-0.247,33.601
							c-6.436-6.515-14.159-9.016-19.633-6.432c-0.872,0.414-3.188,1.988-4.492,4.376
							C1456.584,1200.406,1464.475,1211.439,1482.447,1217.842z"/>
						
							<linearGradient id="SVGID_00000178205664339097018780000008297315946372698502_" gradientUnits="userSpaceOnUse" x1="578.3526" y1="1166.7482" x2="493.0382" y2="950.0651" gradientTransform="matrix(-1 0.0037 0.0037 1 2039.0248 162.9159)">
							<stop  offset="0" style="stop-color:#311944"/>
							<stop  offset="1" style="stop-color:#6B3976"/>
						</linearGradient>
						<path style="fill:url(#SVGID_00000178205664339097018780000008297315946372698502_);" d="M1484.146,1155.698
							c1.627,1.213-3.346,7.282-3.716,15.87c-0.722,16.672,16.154,36.685,33.37,38.382c10.178,1.003,12.975-5.132,29.802-6.91
							c10.417-1.1,19.089,0.225,24.544,1.416c5.287,18.286,0.312,36.516-11.91,44.975c-13.158,9.107-29.967,3.582-36.994,1.272
							c-4.702-1.546-19.766-6.466-27.639-20.281c-8.203-14.396-0.153-23.074-9.564-32.81c-4.747-4.912-10.982-7.039-17.052-16.547
							c-1.648-2.584-2.748-4.868-3.422-6.406C1470.267,1165.439,1481.791,1153.942,1484.146,1155.698z"/>
						
							<linearGradient id="SVGID_00000163037265683966501690000003696968511376298422_" gradientUnits="userSpaceOnUse" x1="494.854" y1="1036.1879" x2="499.2909" y2="1075.7427" gradientTransform="matrix(-1 0.0037 0.0037 1 2039.0248 162.9159)">
							<stop  offset="0" style="stop-color:#AB316D"/>
							<stop  offset="1" style="stop-color:#792D3D"/>
						</linearGradient>
						<path style="fill:url(#SVGID_00000163037265683966501690000003696968511376298422_);" d="M1555.902,1211.236
							c0,0-7.284,3.806-19.872,3.098c-0.612-0.036-1.288,0.145-1.366,0.462c-0.289,1.193,7.786,6.548,15.227,4.457
							c5.283-1.487,9.393-6.488,8.683-7.761C1558.272,1210.956,1557.078,1211.026,1555.902,1211.236z"/>
					</g>
				</g>
			</g>
			<g>
				
					<linearGradient id="SVGID_00000027597523503931812490000011036380994733993912_" gradientUnits="userSpaceOnUse" x1="2287.52" y1="1589.6205" x2="2423.9119" y2="1761.2188" gradientTransform="matrix(1 0 0 1 -210.8697 0)">
					<stop  offset="0" style="stop-color:#FFC444"/>
					<stop  offset="0.9964" style="stop-color:#F36F56"/>
				</linearGradient>
				<path style="fill:url(#SVGID_00000027597523503931812490000011036380994733993912_);" d="M2190.303,1671.041
					c-8.891-2.892-20.664-8.339-29.363-19.422c-7.608-9.695-6.276-15.307-13.084-26.893c-12.769-21.731-36.135-33.782-40.182-30.158
					c-3.711,3.322,10.781,18.078,4.829,28.174c-2.681,4.55-11.282,6.832-28.376,11.21c-6.324,1.62-11.668,2.784-15.517,3.569
					c3.269,6.899,11.373,21.602,28.186,33.327c16.309,11.374,32.365,14.051,39.949,14.83
					C2154.597,1680.798,2172.45,1675.92,2190.303,1671.041z"/>
				
					<linearGradient id="SVGID_00000150080862067944616470000001216711842461656732_" gradientUnits="userSpaceOnUse" x1="-291.0779" y1="2125.4905" x2="-681.2476" y2="1693.5173" gradientTransform="matrix(-1 0 0 1 2286.5637 0)">
					<stop  offset="0" style="stop-color:#FF9085"/>
					<stop  offset="1" style="stop-color:#FB6FBB"/>
				</linearGradient>
				<path style="fill:url(#SVGID_00000150080862067944616470000001216711842461656732_);" d="M2975.259,1400.49
					c9.98,3.772,162.184,64.301,193.469,223.159c2.527,12.833,26.981,149.316-65.578,245.734
					c-103.788,108.116-303.641,105.436-382.968,15.052c-18.5-21.077-28.259-44.439-33.725-64.066l20.902-55.53
					c25.503-30.789,60.229-38.085,78.774-42.656c45.719-11.267,80.237,9.097,106.42-12.95
					c14.488-12.197,17.366-29.754,19.938-45.437c8.757-53.417-21.393-86.298-23.587-119.238
					c-1.641-24.626-10.26-78.583,21.882-113.769C2931.136,1408.507,2959.327,1402.44,2975.259,1400.49z"/>
				
					<linearGradient id="SVGID_00000036964155342057653970000015953106918493458087_" gradientUnits="userSpaceOnUse" x1="2886.8152" y1="3372.9424" x2="2949.1978" y2="3428.4316" gradientTransform="matrix(0.9902 -0.14 0.14 0.9902 -313.7125 206.9384)">
					<stop  offset="0" style="stop-color:#444B8C"/>
					<stop  offset="0.9964" style="stop-color:#26264F"/>
				</linearGradient>
				<path style="fill:url(#SVGID_00000036964155342057653970000015953106918493458087_);" d="M3034.565,3170.896
					c1.776-9.779,33.358-18.632,48.995-5.532c7.765,6.503,13.112,19.688,8.619,25.642c-1.634,2.167,5.06,5.977-1.354,6.051
					C3069.55,3197.305,3032.799,3180.614,3034.565,3170.896z"/>
				
					<linearGradient id="SVGID_00000048494169672747217920000009541788649229294479_" gradientUnits="userSpaceOnUse" x1="2021.6405" y1="3428.522" x2="2021.6405" y2="3319.8459" gradientTransform="matrix(0.9902 -0.14 0.14 0.9902 602.4886 77.4224)">
					<stop  offset="0" style="stop-color:#FFC444"/>
					<stop  offset="0.9964" style="stop-color:#F36F56"/>
				</linearGradient>
				<path style="fill:url(#SVGID_00000048494169672747217920000009541788649229294479_);" d="M3067.668,3174.455l32.48-4.591
					c-15.048-18.118-12.261-75.813-12.261-75.813l-34.542,7.71c0,0,3.936,15.837,10.631,39.197
					C3066.267,3148.954,3067.291,3161.469,3067.668,3174.455z"/>
				
					<linearGradient id="SVGID_00000145020577058151587510000008856386723484835460_" gradientUnits="userSpaceOnUse" x1="2893.0872" y1="3365.8933" x2="2955.469" y2="3421.3821" gradientTransform="matrix(0.9902 -0.14 0.14 0.9902 -313.7125 206.9384)">
					<stop  offset="0" style="stop-color:#444B8C"/>
					<stop  offset="0.9964" style="stop-color:#26264F"/>
				</linearGradient>
				<path style="fill:url(#SVGID_00000145020577058151587510000008856386723484835460_);" d="M3064.786,3170.455
					c0,0,39.105-9.01,43.334-1.254c4.23,7.758,7.514,28.526-17.296,27.856C3066.015,3196.388,3062.583,3177.032,3064.786,3170.455z"
					/>
				
					<linearGradient id="SVGID_00000058570792540711822360000008220681602892759720_" gradientUnits="userSpaceOnUse" x1="2786.3503" y1="3177.1643" x2="2848.7356" y2="3232.6563" gradientTransform="matrix(1 0 0 1 -210.8697 0)">
					<stop  offset="0" style="stop-color:#444B8C"/>
					<stop  offset="0.9964" style="stop-color:#26264F"/>
				</linearGradient>
				<path style="fill:url(#SVGID_00000058570792540711822360000008220681602892759720_);" d="M2588.896,3207.568
					c3.126-9.434,35.637-13.779,49.289,1.38c6.776,7.525,10.227,21.329,4.945,26.595c-1.922,1.918,4.172,6.627-2.188,5.803
					C2619.842,3238.614,2585.789,3216.941,2588.896,3207.568z"/>
				
					<linearGradient id="SVGID_00000098933178256015952730000007281576523861722791_" gradientUnits="userSpaceOnUse" x1="1921.1327" y1="3232.7671" x2="1921.1327" y2="3124.0864" gradientTransform="matrix(1 0 0 1 714.4405 0)">
					<stop  offset="0" style="stop-color:#FFC444"/>
					<stop  offset="0.9964" style="stop-color:#F36F56"/>
				</linearGradient>
				<path style="fill:url(#SVGID_00000098933178256015952730000007281576523861722791_);" d="M2621.176,3215.725h32.803
					c-12.364-20.045-1.529-76.783-1.529-76.783l-35.281,2.799c0,0,1.68,16.231,5.04,40.299
					C2623.358,3190.279,2622.62,3202.814,2621.176,3215.725z"/>
				
					<linearGradient id="SVGID_00000020384991295079793770000004289276995122391736_" gradientUnits="userSpaceOnUse" x1="7234.4238" y1="3282.6042" x2="6827.6274" y2="1640.1692" gradientTransform="matrix(-1 0 0 1 9864.8779 0)">
					<stop  offset="0" style="stop-color:#444B8C"/>
					<stop  offset="0.9964" style="stop-color:#26264F"/>
				</linearGradient>
				<path style="fill:url(#SVGID_00000020384991295079793770000004289276995122391736_);" d="M2536.162,1975.238
					c-15.195,50.18-36.897,131.171-50.865,232.785c-39.845,289.836,44.843,299.082,29.028,620.257
					c-5.048,102.521,88.817,338.922,97.09,344.142c4.005,0.388,8.348,0.649,12.981,0.509c8.164-0.246,19.675-1.497,33.061-5.511
					c14.869-2.561,68.479-147.765,56.052-234.096c-8.793-61.104-6.244-126.678-1.146-257.831
					c0.826-21.25,55.197-413.448,55.197-413.448c16.539,145.17,35.559,268.517,52.049,364.15
					c52.978,307.253,225.233,493.223,234.218,496.206c1.776,0.713,17.939,6.584,31.154-2.125c5.882-3.877,7.883-8.879,7.883-8.879
					c4.608-3.608-1.358-306.757-53.898-534.904c-76.262-331.151-43.054-408.635-67.216-556.548
					C2950.845,1891.959,2536.162,1975.238,2536.162,1975.238z"/>
				
					<linearGradient id="SVGID_00000007390678954874994670000003523413733205502597_" gradientUnits="userSpaceOnUse" x1="3342.0808" y1="2129.6421" x2="2951.9119" y2="1697.6699" gradientTransform="matrix(1 0 0 1 -210.8697 0)">
					<stop  offset="0" style="stop-color:#FF9085"/>
					<stop  offset="1" style="stop-color:#FB6FBB"/>
				</linearGradient>
				<path style="fill:url(#SVGID_00000007390678954874994670000003523413733205502597_);" d="M2844.197,1374.642
					c-50.632-1.488-167.01-19.362-231.11,38.315c-1.115,1.001,12.016,8.018,5.551,15.594c-6.003,7.033-26.593,31.655-45.259,64.939
					c-13.521,24.107-25.725,52.207-38.035,94.088c-21.715,73.859-27.946,136.75-30.028,164.153
					c-11.716,154.098-0.099,225.193,10.445,273.54c45.777,23.513,163.739,65.589,304.289,44.683
					c64.185-9.548,115.554-30.907,151.701-49.973c-36.47-110.423-7.858-169.513,5.641-223.975
					c19.249-77.659,19.559-71.789,35.407-133.478c26.15-101.791,30.439-205.803,12.473-227.088
					C2976.823,1378.052,2889.529,1375.978,2844.197,1374.642z"/>
				
					<linearGradient id="SVGID_00000099628484089693939470000007561961279330416831_" gradientUnits="userSpaceOnUse" x1="2792.6233" y1="3170.116" x2="2855.0068" y2="3225.6064" gradientTransform="matrix(1 0 0 1 -210.8697 0)">
					<stop  offset="0" style="stop-color:#444B8C"/>
					<stop  offset="0.9964" style="stop-color:#26264F"/>
				</linearGradient>
				<path style="fill:url(#SVGID_00000099628484089693939470000007561961279330416831_);" d="M2618.884,3211.36
					c0,0,39.98-3.447,43.082,4.825c3.102,8.271,3.447,29.296-21.024,25.16C2616.469,3237.209,2615.78,3217.564,2618.884,3211.36z"/>
				<g>
					
						<linearGradient id="SVGID_00000049217656972462442860000001371108705935787940_" gradientUnits="userSpaceOnUse" x1="2847.7073" y1="1197.8003" x2="3185.5503" y2="1622.8499" gradientTransform="matrix(1 0 0 1 -210.8697 0)">
						<stop  offset="0" style="stop-color:#FFC444"/>
						<stop  offset="0.9964" style="stop-color:#F36F56"/>
					</linearGradient>
					<path style="fill:url(#SVGID_00000049217656972462442860000001371108705935787940_);" d="M2701.703,1316.593
						c-15.684-26.516-8.696-56.807-7.12-63.352c6.596-27.405,9.049-31.561,14.136-37.36l7.192-7.605c0,0,0.445-0.333,0.92-0.66
						c5-3.439,23.675-9.03,27.706-9.231c12.877-0.647,39.084,45.533,54.091,116.697c1.218,2.54,2.424,5.107,3.62,7.701
						c7.443,16.144,13.828,32.023,19.31,47.504c87.029,7.358,99.108,17.569,99.495,23.465c0.816,12.412-48.771,26.757-86.063,32.217
						c-81.332,11.908-164.934-9.542-164.551-24.708c0.166-6.602,16.33-15.206,85.278-24.235
						c-1.613-11.409-3.226-22.819-4.837-34.228C2745.275,1341.555,2713.254,1336.129,2701.703,1316.593z"/>
					<path style="fill:#26264F;" d="M2685.343,1195.074c5.868,21.723,22.302,42.211,28.515,44.55
						c0.803,0.303,5.395,2.288,10.168,6.503c0.65,0.573,1.277,1.28,1.924,2.238c8.415,12.431-9.072,34.363-3.232,39.376
						c4.236,3.637,17.456-6.261,20.241-2.888c2.622,3.174-7.685,13.944-4.646,17.772c2.293,2.891,9.069-2.119,15.179,1.618
						c3.045,1.86,2.873,4.024,7.429,10.98c2.576,3.933,5.829,8.122,8.076,10.335c10.917,10.762,33.441,9.752,36.174,3.552
						c0.76-1.727-0.537-2.663-0.646-7.751c0,0-0.101-4.716,1.615-10.657c2.451-8.488,11.683-16.551,20.348-27.131
						c16.044-19.592,18.192-33.218,18.714-37.768c0.185-1.62,0.249-2.823,0.293-3.69c0.892-17.401-5.36-40.947-16.424-53.502
						c-18.534-21.032-42.69-2.262-71.38-20.348c-33.101-20.866-27.889-62.84-42.957-63.305
						C2698.125,1104.445,2674.492,1154.908,2685.343,1195.074z"/>
					
						<linearGradient id="SVGID_00000096757492873971064990000015044741386497506698_" gradientUnits="userSpaceOnUse" x1="2861.9553" y1="1186.4772" x2="3199.7947" y2="1611.522" gradientTransform="matrix(1 0 0 1 -210.8697 0)">
						<stop  offset="0" style="stop-color:#FFC444"/>
						<stop  offset="0.9964" style="stop-color:#F36F56"/>
					</linearGradient>
					<path style="fill:url(#SVGID_00000096757492873971064990000015044741386497506698_);" d="M2729.172,1280.548
						c3.377-8.743,14.575-4.359,17.154,5.1c2.581,9.458-3.973,21.754-13.376,22.257
						C2723.546,1308.41,2724.628,1292.315,2729.172,1280.548z"/>
				</g>
				<path style="fill:#9B305E;" d="M2955.622,1949.515c-0.437,0-0.815-0.33-0.864-0.776c-6.037-54.33,5.19-93.691,15.095-128.419
					c2.421-8.488,4.707-16.506,6.694-24.525c10.934-44.114,15.722-61.151,20.791-79.188c3.295-11.72,6.7-23.838,11.977-44.09
					c0.121-0.463,0.592-0.728,1.061-0.623c0.466,0.123,0.745,0.599,0.623,1.065c-5.28,20.266-8.687,32.391-11.983,44.121
					c-5.066,18.02-9.849,35.047-20.778,79.137c-1.995,8.046-4.285,16.078-6.71,24.579c-9.861,34.574-21.036,73.759-15.037,127.752
					c0.053,0.476-0.291,0.908-0.769,0.959C2955.686,1949.511,2955.654,1949.515,2955.622,1949.515z"/>
				<path style="fill:#26264F;" d="M2729.269,1263.547l-8.074,19.377c0,0-8.075,23.255-18.733,14.537
					c-8.707-7.125-10.302-6.489-10.593-6.017c-0.055,0.091-0.047,0.201-0.066,0.201c-0.119,0-0.238-4.638-0.323-8.721
					c-2.031,5.602-4.523,14.474-4.522,25.517c0.001,10.727,0.001,22.211,8.398,31.006c0.485,0.508,9.633,9.812,21.963,9.367
					c0,0,4.848-0.176,23.255-8.719c0,0-25.192-9.69-26.486-13.242c-3.511-9.662,8.785-18.667,13.567-41.668
					C2729.498,1276.314,2729.543,1268.704,2729.269,1263.547z"/>
				
					<linearGradient id="SVGID_00000114773146787478107110000006174620983808113543_" gradientUnits="userSpaceOnUse" x1="10.3421" y1="1853.2396" x2="-379.8272" y2="1421.267" gradientTransform="matrix(-1 0 0 1 2286.5637 0)">
					<stop  offset="0" style="stop-color:#FF9085"/>
					<stop  offset="1" style="stop-color:#FB6FBB"/>
				</linearGradient>
				<path style="fill:url(#SVGID_00000114773146787478107110000006174620983808113543_);" d="M2169.965,1644.356
					c-18.31,12.813-28.129,30.214-33.219,41.32c13.462,31.596,43.993,90.267,107.187,133.505
					c103.615,70.895,255.543,73.279,361.365-7.569c126.428-96.591,147.553-281.814,94.451-361.136
					c-6.113-9.131-26.211-39.153-57.412-42.597c-19.703-2.176-46.522,5.949-88.895,55.558
					c-88.29,103.375-57.105,167.921-109.267,198.164C2365.956,1706.953,2249.722,1588.542,2169.965,1644.356z"/>
				<path style="fill:#9B305E;" d="M2525.874,1854.776c-0.4,0-0.76-0.279-0.849-0.687c-0.102-0.469,0.196-0.932,0.667-1.034
					c0.308-0.068,31.295-6.995,68.712-32.687c34.524-23.705,81.745-68.7,110.643-148.426c0.162-0.452,0.67-0.677,1.114-0.524
					c0.453,0.163,0.687,0.663,0.522,1.116c-29.07,80.202-76.606,125.469-111.366,149.321
					c-37.688,25.859-68.947,32.833-69.258,32.901C2525.998,1854.769,2525.935,1854.776,2525.874,1854.776z"/>
			</g>
		</g>
		<g>
			
				<linearGradient id="SVGID_00000123431822012589309610000004440141449748185265_" gradientUnits="userSpaceOnUse" x1="750.7092" y1="2845.7458" x2="334.6067" y2="2979.2856">
				<stop  offset="0" style="stop-color:#FCB148"/>
				<stop  offset="0.0521" style="stop-color:#FDBA46"/>
				<stop  offset="0.1424" style="stop-color:#FFC244"/>
				<stop  offset="0.3183" style="stop-color:#FFC444"/>
				<stop  offset="0.4849" style="stop-color:#FDB946"/>
				<stop  offset="0.7754" style="stop-color:#F99C4D"/>
				<stop  offset="0.8658" style="stop-color:#F8924F"/>
				<stop  offset="1" style="stop-color:#F8924F"/>
			</linearGradient>
			<path style="fill:url(#SVGID_00000123431822012589309610000004440141449748185265_);" d="M1229.731,2830.646
				c0,193.035-150.941,344.887-343.862,338.962c-200.774-6.167-369.631-179.564-369.631-387.063
				c0-207.5,168.857-358.129,369.631-337.223C1078.79,2465.41,1229.731,2637.613,1229.731,2830.646z"/>
			
				<linearGradient id="SVGID_00000149364292297074871610000004047695964074552988_" gradientUnits="userSpaceOnUse" x1="1087.3114" y1="2431.5574" x2="715.8411" y2="3251.0901">
				<stop  offset="0" style="stop-color:#FFDB44"/>
				<stop  offset="1" style="stop-color:#FEEF06"/>
			</linearGradient>
			<path style="fill:url(#SVGID_00000149364292297074871610000004047695964074552988_);" d="M1281.863,2814.001
				c0,193.035-150.941,344.887-343.862,338.963c-200.774-6.166-369.631-179.563-369.631-387.063s168.857-358.129,369.631-337.223
				C1130.921,2448.765,1281.863,2620.969,1281.863,2814.001z"/>
			
				<linearGradient id="SVGID_00000091737136394489351790000008803608876599114916_" gradientUnits="userSpaceOnUse" x1="1018.9794" y1="3296.894" x2="947.3034" y2="2905.3311">
				<stop  offset="0" style="stop-color:#FCB148"/>
				<stop  offset="0.0521" style="stop-color:#FDBA46"/>
				<stop  offset="0.1424" style="stop-color:#FFC244"/>
				<stop  offset="0.3183" style="stop-color:#FFC444"/>
				<stop  offset="0.4849" style="stop-color:#FDB946"/>
				<stop  offset="0.7754" style="stop-color:#F99C4D"/>
				<stop  offset="0.8658" style="stop-color:#F8924F"/>
				<stop  offset="1" style="stop-color:#F8924F"/>
			</linearGradient>
			<path style="fill:url(#SVGID_00000091737136394489351790000008803608876599114916_);" d="M1266.72,2812.982
				c0,184.535-144.424,329.453-328.719,323.485c-191.451-6.198-352.191-171.679-352.191-369.388
				c0-197.712,160.741-341.518,352.191-321.904C1122.296,2464.056,1266.72,2628.448,1266.72,2812.982z"/>
			
				<linearGradient id="SVGID_00000052810367436528336750000002375651412855025046_" gradientUnits="userSpaceOnUse" x1="867.0132" y1="2663.106" x2="1162.3993" y2="3290.1543">
				<stop  offset="0" style="stop-color:#FCB148"/>
				<stop  offset="0.0521" style="stop-color:#FDBA46"/>
				<stop  offset="0.1424" style="stop-color:#FFC244"/>
				<stop  offset="0.3183" style="stop-color:#FFC444"/>
				<stop  offset="0.4849" style="stop-color:#FDB946"/>
				<stop  offset="0.7754" style="stop-color:#F99C4D"/>
				<stop  offset="0.8658" style="stop-color:#F8924F"/>
				<stop  offset="1" style="stop-color:#F8924F"/>
			</linearGradient>
			<path style="fill:url(#SVGID_00000052810367436528336750000002375651412855025046_);" d="M1255.874,2812.251
				c0,178.447-139.747,318.413-317.873,312.433c-184.801-6.205-339.771-166.032-339.771-356.769
				c0-190.74,154.97-329.67,339.771-310.957C1116.127,2474.994,1255.874,2633.803,1255.874,2812.251z"/>
			<g>
				
					<linearGradient id="SVGID_00000173844316490108606000000014522312402444643758_" gradientUnits="userSpaceOnUse" x1="855.2446" y1="2528.1741" x2="1003.7749" y2="3084.8396">
					<stop  offset="0" style="stop-color:#FFDB44"/>
					<stop  offset="1" style="stop-color:#FEEF06"/>
				</linearGradient>
				<path style="fill:url(#SVGID_00000173844316490108606000000014522312402444643758_);" d="M936.176,2517.666
					c9.479,0.901,17.151,9.434,17.151,19.059v32.857c18.954,2.115,37.934,5.411,56.941,9.878
					c14.015,3.293,27.937,7.214,41.762,11.76c8.285,2.723,13.931,11.088,13.087,19.717l-4.036,41.198
					c-1.069,10.932-11.875,17.349-22.047,12.814c-9.107-4.061-18.445-7.54-28.017-10.436c-16.699-5.054-34.31-8.348-52.843-9.875
					l-4.846-0.399v94.092c49.446,13.835,85.762,32.447,109.23,55.856c23.355,23.297,34.99,52.33,34.99,87.187
					c0,37.694-12.863,67.877-38.696,90.641c-25.97,22.884-62.382,35.754-109.465,38.541v36.264c0,9.63-7.677,17.132-17.165,16.756
					l-0.306-0.014c-9.505-0.378-17.226-8.519-17.226-18.183v-35.771l-7.64-0.346c-22.073-0.995-43.217-3.246-63.417-6.761
					c-14.961-2.602-29.57-5.961-43.825-10.079c-8.619-2.49-14.538-10.702-13.747-19.524l4.749-52.962
					c1.025-11.449,12.526-18.111,23.412-13.815c12.69,5.006,25.538,9.221,38.542,12.65c20.267,5.346,40.809,8.774,61.621,10.296
					l0.305-104.665c-47.463-11.744-82.999-29.139-106.346-52.182c-23.455-23.151-35.226-52.777-35.226-88.799
					c0-37.277,12.762-66.053,38.189-86.249c25.298-20.091,61.262-30.087,107.658-30.063v-33.589
					C918.965,2523.86,926.678,2516.762,936.176,2517.666z M918.965,2643.264c-14.669,1.065-26.108,5.094-34.296,12.092
					c-8.2,7.006-12.306,16.423-12.306,28.243c0,11.197,3.798,20.555,11.384,28.069c7.576,7.503,19.325,13.491,35.218,17.966
					V2643.264z M949.387,2832.789v95.982c15.946,0.031,28.174-3.777,36.71-11.412c8.52-7.623,12.776-18.389,12.776-32.309
					c0-12.692-3.953-23.219-11.874-31.589C979.068,2845.076,966.541,2838.188,949.387,2832.789z"/>
			</g>
			
				<linearGradient id="SVGID_00000022526097520633825800000008290206000552641726_" gradientUnits="userSpaceOnUse" x1="780.1118" y1="2703.6855" x2="1074.9019" y2="3329.4685">
				<stop  offset="0" style="stop-color:#FCB148"/>
				<stop  offset="0.0521" style="stop-color:#FDBA46"/>
				<stop  offset="0.1424" style="stop-color:#FFC244"/>
				<stop  offset="0.3183" style="stop-color:#FFC444"/>
				<stop  offset="0.4849" style="stop-color:#FDB946"/>
				<stop  offset="0.7754" style="stop-color:#F99C4D"/>
				<stop  offset="0.8658" style="stop-color:#F8924F"/>
				<stop  offset="1" style="stop-color:#F8924F"/>
			</linearGradient>
			<path style="opacity:0.3;fill:url(#SVGID_00000022526097520633825800000008290206000552641726_);" d="M880.476,2855.95
				c10.74-106.075,108.226-150.98,95.506-248.55c-7.843-60.137-53.422-110.818-104.269-150.388
				c-154.225,16.175-273.482,143.876-273.482,310.903c0,190.738,154.97,350.565,339.768,356.769
				c17.944,0.602,35.469-0.33,52.508-2.564C917.114,3049.089,871.25,2947.079,880.476,2855.95z"/>
		</g>
	</g>
</g>
</svg>
