<?xml version="1.0" encoding="utf-8"?>
<!-- Generator: Adobe Illustrator 27.5.0, SVG Export Plug-In . SVG Version: 6.00 Build 0)  -->
<svg version="1.1" xmlns="http://www.w3.org/2000/svg" xmlns:xlink="http://www.w3.org/1999/xlink" x="0px" y="0px"
	 viewBox="0 0 3710 3710" style="enable-background:new 0 0 3710 3710;" xml:space="preserve">
<g id="Background">
	<g>
		<g>
			<rect style="fill:#FFFFFF;" width="3710" height="3710"/>
		</g>
	</g>
</g>
<g id="Illustration">
	<g>
		<path style="fill:#F4F7FA;" d="M1746.879,373.286c-371.757,6.567-946.937,147.915-1112.496,511.155
			c-57.823,126.866-53.908,313.374-46.08,686.39c2.301,109.639,6.117,269.44,32.914,467.717
			c55.666,411.884,93.561,692.28,236.981,855.55c359.368,409.104,1657.491,397.283,2211.826-339.239
			c302.393-401.778,348.914-973.32,72.411-1445.67C2838.013,589.139,2244.574,364.495,1746.879,373.286z"/>
		<g>
			<defs>
				<rect id="SVGID_1_" x="1923.449" y="1823.743" width="1320.024" height="1267.082"/>
			</defs>
			<clipPath id="SVGID_00000092417910840819979630000002211926443299733901_">
				<use xlink:href="#SVGID_1_"  style="overflow:visible;"/>
			</clipPath>
			<g style="clip-path:url(#SVGID_00000092417910840819979630000002211926443299733901_);">
				<g>
					<defs>
						<path id="SVGID_00000103264771988028012650000004006596567483483795_" d="M2047.742,3518.665l198.198,108.285
							c0,0,92.857-81.288,83.488-179.576c-19.116-200.539,157.857-203.285,231.808-215.524
							c111.524-18.457,201.754-83.36,107.808-184.405c-93.946-101.044,118.741-215.996,303.148-219.846
							c180.455-3.768,277.887-326.721-113.435-354.429c-233.696-16.547-312.702,197.648-378.314,296.33
							c-65.613,98.681-224.382,23.069-240.795,178.443c-14.019,132.719,28.498,258.306-77.424,296.947
							C2056.302,3283.529,2004.016,3363.17,2047.742,3518.665z"/>
					</defs>
					<clipPath id="SVGID_00000176035143831482984430000015269861778394116011_">
						<use xlink:href="#SVGID_00000103264771988028012650000004006596567483483795_"  style="overflow:visible;"/>
					</clipPath>
					
						<linearGradient id="SVGID_00000062871413782071449890000013548592011234685317_" gradientUnits="userSpaceOnUse" x1="6959.8491" y1="70.011" x2="6510.2148" y2="1347.9189" gradientTransform="matrix(0.8775 0.4795 -0.4795 0.8775 -3044.9133 -841.8858)">
						<stop  offset="0" style="stop-color:#AA80F9"/>
						<stop  offset="0.9964" style="stop-color:#6165D7"/>
					</linearGradient>
					
						<path style="clip-path:url(#SVGID_00000176035143831482984430000015269861778394116011_);fill:url(#SVGID_00000062871413782071449890000013548592011234685317_);" d="
						M2047.742,3518.665l198.198,108.285c0,0,92.857-81.288,83.488-179.576c-19.116-200.539,157.857-203.285,231.808-215.524
						c111.524-18.457,189.108-78.644,123.159-181.213c-74.618-116.052,103.39-219.188,287.797-223.038
						c180.455-3.768,277.887-326.721-113.435-354.429c-233.696-16.547-312.702,197.648-378.314,296.33
						c-65.613,98.681-224.382,23.069-240.795,178.443c-14.019,132.719,28.498,258.306-77.424,296.947
						C2056.302,3283.529,2004.016,3363.17,2047.742,3518.665z"/>
					<g style="opacity:0.5;clip-path:url(#SVGID_00000176035143831482984430000015269861778394116011_);">
						<path style="fill:#BEB8F2;" d="M2123.472,3583.925l4.528,1.495c0.925-2.805,94.59-283.239,271.27-533.246
							c162.768-230.325,431.354-481.202,786.549-368.402l1.444-4.544c-158.116-50.215-312.502-33.785-458.873,48.83
							c-116.925,65.995-228.986,174.143-333.07,321.442C2218.253,3300.088,2124.401,3581.115,2123.472,3583.925z"/>
						<path style="fill:#BEB8F2;" d="M2668.716,2765.222l4.437,1.75c58.297-147.595,218.197-315.135,219.805-316.811l-3.438-3.304
							C2887.905,2448.542,2727.356,2616.762,2668.716,2765.222z"/>
						<path style="fill:#BEB8F2;" d="M2767.751,2712.849c188.797-10.802,297.389,103.203,298.462,104.355l3.488-3.249
							c-1.089-1.172-111.111-116.8-302.221-105.867L2767.751,2712.849z"/>
						<path style="fill:#BEB8F2;" d="M2292.668,3221.913c154.561-171.711,449.298-73.505,452.089-72.308l2.16-4.245
							c-2.628-1.434-301.858-99.872-457.792,73.365L2292.668,3221.913z"/>
						<path style="fill:#BEB8F2;" d="M2337.046,3137.616l4.564,1.385c42.857-141.055-46.921-303.274-47.834-304.897l-4.156,2.336
							C2290.523,2838.048,2379.309,2998.531,2337.046,3137.616z"/>
						<path style="fill:#BEB8F2;" d="M2143.71,3541.615c47.983-73.485,190.823-74.39,192.26-74.393l-0.002-4.766
							c-5.971,0-146.852,0.898-196.25,76.553L2143.71,3541.615z"/>
						<path style="fill:#BEB8F2;" d="M2164.999,3474.908l4.51,1.548c22.547-65.627-31.654-182.072-49.466-220.336
							c-2.517-5.408-4.689-10.075-4.913-10.984l-4.645,1.073c0.296,1.285,1.732,4.393,5.236,11.922
							C2133.331,3295.965,2186.921,3411.098,2164.999,3474.908z"/>
					</g>
				</g>
				<g>
					
						<linearGradient id="SVGID_00000111189987322958589900000011592845962949402526_" gradientUnits="userSpaceOnUse" x1="-4203.2915" y1="1428.4912" x2="-3729.657" y2="2673.0068" gradientTransform="matrix(-0.9999 -0.0114 -0.0114 0.9999 -1526.7635 329.1732)">
						<stop  offset="0" style="stop-color:#AA80F9"/>
						<stop  offset="0.9964" style="stop-color:#6165D7"/>
					</linearGradient>
					<path style="fill:url(#SVGID_00000111189987322958589900000011592845962949402526_);" d="M2463.062,2747.726
						c25.577,44.235,7.227,90.265-11.27,121.493c-4.905,0.227-7.668,1.608-12.549,2.93c-44.052,11.931-65.386,7.635-110.663,12.539
						c-9.745,1.056-39.292-4.545-51.218-7.609l-22.143-6.066c0,0-45.955-108.256,12.396-141.04
						c58.351-32.784,27.749-141.137,18.611-200.536c-5.611-36.476,3.507-54.955,3.597-68.689
						c0.951-145.38-44.989-186.025-15.639-233.11c32.4-51.979,97.659-17.325,135.892-72.007
						c43.173-61.748-11.054-147.391,42.859-196.694c9.244-8.453,18.97-16.887,34.737-22.416c38.917-13.649,72.229,7.7,98.729-26.285
						c53.264-68.313,145.394-95.782,205.914-30.156c59.73,64.769,1.828,200.871-157.444,314.834
						c-104.028,93.96-103.92,120.822-90.792,185.715c9.193,45.454,64.231,162.6,0.738,212.845
						C2481.322,2643.719,2433.821,2697.156,2463.062,2747.726z"/>
					<g>
						<defs>
							<path id="SVGID_00000089532429231118592450000008015068867497536673_" d="M2425.277,2907.357l-166.135-32.501
								c0,0-49.877-112.099,8.474-144.884c58.351-32.784,27.749-141.136,18.611-200.536
								c-24.793-161.167,164.252-154.094,150.175-363.237c-3.744-55.626-30.897-160.912,16.534-207.262
								c54.037-52.806,99.386-4.995,133.465-48.702c53.264-68.313,145.395-95.78,205.914-30.156
								c59.73,64.769,1.828,200.872-157.442,314.834c-104.029,93.96-103.919,120.822-90.793,185.714
								c9.194,45.454,64.231,162.6,0.737,212.845c-63.494,50.245-110.994,103.683-81.754,154.252
								C2507.553,2824.672,2425.277,2907.357,2425.277,2907.357z"/>
						</defs>
						<clipPath id="SVGID_00000173151806752438515190000002501911815515774650_">
							<use xlink:href="#SVGID_00000089532429231118592450000008015068867497536673_"  style="overflow:visible;"/>
						</clipPath>
						<g style="opacity:0.5;clip-path:url(#SVGID_00000173151806752438515190000002501911815515774650_);">
							<path style="fill:#FCFDFE;" d="M2352.38,2885.429l-3.346-0.251c1.21-18.489,2.677-37.117,4.359-55.367
								c12.467-135.121,38.094-264.021,76.172-383.122c32.265-100.918,73.899-196.229,123.746-283.284
								c40.086-70.01,85.678-135.086,135.509-193.42c35.031-41.007,71.778-78.286,109.224-110.795
								c6.525-5.667,13.546-11.117,20.336-16.388c9.047-7.022,18.403-14.283,26.653-22.114l2.419,2.2
								c-8.364,7.938-17.781,15.249-26.89,22.319c-6.757,5.244-13.743,10.668-20.201,16.276
								c-37.328,32.408-73.966,69.575-108.897,110.466c-49.708,58.189-95.19,123.111-135.185,192.959
								c-49.744,86.876-91.294,181.997-123.497,282.72c-38.014,118.9-63.599,247.595-76.045,382.507
								C2355.053,2848.361,2353.588,2866.963,2352.38,2885.429z"/>
							<path style="fill:#FCFDFE;" d="M2500.406,2273.224l-3.121-1.197c52.754-123.329-16.073-344.435-16.776-346.653l3.216-0.823
								C2484.431,1926.78,2553.582,2148.908,2500.406,2273.224z"/>
							<path style="fill:#FCFDFE;" d="M2385.671,2630.836l-3.242-0.855c25.204-87.904,195.155-161.862,196.869-162.599l1.459,2.831
								C2579.058,2470.943,2410.48,2544.306,2385.671,2630.836z"/>
							<path style="fill:#FCFDFE;" d="M2376.04,2681.946l-3.342-0.314c5.203-59.38-21.935-143.567-76.415-237.052
								c-2.739-4.701-2.739-4.701-2.697-5.29l3.346,0.276l-1.673-0.138l1.588-0.451c0.144,0.331,1.178,2.106,2.378,4.164
								C2354.016,2537.158,2381.297,2621.966,2376.04,2681.946z"/>
							<path style="fill:#FCFDFE;" d="M2355.103,2851.725l-3.124-1.186c25.686-60.774,125.788-88.407,126.795-88.679l0.996,2.99
								C2478.777,2765.118,2380.201,2792.344,2355.103,2851.725z"/>
							<path style="fill:#FCFDFE;" d="M2347.337,2885.876c-16.139-51.133-48.531-99.926-99.025-149.166l2.408-2.124
								c50.881,49.619,83.537,98.839,99.833,150.47L2347.337,2885.876z"/>
							<path style="fill:#FCFDFE;" d="M2662.73,2006.763l-3.045-1.357c33.48-66.975,51.774-144.852,57.785-170.442
								c1.455-6.195,1.975-8.374,2.299-9.101l3.102,1.239c-0.239,0.558-1.071,4.099-2.124,8.583
								C2714.716,1861.358,2696.363,1939.482,2662.73,2006.763z"/>
							<path style="fill:#FCFDFE;" d="M2590.783,2107.865l-2.499-2.122c50.112-51.07,200.21-55.589,206.576-55.757l0.16,3.112
								C2793.476,2053.14,2639.959,2057.749,2590.783,2107.865z"/>
						</g>
					</g>
				</g>
				<g>
					
						<linearGradient id="SVGID_00000153670870048259245920000010508699654537318543_" gradientUnits="userSpaceOnUse" x1="1301.8539" y1="880.087" x2="1939.4794" y2="1929.783" gradientTransform="matrix(-0.9932 -0.1163 -0.1163 0.9932 4303.1816 1394.2852)">
						<stop  offset="0.0036" style="stop-color:#E38DDD"/>
						<stop  offset="1" style="stop-color:#9571F6"/>
					</linearGradient>
					<path style="fill:url(#SVGID_00000153670870048259245920000010508699654537318543_);" d="M2349.983,3223.961
						c-11.269-2.776,9.053-60.234-15.455-139.647c-6.123-19.84-32.014-130.367-116.396-143.198
						c-16.38-2.491-32.76-4.983-49.14-7.474c-9.868-38.589-12.02-76.786,39.527-85.152c80.051-12.99,95.119-142.334,78.451-190.649
						c-20.628-59.799-65.676-199.9,57.696-221.841c102.707-18.267,173.466-10.019,192.805-130.702
						c19.34-120.685,97.096-188.343,212.742-167.592c121.7,21.838,237.833-120.835,332.919-57.549
						c165.68,110.277-19.953,359.609-240.471,412.462c-220.516,52.854-105.928,139.567-110.308,239.659
						c-0.933,9.269-3.095,23.566-8.849,39.957c-35.429,100.912-145.677,106.223-232.886,182.101
						C2371.685,3057.819,2368.967,3228.638,2349.983,3223.961z"/>
					<g>
						<defs>
							<path id="SVGID_00000088099032570656684810000005477224054309979544_" d="M2441.771,2996.858l-266.658-33
								c-11.598-37.652-24.173-106.022,33.406-115.366c80.052-12.992,95.119-142.335,78.452-190.65
								c-20.628-59.799-65.676-199.9,57.697-221.842c102.707-18.266,173.465-10.018,192.804-130.702
								c19.34-120.684,97.097-188.342,212.743-167.59c121.699,21.838,237.832-120.836,332.917-57.549
								c165.681,110.276-19.952,359.607-240.469,412.461c-220.517,52.854-105.93,139.566-110.309,239.66
								c-5.979,136.649-196.856,85.12-253.479,132.495C2434.485,2901.915,2436.063,2960.466,2441.771,2996.858z"/>
						</defs>
						<clipPath id="SVGID_00000021120219319351507790000004135521907167291313_">
							<use xlink:href="#SVGID_00000088099032570656684810000005477224054309979544_"  style="overflow:visible;"/>
						</clipPath>
						<g style="opacity:0.5;clip-path:url(#SVGID_00000021120219319351507790000004135521907167291313_);">
							<path style="fill:#FCFDFE;" d="M2320.586,2941.616l-5.554-1.757c124.813-382.243,446.05-700.232,838.353-829.875l2.036,5.215
								C2764.771,2244.296,2444.881,2560.961,2320.586,2941.616z"/>
							<path style="fill:#FCFDFE;" d="M2407.595,2739.219l-5.781-0.689c16.578-157.237-112.692-296.799-114.001-298.19l4.29-3.613
								C2293.429,2438.134,2424.434,2579.503,2407.595,2739.219z"/>
							<path style="fill:#FCFDFE;" d="M2345.583,2871.944l-4.814-3.207c94.748-130.738,402.805-114.021,405.906-113.837
								l-0.212,5.506C2743.396,2760.225,2438.529,2743.692,2345.583,2871.944z"/>
							<path style="fill:#FCFDFE;" d="M2648.82,2423.159l-5.077-2.81c65.394-109.661,4.228-297.743,3.603-299.63l5.535-1.532
								C2653.516,2121.096,2715.422,2311.473,2648.82,2423.159z"/>
							<path style="fill:#FCFDFE;" d="M2852.687,2260.556l-2.538-5.025c137.634-59.951,334.09,5.74,336.061,6.414l-1.834,5.187
								C3182.43,2266.466,2988.175,2201.537,2852.687,2260.556z"/>
						</g>
					</g>
				</g>
			</g>
		</g>
		<g>
			<defs>
				
					<rect id="SVGID_00000071556598305150406540000011679670897945774982_" x="479.894" y="1640.211" width="1228.258" height="1270.611"/>
			</defs>
			<clipPath id="SVGID_00000038407319460312448080000000895059712727264950_">
				<use xlink:href="#SVGID_00000071556598305150406540000011679670897945774982_"  style="overflow:visible;"/>
			</clipPath>
			<g style="clip-path:url(#SVGID_00000038407319460312448080000000895059712727264950_);">
				<g>
					<defs>
						<path id="SVGID_00000156588078872841113400000016379468798711712949_" d="M1610.876,3161.742l-198.198,108.285
							c0,0-92.857-81.287-83.488-179.576c19.116-200.539-157.857-203.285-231.808-215.524
							c-111.525-18.457-201.754-83.36-107.808-184.405c93.946-101.044-118.742-215.996-303.148-219.846
							c-180.455-3.768-277.887-326.721,113.435-354.429c233.696-16.547,312.702,197.648,378.315,296.33
							c65.613,98.681,224.382,23.068,240.795,178.443c14.019,132.719-28.498,258.306,77.424,296.946
							C1602.316,2926.607,1654.602,3006.249,1610.876,3161.742z"/>
					</defs>
					<clipPath id="SVGID_00000105423790462602437770000015290912728663429536_">
						<use xlink:href="#SVGID_00000156588078872841113400000016379468798711712949_"  style="overflow:visible;"/>
					</clipPath>
					
						<linearGradient id="SVGID_00000037652350011124194970000004475918980485314185_" gradientUnits="userSpaceOnUse" x1="7124.2573" y1="-426.5769" x2="6674.6235" y2="851.3311" gradientTransform="matrix(-0.8775 0.4795 0.4795 0.8775 7085.9131 -841.8858)">
						<stop  offset="0" style="stop-color:#AA80F9"/>
						<stop  offset="0.9964" style="stop-color:#6165D7"/>
					</linearGradient>
					
						<path style="clip-path:url(#SVGID_00000105423790462602437770000015290912728663429536_);fill:url(#SVGID_00000037652350011124194970000004475918980485314185_);" d="
						M1610.876,3161.742l-198.198,108.285c0,0-92.857-81.287-83.488-179.576c19.116-200.539-157.857-203.285-231.808-215.524
						c-111.525-18.457-189.108-78.644-123.159-181.213c74.618-116.052-103.39-219.188-287.797-223.038
						c-180.455-3.768-277.887-326.721,113.435-354.429c233.696-16.547,312.702,197.648,378.315,296.33
						c65.613,98.681,224.382,23.068,240.795,178.443c14.019,132.719-28.498,258.306,77.424,296.946
						C1602.316,2926.607,1654.602,3006.249,1610.876,3161.742z"/>
					<g style="opacity:0.5;clip-path:url(#SVGID_00000105423790462602437770000015290912728663429536_);">
						<path style="fill:#BEB8F2;" d="M1535.145,3227.003l-4.528,1.495c-0.925-2.805-94.59-283.239-271.27-533.246
							c-162.768-230.325-431.354-481.202-786.549-368.402l-1.444-4.544c158.116-50.214,312.502-33.785,458.873,48.83
							c116.925,65.995,228.986,174.143,333.069,321.442C1440.364,2943.167,1534.217,3224.193,1535.145,3227.003z"/>
						<path style="fill:#BEB8F2;" d="M989.901,2408.3l-4.436,1.75c-58.297-147.595-218.197-315.135-219.805-316.811l3.438-3.304
							C770.713,2091.62,931.262,2259.84,989.901,2408.3z"/>
						<path style="fill:#BEB8F2;" d="M890.866,2355.927c-188.797-10.802-297.389,103.203-298.462,104.355l-3.488-3.249
							c1.089-1.172,111.111-116.8,302.221-105.867L890.866,2355.927z"/>
						<path style="fill:#BEB8F2;" d="M1365.949,2864.991c-154.561-171.711-449.298-73.505-452.089-72.308l-2.16-4.246
							c2.628-1.434,301.859-99.872,457.792,73.365L1365.949,2864.991z"/>
						<path style="fill:#BEB8F2;" d="M1321.572,2780.695l-4.564,1.385c-42.857-141.055,46.921-303.274,47.834-304.897l4.156,2.336
							C1368.094,2481.125,1279.309,2641.61,1321.572,2780.695z"/>
						<path style="fill:#BEB8F2;" d="M1514.907,3184.693c-47.983-73.485-190.823-74.39-192.26-74.392l0.002-4.766
							c5.971,0,146.852,0.898,196.25,76.552L1514.907,3184.693z"/>
						<path style="fill:#BEB8F2;" d="M1493.619,3117.986l-4.51,1.548c-22.547-65.627,31.654-182.072,49.466-220.336
							c2.517-5.408,4.689-10.075,4.913-10.984l4.645,1.073c-0.296,1.285-1.732,4.393-5.235,11.922
							C1525.287,2939.043,1471.697,3054.176,1493.619,3117.986z"/>
					</g>
				</g>
				<g>
					
						<linearGradient id="SVGID_00000051383374584930299120000003053677312750620584_" gradientUnits="userSpaceOnUse" x1="-4581.5933" y1="1067.2206" x2="-4107.959" y2="2311.7361" gradientTransform="matrix(0.9999 -0.0114 0.0114 0.9999 5567.7637 329.1732)">
						<stop  offset="0" style="stop-color:#AA80F9"/>
						<stop  offset="0.9964" style="stop-color:#6165D7"/>
					</linearGradient>
					<path style="fill:url(#SVGID_00000051383374584930299120000003053677312750620584_);" d="M1195.556,2390.804
						c-25.577,44.235-7.227,90.264,11.27,121.493c4.905,0.227,7.668,1.608,12.549,2.93c44.052,11.931,65.386,7.635,110.663,12.539
						c9.745,1.056,39.292-4.545,51.218-7.608l22.143-6.066c0,0,45.954-108.256-12.396-141.04
						c-58.351-32.784-27.749-141.137-18.611-200.536c5.611-36.476-3.507-54.955-3.597-68.689
						c-0.951-145.38,44.989-186.025,15.639-233.11c-32.4-51.979-97.659-17.325-135.892-72.007
						c-43.172-61.747,11.054-147.391-42.859-196.694c-9.244-8.453-18.97-16.887-34.736-22.416
						c-38.917-13.649-72.23,7.701-98.729-26.285c-53.264-68.313-145.394-95.782-205.914-30.156
						c-59.73,64.769-1.828,200.872,157.444,314.834c104.028,93.96,103.92,120.822,90.792,185.715
						c-9.193,45.454-64.231,162.6-0.738,212.845C1177.295,2286.797,1224.797,2340.235,1195.556,2390.804z"/>
					<g>
						<defs>
							<path id="SVGID_00000044150481094203554820000016580659743880489350_" d="M1233.341,2550.435l166.135-32.501
								c0,0,49.877-112.099-8.474-144.884c-58.351-32.784-27.749-141.136-18.611-200.536
								c24.793-161.167-164.252-154.094-150.175-363.237c3.744-55.625,30.897-160.912-16.534-207.262
								c-54.037-52.806-99.386-4.995-133.465-48.702c-53.264-68.313-145.395-95.78-205.914-30.156
								c-59.73,64.769-1.828,200.872,157.442,314.834c104.029,93.96,103.919,120.822,90.793,185.714
								c-9.194,45.454-64.231,162.6-0.737,212.846s110.994,103.683,81.754,154.252
								C1151.064,2467.75,1233.341,2550.435,1233.341,2550.435z"/>
						</defs>
						<clipPath id="SVGID_00000007402938893189836660000011865182943996417458_">
							<use xlink:href="#SVGID_00000044150481094203554820000016580659743880489350_"  style="overflow:visible;"/>
						</clipPath>
						<g style="opacity:0.5;clip-path:url(#SVGID_00000007402938893189836660000011865182943996417458_);">
							<path style="fill:#FCFDFE;" d="M1306.238,2528.507l3.346-0.251c-1.21-18.489-2.677-37.117-4.359-55.367
								c-12.467-135.121-38.094-264.021-76.171-383.122c-32.266-100.918-73.899-196.229-123.746-283.284
								c-40.086-70.01-85.678-135.086-135.509-193.42c-35.031-41.007-71.778-78.286-109.224-110.795
								c-6.525-5.667-13.546-11.117-20.336-16.388c-9.047-7.022-18.403-14.283-26.653-22.114l-2.419,2.2
								c8.363,7.939,17.782,15.249,26.89,22.319c6.757,5.244,13.743,10.668,20.201,16.276
								c37.328,32.408,73.966,69.575,108.897,110.466c49.708,58.189,95.19,123.111,135.185,192.959
								c49.744,86.876,91.294,181.997,123.497,282.721c38.014,118.9,63.599,247.595,76.045,382.507
								C1303.565,2491.439,1305.03,2510.041,1306.238,2528.507z"/>
							<path style="fill:#FCFDFE;" d="M1158.212,1916.302l3.121-1.197c-52.754-123.329,16.074-344.435,16.776-346.654l-3.216-0.823
								C1174.187,1569.858,1105.036,1791.986,1158.212,1916.302z"/>
							<path style="fill:#FCFDFE;" d="M1272.946,2273.914l3.242-0.855c-25.204-87.904-195.155-161.862-196.869-162.599l-1.459,2.831
								C1079.56,2114.021,1248.137,2187.384,1272.946,2273.914z"/>
							<path style="fill:#FCFDFE;" d="M1282.577,2325.024l3.342-0.315c-5.203-59.379,21.935-143.567,76.416-237.052
								c2.739-4.701,2.739-4.701,2.697-5.29l-3.346,0.275l1.673-0.137l-1.588-0.452c-0.144,0.332-1.178,2.107-2.378,4.164
								C1304.601,2180.236,1277.321,2265.044,1282.577,2325.024z"/>
							<path style="fill:#FCFDFE;" d="M1303.515,2494.803l3.124-1.186c-25.686-60.774-125.788-88.407-126.795-88.68l-0.996,2.991
								C1179.841,2408.196,1278.416,2435.422,1303.515,2494.803z"/>
							<path style="fill:#FCFDFE;" d="M1311.281,2528.954c16.139-51.133,48.531-99.926,99.025-149.167l-2.408-2.124
								c-50.881,49.62-83.537,98.839-99.833,150.47L1311.281,2528.954z"/>
							<path style="fill:#FCFDFE;" d="M995.887,1649.842l3.045-1.357c-33.48-66.975-51.774-144.852-57.785-170.442
								c-1.455-6.195-1.975-8.374-2.299-9.101l-3.102,1.239c0.239,0.558,1.071,4.099,2.124,8.583
								C943.902,1504.436,962.255,1582.56,995.887,1649.842z"/>
							<path style="fill:#FCFDFE;" d="M1067.835,1750.943l2.499-2.122c-50.112-51.069-200.21-55.589-206.575-55.757l-0.16,3.112
								C865.142,1696.218,1018.659,1700.827,1067.835,1750.943z"/>
						</g>
					</g>
				</g>
				<g>
					
						<linearGradient id="SVGID_00000040558283704994002270000006468684220881673365_" gradientUnits="userSpaceOnUse" x1="963.5722" y1="481.1098" x2="1601.1978" y2="1530.8058" gradientTransform="matrix(0.9932 -0.1163 0.1163 0.9932 -262.1815 1394.2852)">
						<stop  offset="0.0036" style="stop-color:#E38DDD"/>
						<stop  offset="1" style="stop-color:#9571F6"/>
					</linearGradient>
					<path style="fill:url(#SVGID_00000040558283704994002270000006468684220881673365_);" d="M1308.635,2867.039
						c11.268-2.776-9.053-60.234,15.455-139.647c6.123-19.84,32.014-130.367,116.396-143.198c16.38-2.491,32.76-4.983,49.14-7.474
						c9.868-38.589,12.02-76.786-39.527-85.152c-80.051-12.99-95.119-142.334-78.451-190.649
						c20.628-59.799,65.676-199.9-57.696-221.841c-102.707-18.267-173.466-10.019-192.806-130.702
						c-19.339-120.685-97.096-188.343-212.742-167.591c-121.7,21.838-237.833-120.835-332.919-57.549
						c-165.68,110.277,19.953,359.609,240.471,412.462c220.516,52.854,105.928,139.567,110.308,239.659
						c0.933,9.269,3.095,23.566,8.849,39.957c35.43,100.912,145.678,106.223,232.886,182.101
						C1286.933,2700.897,1289.651,2871.717,1308.635,2867.039z"/>
					<g>
						<defs>
							<path id="SVGID_00000075880669019835438960000017032317336365497222_" d="M1216.847,2639.936l266.657-33
								c11.599-37.652,24.173-106.021-33.405-115.365c-80.052-12.992-95.119-142.335-78.452-190.65
								c20.629-59.799,65.676-199.9-57.697-221.842c-102.707-18.266-173.465-10.018-192.804-130.702
								c-19.34-120.684-97.098-188.342-212.743-167.59c-121.699,21.838-237.832-120.836-332.918-57.548
								c-165.681,110.276,19.952,359.607,240.469,412.461s105.93,139.566,110.309,239.66
								c5.979,136.649,196.856,85.12,253.479,132.495C1224.132,2544.993,1222.554,2603.544,1216.847,2639.936z"/>
						</defs>
						<clipPath id="SVGID_00000018226766582005590190000014491053746867730838_">
							<use xlink:href="#SVGID_00000075880669019835438960000017032317336365497222_"  style="overflow:visible;"/>
						</clipPath>
						<g style="opacity:0.5;clip-path:url(#SVGID_00000018226766582005590190000014491053746867730838_);">
							<path style="fill:#FCFDFE;" d="M1338.031,2584.695l5.554-1.757c-124.813-382.243-446.05-700.232-838.353-829.875
								l-2.036,5.215C893.846,1887.374,1213.737,2204.039,1338.031,2584.695z"/>
							<path style="fill:#FCFDFE;" d="M1251.022,2382.297l5.781-0.689c-16.578-157.237,112.692-296.799,114.001-298.19l-4.29-3.613
								C1365.189,2081.212,1234.184,2222.581,1251.022,2382.297z"/>
							<path style="fill:#FCFDFE;" d="M1313.035,2515.022l4.814-3.207c-94.748-130.738-402.805-114.021-405.906-113.837l0.212,5.506
								C915.222,2403.302,1220.088,2386.771,1313.035,2515.022z"/>
							<path style="fill:#FCFDFE;" d="M1009.798,2066.237l5.077-2.81c-65.394-109.661-4.227-297.743-3.603-299.63l-5.536-1.532
								C1005.102,1764.175,943.195,1954.551,1009.798,2066.237z"/>
							<path style="fill:#FCFDFE;" d="M805.931,1903.634l2.538-5.025c-137.633-59.951-334.09,5.74-336.061,6.414l1.834,5.187
								C476.187,1909.544,670.443,1844.615,805.931,1903.634z"/>
						</g>
					</g>
				</g>
			</g>
		</g>
		<g>
			<g>
				<path style="fill:#BFC8D6;" d="M2327.535,1401.555l12.227-26.932c4.583-10.096,1.865-22.218-6.087-27.103l-31.659-19.451
					c8.574-24.3,14.575-49.993,17.603-76.576l35.339-2.478c9.108-0.639,16.469-10.161,16.469-21.27v-29.543
					c0-11.109-7.361-19.694-16.469-19.173l-34.412,1.968c-2.371-26.796-7.837-52.343-15.97-76.18l29.1-21.583
					c0.931-0.691,1.776-1.488,2.561-2.344l3.725,9.68l47.799-58.777l-62.402-5.324c-2.739-3.545-6.419-5.677-10.318-6.14
					c-3.478-0.413-7.121,0.491-10.396,2.872l-28.744,20.89c-13.38-21.472-29.35-40.621-47.441-56.855l2.165-4.521l43.935,8.975
					l5.579-72.735l-66.722-11.011c-7.673-2.958-16.35,0.788-20.571,9.494l-16.583,34.2c-21.31-10.593-3.65-21.749-27.87-24.977
					l25.331-37.304c0-11.624-74.198-19.37-84.221-19.37h-26.831c-10.155,0-18.414,9.553-18.414,21.336v39.944
					c-25.06,3.829-49.223,11.805-71.941,23.353l45.828-33.672c0,0-80.721-15.292-89.904-9.224l-24.564,16.23
					c-9.29,6.138-12.48,19.571-7.107,29.969l18.58,35.953c-20.335,18.11-28.99,28.558-44.381,52.466l-43.158-9.743
					c-9.534-5.857-21.769-1.884-27.309,8.91l-14.786,28.803c-5.579,10.868-2.267,24.394,7.379,30.175l34.797,20.859
					c-9.648,26.799-16.165,55.318-19,84.919l-41.747,2.387c-11.238,0.642-20.378,11.215-20.378,23.613v32.97
					c0,11.241,7.524,19.998,17.304,20.951l-0.004,0.014l47.443,7.591c3.928,24.666,10.512,48.069,19.407,69.838l-37.82,27.485
					c-9.646,7.01-12.958,20.957-7.379,31.114l14.786,26.921c5.541,10.088,93.47,16.225,93.47,16.225l-27.918-39.156
					c15.277,20.512,33.044,38.29,52.756,52.809l-22.039,45.453c-5.373,11.082-2.183,24.109,7.107,29.065l24.564,13.103
					c1.552,0.828,3.178,1.351,4.83,1.634l-0.098,0.46l76.632,9.443l7.497-57.838c8.915,1.368,17.973,2.206,27.156,2.456v49.478
					c0,8.797,4.605,15.759,11.163,18.188l-0.335,1.445l75.921,9.478l1.519-93.809c13.895-5.277,27.288-11.821,40.079-19.499
					l20.24,39.166c2.514,4.865,6.611,7.75,11.132,8.473l-0.002,0.015l73.374,9.93l-25.13-69.157l-10.141,3.113l-16.721-32.79
					c17.581-17.459,33.23-37.391,46.541-59.211l32.745,19.629C2312.68,1416.067,2322.923,1411.714,2327.535,1401.555z
					 M2076.118,1376.214c-71.835,6.398-131.415-56.631-131.415-140.928c0-84.297,59.58-154.812,131.415-157.439
					c70.064-2.562,125.606,60.722,125.606,141.293C2201.724,1299.71,2146.182,1369.973,2076.118,1376.214z M2382.918,1214.351
					l49.707-23.528l-49.707-6.031V1214.351z M2321.904,1415.163l56.863,7.67l8.301-19.388l-47.107-28.634L2321.904,1415.163z"/>
				<path style="fill:#D8DEE8;" d="M2428.229,1189.954l-34.218,1.976c-2.357-26.719-7.792-52.191-15.88-75.956l28.935-21.534
					c7.907-5.885,10.61-18.318,6.053-27.802l-12.158-25.298c-4.586-9.542-14.77-12.578-22.762-6.75l-28.58,20.843
					c-13.304-21.405-29.183-40.492-47.171-56.672l16.444-34.447c4.718-9.883,1.919-22.395-6.266-27.977l-21.888-14.926
					c-8.275-5.643-18.894-2.18-23.701,7.766l-16.488,34.11c-21.188-10.553-44.087-17.749-68.244-20.959v-39.388
					c0-11.62-8.054-21.036-18.02-21.031l-26.677,0.012c-10.097,0.005-18.308,9.533-18.308,21.283v39.829
					c-24.917,3.829-48.941,11.793-71.528,23.318l-17.821-35.041c-5.237-10.298-16.87-13.766-26.001-7.711l-24.423,16.194
					c-9.236,6.125-12.408,19.521-7.066,29.886l18.472,35.841c-20.218,18.066-38.295,39.359-53.608,63.219l-33.426-20.582
					c-9.478-5.836-21.643-1.869-27.151,8.896l-14.7,28.726c-5.546,10.839-2.254,24.324,7.336,30.085l34.596,20.783
					c-9.592,26.726-16.072,55.165-18.891,84.681l-41.505,2.397c-11.172,0.646-20.26,11.191-20.26,23.553v32.874
					c0,12.361,9.088,21.739,20.26,20.949l42.607-3.014c3.597,28.471,10.7,55.367,20.794,80.14l-37.601,27.421
					c-9.589,6.993-12.882,20.901-7.336,31.027l14.7,26.837c5.509,10.057,17.673,12.461,27.151,5.407l38.022-28.298
					c15.189,20.447,32.853,38.167,52.451,52.636l-21.912,45.33c-5.342,11.052-2.171,24.04,7.066,28.978l24.422,13.056
					c9.131,4.881,20.764-0.082,26.001-11.053l21.723-45.503c21.447,7.756,44.14,12.161,67.627,12.792v49.336
					c0,11.75,8.211,20.223,18.308,18.93l26.677-3.416c9.966-1.276,18.02-11.727,18.02-23.346v-48.789
					c22.782-5.917,44.445-15.237,64.608-27.383l20.124,39.046c4.808,9.328,15.426,11.426,23.702,4.72l21.888-17.738
					c8.186-6.634,10.984-19.505,6.266-28.782l-19.529-38.398c17.48-17.416,33.041-37.297,46.277-59.06l32.559,19.56
					c7.991,4.801,18.176,0.456,22.762-9.675l12.158-26.861c4.557-10.069,1.854-22.155-6.053-27.024l-31.479-19.383
					c8.526-24.234,14.492-49.857,17.502-76.366l35.139-2.486c9.056-0.641,16.375-10.139,16.375-21.217v-29.46
					C2444.604,1197.988,2437.285,1189.431,2428.229,1189.954z M2150.978,1386.692c-71.423,6.408-130.66-56.415-130.66-140.469
					c0-84.054,59.237-154.391,130.66-157.042c69.663-2.586,124.888,60.494,124.888,140.835
					C2275.866,1310.357,2220.641,1380.441,2150.978,1386.692z"/>
			</g>
			<g>
				<path style="fill:#BFC8D6;" d="M1553.494,1228.682l16.358-36.033c6.132-13.507,2.495-29.725-8.144-36.261l-42.356-26.023
					c11.472-32.511,19.5-66.886,23.551-102.452l47.28-3.316c12.186-0.855,22.034-13.594,22.034-28.457v-39.526
					c0-14.863-9.848-26.349-22.034-25.652l-46.041,2.633c-3.172-35.85-10.485-70.03-21.367-101.922l38.933-28.876
					c1.246-0.925,2.377-1.991,3.426-3.136l4.984,12.951l63.95-78.638l-83.488-7.123c-3.664-4.743-8.589-7.596-13.804-8.215
					c-4.653-0.552-9.527,0.657-13.91,3.842l-38.456,27.948c-17.901-28.728-39.268-54.346-63.472-76.067l2.897-6.049l58.781,12.008
					l7.464-97.313l-89.268-14.732c-10.266-3.957-21.874,1.054-27.522,12.703l-22.186,45.757
					c-28.511-14.172-4.884-29.098-37.288-33.418l33.891-49.909c0-15.551-99.269-25.915-112.68-25.915h-35.897
					c-13.587,0-24.636,12.781-24.636,28.546v53.441c-33.528,5.123-65.855,15.794-96.251,31.245l61.313-45.05
					c0,0-107.997-20.459-120.283-12.341l-32.864,21.714c-12.43,8.213-16.697,26.185-9.509,40.096l24.858,48.102
					c-27.207,24.229-38.786,38.208-59.378,70.194l-57.742-13.036c-12.755-7.836-29.124-2.52-36.537,11.921l-19.782,38.536
					c-7.464,14.54-3.033,32.636,9.872,40.372l46.555,27.907c-12.908,35.855-21.627,74.01-25.421,113.614l-55.854,3.194
					c-15.035,0.859-27.264,15.005-27.264,31.591v44.111c0,15.04,10.066,26.755,23.151,28.03l-0.005,0.019l63.474,10.156
					c5.255,33.001,14.064,64.313,25.964,93.437l-50.6,36.773c-12.905,9.378-17.336,28.039-9.872,41.628l19.782,36.018
					c7.413,13.497,125.054,21.707,125.054,21.707l-37.351-52.388c20.44,27.444,44.209,51.229,70.582,70.653l-29.486,60.812
					c-7.189,14.826-2.921,32.256,9.508,38.886l32.865,17.53c2.076,1.107,4.252,1.808,6.463,2.186l-0.131,0.615l102.526,12.634
					l10.03-77.382c11.927,1.831,24.046,2.952,36.332,3.285v66.197c0,11.769,6.161,21.084,14.935,24.334l-0.448,1.934l101.576,12.681
					l2.033-125.508c18.59-7.061,36.509-15.815,53.622-26.088l27.079,52.4c3.363,6.509,8.845,10.368,14.894,11.336l-0.003,0.02
					l98.167,13.286l-33.622-92.525l-13.568,4.165l-22.371-43.87c23.521-23.358,44.458-50.026,62.268-79.218l43.81,26.262
					C1533.62,1248.097,1547.324,1242.273,1553.494,1228.682z M1217.122,1194.778c-96.108,8.56-175.821-75.767-175.821-188.549
					s79.713-207.123,175.821-210.639c93.739-3.428,168.049,81.24,168.049,189.037S1310.861,1186.429,1217.122,1194.778z
					 M1627.592,978.22l66.503-31.478l-66.503-8.069V978.22z M1545.96,1246.888l76.078,10.262l11.105-25.94l-63.025-38.31
					L1545.96,1246.888z"/>
				<path style="fill:#D8DEE8;" d="M1688.213,945.58l-45.78,2.644c-3.154-35.747-10.425-69.826-21.245-101.622l38.712-28.811
					c10.578-7.873,14.195-24.509,8.098-37.196l-16.266-33.847c-6.136-12.767-19.761-16.828-30.453-9.031l-38.238,27.886
					c-17.799-28.638-39.044-54.174-63.111-75.822l22.001-46.087c6.312-13.223,2.568-29.963-8.384-37.43l-29.284-19.969
					c-11.072-7.55-25.278-2.917-31.71,10.39l-22.059,45.636c-28.348-14.119-58.985-23.747-91.305-28.042v-52.697
					c0-15.546-10.775-28.144-24.109-28.138l-35.691,0.016c-13.509,0.006-24.495,12.755-24.495,28.475v53.287
					c-33.336,5.123-65.478,15.778-95.698,31.198l-23.843-46.881c-7.007-13.778-22.571-18.417-34.787-10.317l-32.675,21.666
					c-12.358,8.195-16.601,26.117-9.453,39.985l24.714,47.952c-27.05,24.17-51.235,52.658-71.722,84.581L986.71,755.87
					c-12.681-7.808-28.956-2.5-36.326,11.902l-19.667,38.432c-7.421,14.501-3.015,32.543,9.814,40.251l46.287,27.806
					c-12.833,35.757-21.503,73.805-25.274,113.295l-55.53,3.208c-14.948,0.864-27.106,14.973-27.106,31.511v43.982
					c0,16.538,12.159,29.085,27.106,28.028l57.005-4.033c4.812,38.091,14.315,74.076,27.82,107.22l-50.307,36.687
					c-12.83,9.356-17.235,27.964-9.814,41.511l19.667,35.906c7.37,13.455,23.645,16.672,36.326,7.234l50.87-37.86
					c20.321,27.357,43.954,51.063,70.175,70.422l-29.316,60.647c-7.147,14.786-2.904,32.163,9.453,38.77l32.675,17.467
					c12.216,6.53,27.78-0.109,34.787-14.788l29.063-60.879c28.694,10.377,59.055,16.271,90.478,17.114v66.007
					c0,15.72,10.986,27.057,24.495,25.327l35.691-4.57c13.334-1.707,24.109-15.69,24.109-31.235v-65.275
					c30.48-7.916,59.463-20.385,86.44-36.636l26.924,52.24c6.432,12.48,20.638,15.287,31.711,6.314l29.284-23.732
					c10.951-8.875,14.696-26.096,8.384-38.508l-26.128-51.372c23.387-23.3,44.206-49.9,61.914-79.017l43.561,26.169
					c10.692,6.423,24.317,0.611,30.453-12.945l16.266-35.937c6.097-13.472,2.48-29.641-8.098-36.155l-42.116-25.932
					c11.406-32.423,19.389-66.704,23.417-102.17l47.012-3.326c12.116-0.857,21.909-13.565,21.909-28.386v-39.414
					C1710.122,956.328,1700.33,944.88,1688.213,945.58z M1317.278,1208.796c-95.557,8.574-174.811-75.479-174.811-187.935
					c0-112.456,79.254-206.561,174.811-210.107c93.203-3.459,167.089,80.935,167.089,188.424S1410.481,1200.433,1317.278,1208.796z"
					/>
			</g>
		</g>
		<g>
			<g>
				<g>
					<g>
						<path style="fill:#BFC8D6;" d="M3325.822,3074.43l-2207.45-19.081v56.457c0,15.323,9.628,28.353,22.668,30.676
							l624.201,111.174c7.408,1.319,14.92,1.669,22.395,1.043l1514.198-126.756c13.518-1.131,23.988-14.202,23.988-29.946V3074.43z"
							/>
						<g>
							<path style="fill:#BFC8D6;" d="M2513.477,2983.955l-1403.013,103.282c-25.106,1.848-45.519-17.79-45.519-43.868V1998.585
								c0-26.078,20.413-47.219,45.519-47.219h1403.013c20.684,0,37.407,19.11,37.407,42.685v944.465
								C2550.884,2962.09,2534.161,2982.432,2513.477,2983.955z"/>
							<path style="fill:#FFFFFF;" d="M2535.848,2983.955l-1403.013,103.282c-25.107,1.848-45.519-17.79-45.519-43.868V1998.585
								c0-26.078,20.413-47.219,45.519-47.219h1403.013c20.684,0,37.407,19.11,37.407,42.685v944.465
								C2573.255,2962.09,2556.532,2982.432,2535.848,2983.955z"/>
							
								<linearGradient id="SVGID_00000147932604611584005830000008532720472867850880_" gradientUnits="userSpaceOnUse" x1="1890.5718" y1="2395.0828" x2="-457.3155" y2="5528.5034">
								<stop  offset="0" style="stop-color:#FFC444"/>
								<stop  offset="0.9964" style="stop-color:#F36F56"/>
							</linearGradient>
							<path style="fill:url(#SVGID_00000147932604611584005830000008532720472867850880_);" d="M2492.141,2917.369l-1306.76,89.714
								c-20.431,1.402-37.034-14.716-37.034-36.005v-914.709c0-21.289,16.603-38.62,37.034-38.708l1306.76-5.633
								c17.062-0.074,30.864,15.586,30.864,34.977v833.136C2523.004,2899.53,2509.203,2916.198,2492.141,2917.369z"/>
							<path style="fill:#FFFFFF;" d="M1883.892,1979.944c0,9.708-7.221,17.6-16.139,17.629
								c-8.928,0.029-16.174-7.836-16.174-17.566c0-9.73,7.245-17.622,16.174-17.629
								C1876.671,1962.371,1883.892,1970.235,1883.892,1979.944z"/>
							<path style="opacity:0.48;fill:#FFFFFF;" d="M1132.83,3087.237l1395.915-102.759l7.103-0.523
								c9.49-0.699,18.12-5.39,24.711-12.506c-100.452-5.497-162.844-41.145-203.092-77.979
								c-80.825-73.971-66.806-146.917-153.967-195.552c-108.713-60.662-194.194,16.204-276.69-59.636
								c-50.013-45.979-25.459-80.266-87-148.977c-68.161-76.102-112.538-50.521-181.04-119.013
								c-86.614-86.604-43.295-153.985-117.903-216.164c-90.51-75.433-188.121-5.615-274.28-77.957
								c-37.161-31.202-57.552-76.563-68.199-124.805h-65.552c-25.106,0-45.52,21.141-45.52,47.219v1044.784
								C1087.316,3069.445,1107.725,3089.081,1132.83,3087.237z"/>
						</g>
						
							<linearGradient id="SVGID_00000002341962323815022840000001997692139506755486_" gradientUnits="userSpaceOnUse" x1="1118.3718" y1="3090.7097" x2="3325.8223" y2="3090.7097">
							<stop  offset="0.494" style="stop-color:#EBEFF2"/>
							<stop  offset="1" style="stop-color:#FFFFFF"/>
						</linearGradient>
						<path style="fill:url(#SVGID_00000002341962323815022840000001997692139506755486_);" d="M2601.952,2978.226L1118.372,3086.94
							l646.869,115.211c7.408,1.319,14.92,1.67,22.395,1.044l1538.187-128.765l-700.27-95.465
							C2617.721,2977.897,2609.822,2977.65,2601.952,2978.226z"/>
						<polygon style="fill:#D8DEE8;" points="1334.849,3087.875 2569.974,2996.019 2952.235,3047.711 1727.75,3145.901 						"/>
					</g>
				</g>
			</g>
			<g>
				<defs>
					<path id="SVGID_00000029736912327395159630000010008111983502732201_" d="M2897.117,2088.454h-674.913
						c0,0,19.448-755.474,17.889-735.744c-1.557,19.729-970.386-628.933-1345.699-500.928
						c-375.312,128.004-759.352,981.126-209.477,1383.772c549.877,402.647,687.224-25.088,588.002,764.856l1181.575-80.47
						l483.364-627.624L2897.117,2088.454z"/>
				</defs>
				<clipPath id="SVGID_00000140011872006032286920000005886794248077950890_">
					<use xlink:href="#SVGID_00000029736912327395159630000010008111983502732201_"  style="overflow:visible;"/>
				</clipPath>
				<g style="clip-path:url(#SVGID_00000140011872006032286920000005886794248077950890_);">
					
						<linearGradient id="SVGID_00000140726377207826585840000011851109024901403800_" gradientUnits="userSpaceOnUse" x1="579.79" y1="724.8583" x2="508.1826" y2="1009.4032" gradientTransform="matrix(-0.3992 -0.9169 -0.9169 0.3992 3664.4155 2400.708)">
						<stop  offset="0" style="stop-color:#AB316D"/>
						<stop  offset="1" style="stop-color:#792D3D"/>
					</linearGradient>
					<path style="fill:url(#SVGID_00000140726377207826585840000011851109024901403800_);" d="M2643.497,2235.613
						c0,0,21.72-25.972,62.47-27.202c40.75-1.229,96.279-25.408,120.125-27.535c5.753-0.514,8.606-2.166,9.095-4.265
						c1.006-4.323-25.466-10.628-48.948-11.409c-41.637-1.386-65.923,14.591-71.538,6.378c-6.278-9.182,20.598-34.241,15.675-39.854
						c-3.816-4.35-22.088,9.617-41.647,18.134c-13.883,6.046-68.181,70.975-68.181,70.975L2643.497,2235.613z"/>
					
						<linearGradient id="SVGID_00000111158911345159381500000014178633896926434989_" gradientUnits="userSpaceOnUse" x1="-2734.1958" y1="643.8105" x2="-2024.1146" y2="643.8105" gradientTransform="matrix(-0.7576 -0.6528 -0.6528 0.7576 859.7039 356.3905)">
						<stop  offset="0" style="stop-color:#FF9085"/>
						<stop  offset="1" style="stop-color:#FB6FBB"/>
					</linearGradient>
					<path style="fill:url(#SVGID_00000111158911345159381500000014178633896926434989_);" d="M2644.823,2188.47
						c10.103,20.39,20.206,40.78,30.309,61.17c-9.992,54.902-30.359,135.976-75.903,224.824
						c-49.015,95.619-160.741,313.578-357.459,333.354c-150.027,15.083-275.89-92.336-323.534-133.439
						c-44.064-38.014-83.592-71.545-102.783-125.02c-30.273-84.355,0.291-188.358,73.614-286.299
						c36.097-48.216,111.209-37.833,132.547,18.492c33.663,88.86,90.431,150.58,155.651,162.639
						c73.333,13.56,154.999-36.116,189.757-57.215c51.688-31.375,64.865-55.507,129.153-105.213
						C2555.609,2235.811,2609.46,2206.091,2644.823,2188.47z"/>
					<g style="opacity:0.3;">
						
							<linearGradient id="SVGID_00000173882016634626627210000008762302109362711973_" gradientUnits="userSpaceOnUse" x1="-2734.1958" y1="651.5031" x2="-2022.8583" y2="651.5031" gradientTransform="matrix(-0.7576 -0.6528 -0.6528 0.7576 859.7039 356.3905)">
							<stop  offset="0" style="stop-color:#FF9085"/>
							<stop  offset="1" style="stop-color:#FB6FBB"/>
						</linearGradient>
						<path style="fill:url(#SVGID_00000173882016634626627210000008762302109362711973_);" d="M2047.611,2645.671
							c56.187-12.65,77.394-64.824,154.413-69.501c97.39-5.913,139.235,72.91,201.531,52.122
							c50.846-16.967,59.293-81.601,94.745-164.803c27.499-64.537,75.187-149.437,164.084-239.577
							c4.249,8.576,8.499,17.152,12.748,25.728c-9.992,54.902-30.359,135.976-75.903,224.824
							c-49.015,95.619-160.741,313.578-357.459,333.354c-150.027,15.083-275.89-92.336-323.534-133.439
							c-44.064-38.014-83.592-71.545-102.783-125.02c-5.311-14.799-8.734-30.208-10.398-46.078
							C1921.228,2635.917,1997.173,2657.027,2047.611,2645.671z"/>
					</g>
					
						<linearGradient id="SVGID_00000053547005033561538490000014671282721849103772_" gradientUnits="userSpaceOnUse" x1="-2544.8269" y1="2626.9653" x2="-1756.6207" y2="2626.9653" gradientTransform="matrix(-1 0 0 1 -421.0958 0)">
						<stop  offset="0" style="stop-color:#FF9085"/>
						<stop  offset="1" style="stop-color:#FB6FBB"/>
					</linearGradient>
					<path style="fill:url(#SVGID_00000053547005033561538490000014671282721849103772_);" d="M1335.779,3019.309
						c-1.188-58.111-4.304-378.758,150.937-609.338c35.585-52.854,98.542-146.366,219.418-208.238
						c47.119-24.118,89.614-36.557,118.793-43.324c34.473,5.125,68.947,10.25,103.42,15.374
						c32.996,30.067,77.818,77.222,117.395,143.949c25.06,42.251,66.532,112.173,76.137,202.433
						c11.194,105.19-30.616,146.651-64.957,310.473c-18.624,88.848-24.501,163.354-26.554,212.43
						c-119.259,10.248-238.518,20.498-357.777,30.746c-1.886-56.529-6.84-119.398-16.771-187.273
						c-10.277-70.244-24.132-133.867-39.132-190.069c-16.03,63.865-30.148,138.457-37.734,222.213
						c-5.251,57.968-6.604,111.837-5.59,160.721c-14.488,5.709-96.066,36.281-174.696-5.591
						C1367.959,3057.46,1347.84,3035.456,1335.779,3019.309z"/>
					
						<linearGradient id="SVGID_00000148653589174735447360000003710416485614587307_" gradientUnits="userSpaceOnUse" x1="-2442.6689" y1="1554.3333" x2="-932.0363" y2="1554.3333" gradientTransform="matrix(-1 0 0 1 -421.0958 0)">
						<stop  offset="0" style="stop-color:#311944"/>
						<stop  offset="1" style="stop-color:#6B3976"/>
					</linearGradient>
					<path style="fill:url(#SVGID_00000148653589174735447360000003710416485614587307_);" d="M1876.177,1967.651
						c79.627-64.89,119.44-97.335,134.27-138.796c32.403-90.595-11.223-193.198-63.353-252.335
						c-73.157-82.991-179.894-99.47-247.441-109.899c-86.792-13.4-92.301,7.029-132.748-10.402
						c-111.79-48.177-74.124-206.136-178.021-327.376c-114.635-133.772-320.44-128.128-372.41-124.655
						c-276.921,18.506-419.064,258.256-433.208,283.063c-131.054,229.838-68.656,507.142,64.872,666.822
						c38.181,45.659,135.86,162.468,248.927,150.865c108.879-11.173,139.583-131.935,290.984-151.736
						c21.153-2.767,85.252-11.149,155.576,15.958c79.419,30.613,91.809,77.592,176.512,107.114
						c68.68,23.938,128.37,16.694,140.305,15.086C1735.504,2081.247,1783.429,2043.233,1876.177,1967.651z"/>
					<g style="opacity:0.3;">
						
							<linearGradient id="SVGID_00000175320314103610959470000004054819112492562324_" gradientUnits="userSpaceOnUse" x1="-2442.6685" y1="1723.2196" x2="-932.0324" y2="1723.2196" gradientTransform="matrix(-1 0 0 1 -421.0958 0)">
							<stop  offset="0" style="stop-color:#311944"/>
							<stop  offset="1" style="stop-color:#6B3976"/>
						</linearGradient>
						<path style="fill:url(#SVGID_00000175320314103610959470000004054819112492562324_);" d="M556.571,1340.696
							c-28.357,257.467,0.206,350.23,46.983,369.097c65.45,26.398,150.909-98.139,253.188-63.937
							c91.994,30.763,79.85,150.575,164.318,176.884c106.77,33.255,178.64-141.834,306.252-130.85
							c151.884,13.073,171.034,271.509,340.141,317.124c51.219,13.816,121.706,9.526,218.527-49.357
							c-3.207,2.615-6.457,5.265-9.804,7.992c-92.748,75.582-140.673,113.596-215.736,123.709
							c-11.935,1.608-71.624,8.851-140.305-15.086c-84.703-29.522-97.093-76.502-176.512-107.114
							c-70.324-27.107-134.423-18.725-155.576-15.958c-151.401,19.801-182.105,140.563-290.984,151.736
							c-113.067,11.604-210.746-105.204-248.927-150.864C524.812,1806.594,462.176,1558.782,556.571,1340.696z"/>
					</g>
					
						<linearGradient id="SVGID_00000016775398265596442380000000255136879485161094_" gradientUnits="userSpaceOnUse" x1="-2225.1069" y1="2402.7112" x2="-2240.4512" y2="1907.8439" gradientTransform="matrix(-1 0 0 1 -421.0958 0)">
						<stop  offset="0" style="stop-color:#AB316D"/>
						<stop  offset="1" style="stop-color:#792D3D"/>
					</linearGradient>
					<path style="fill:url(#SVGID_00000016775398265596442380000000255136879485161094_);" d="M1911.264,2002.842
						c0,0,2.902,74.685,0,124.822c-2.124,36.703,29.615,57.609,29.615,57.609s17.427,29.864-76.82,34.854
						c-94.247,4.99-185.957,0-185.957,0s92.146-61.288,113.197-77.574c21.05-16.286,32.345-138.053,18.866-215.174
						L1911.264,2002.842z"/>
					
						<linearGradient id="SVGID_00000115487651439019115210000011946241274213042858_" gradientUnits="userSpaceOnUse" x1="-2327.7896" y1="2047.7051" x2="-2187.769" y2="1589.2808" gradientTransform="matrix(-1 0 0 1 -421.0958 0)">
						<stop  offset="0" style="stop-color:#AB316D"/>
						<stop  offset="1" style="stop-color:#792D3D"/>
					</linearGradient>
					<path style="fill:url(#SVGID_00000115487651439019115210000011946241274213042858_);" d="M1935.392,1761.845
						c0,0,47.966,115.653,47.713,185.532c-0.253,69.878-49.116,109.985-86.177,92.727s-92.9-89.932-92.9-89.932
						s-7.502,19.566-35.927,0c-28.425-19.566-49.536-129.436,5.741-98.26c0,0-8.749-30.797,4.879-75.465
						C1792.348,1731.781,1919.226,1683.565,1935.392,1761.845z"/>
					<g style="opacity:0.3;">
						
							<linearGradient id="SVGID_00000113318686346832044940000007835227890070246841_" gradientUnits="userSpaceOnUse" x1="-2544.8271" y1="2797.1931" x2="-1756.6201" y2="2797.1931" gradientTransform="matrix(-1 0 0 1 -421.0958 0)">
							<stop  offset="0" style="stop-color:#FF9085"/>
							<stop  offset="1" style="stop-color:#FB6FBB"/>
						</linearGradient>
						<path style="fill:url(#SVGID_00000113318686346832044940000007835227890070246841_);" d="M1537.024,2870.877
							c41.573-65.24-21.814-121.798,5.115-225.056c22.978-88.113,97.811-156.894,125.315-145.775
							c38.002,15.363-36.67,174.238,38.362,248.073c49.809,49.014,114.733,10.508,181.579,53.707
							c44.082,28.488,88.377,92.155,91.835,245.636c-102.213,8.784-204.425,17.568-306.638,26.352
							c-1.886-56.529-6.84-119.398-16.771-187.273c-10.277-70.244-24.133-133.867-39.132-190.07
							c-16.03,63.864-30.148,138.457-37.734,222.213c-5.25,57.968-6.604,111.837-5.59,160.72
							c-14.489,5.71-96.066,36.283-174.696-5.59c-4.39-2.339-8.54-4.802-12.505-7.336c2.012-33.856,10.695-72.536,35.773-106.091
							C1462.694,2905.857,1506.947,2918.075,1537.024,2870.877z"/>
					</g>
					<path style="fill:#FFFFFF;" d="M1856.26,2008.297c-67.136,0-92.422-96.202-92.688-97.251c-0.636-2.501,0.875-5.043,3.375-5.678
						c2.495-0.633,5.046,0.876,5.682,3.374c0.268,1.047,27.487,104.457,98.486,88.494c2.522-0.554,5.02,1.019,5.583,3.538
						c0.566,2.516-1.018,5.017-3.535,5.582C1867.256,2007.68,1861.622,2008.297,1856.26,2008.297z"/>
					
						<ellipse transform="matrix(0.9678 -0.2517 0.2517 0.9678 -442.1581 540.5125)" style="fill:#FFFFFF;" cx="1892.173" cy="1998.97" rx="24.144" ry="13.24"/>
					
						<ellipse transform="matrix(0.9678 -0.2517 0.2517 0.9678 -420.3246 503.8584)" style="fill:#FFFFFF;" cx="1759.791" cy="1895.288" rx="22.557" ry="36.111"/>
					<path style="fill:#FFFFFF;" d="M1748.4,1876.155c0,0-0.564-1.354-1.621-3.892c-0.996-2.523-2.392-6.23-4.003-10.99
						c-3.153-9.53-7.21-23.321-9.938-40.331c-2.793-16.952-4.128-37.266-1.219-58.755c1.433-10.727,4.087-21.71,8.232-32.348
						c4.105-10.645,9.678-20.926,16.51-30.293c6.75-9.455,15.148-17.574,23.886-24.788c2.242-1.741,4.474-3.476,6.696-5.203
						c2.342-1.547,4.675-3.085,6.991-4.616l3.47-2.277l3.594-2.007c2.392-1.322,4.767-2.635,7.122-3.938
						c2.544-1.359,4.805-2.297,7.209-3.439c2.531-0.956,5.021-2.053,7.518-2.847c4.975-1.635,9.931-3.003,14.85-3.831
						c9.805-1.795,19.338-2.071,27.958-1.278c2.079,0.116,4.213,0.432,6.313,0.783c2.092,0.313,4.134,0.624,6.05,1.156
						c1.929,0.501,3.839,0.858,5.635,1.449c1.79,0.618,3.527,1.217,5.21,1.8c1.712,0.5,3.213,1.408,4.744,2.063
						c1.493,0.741,3.003,1.317,4.323,2.125c2.601,1.678,5.128,3.014,7.149,4.598c1.996,1.618,3.777,3.063,5.327,4.32
						c1.45,1.362,2.563,2.652,3.524,3.632c1.886,1.999,2.892,3.064,2.892,3.064c0.942,0.999,0.896,2.573-0.102,3.514
						c-0.99,0.935-2.546,0.898-3.49-0.077l-0.233-0.239c0,0-0.942-0.973-2.71-2.798c-0.899-0.895-1.932-2.082-3.281-3.327
						c-1.442-1.142-3.098-2.456-4.953-3.926c-1.872-1.445-4.232-2.639-6.634-4.173c-1.222-0.737-2.636-1.247-4.023-1.92
						c-1.428-0.588-2.807-1.425-4.413-1.868c-1.573-0.524-3.195-1.067-4.864-1.624c-1.676-0.536-3.479-0.845-5.284-1.298
						c-1.811-0.487-3.685-0.746-5.602-1.013c-1.898-0.304-3.864-0.588-6.014-0.688c-8.23-0.67-17.185-0.311-26.44,1.479
						c-4.635,0.825-9.297,2.171-13.972,3.759c-2.347,0.771-4.561,1.79-6.886,2.676c-2.276,1.108-4.849,2.232-6.949,3.401
						c-2.26,1.281-4.538,2.573-6.832,3.874l-3.448,1.967l-3.308,2.227c-2.21,1.49-4.435,2.99-6.669,4.497
						c-2.107,1.673-4.224,3.357-6.349,5.044c-8.271,6.983-16.173,14.769-22.46,23.786c-6.371,8.932-11.53,18.69-15.314,28.806
						c-3.818,10.104-6.236,20.553-7.493,30.8c-2.563,20.52-1.101,40.061,1.774,56.417c2.802,16.406,6.876,29.742,10.013,38.904
						c1.602,4.575,2.979,8.117,3.949,10.501c1,2.334,1.533,3.58,1.533,3.58l0.074,0.172c0.948,2.214-0.078,4.78-2.294,5.729
						c-2.214,0.947-4.78-0.08-5.729-2.294L1748.4,1876.155z"/>
				</g>
			</g>
		</g>
		<g>
			<g>
				<g>
					
						<linearGradient id="SVGID_00000169519410901388488210000014837751862161590451_" gradientUnits="userSpaceOnUse" x1="2610.1462" y1="1495.5479" x2="2438.7793" y2="1403.5946">
						<stop  offset="0" style="stop-color:#FF9085"/>
						<stop  offset="1" style="stop-color:#FB6FBB"/>
					</linearGradient>
					<path style="fill:url(#SVGID_00000169519410901388488210000014837751862161590451_);" d="M3169.354,1194.961v585.152
						c0,34.721-27.886,63.847-62.607,64.139l-1015.784,11.256h-0.035l-5.532-7.363c-5.823-6.805-6.296-17.201-1.091-24.517
						l131.571-185.333c18.379-25.949,28.756-57.188,28.756-88.997v-385.602c0-23.365,12.188-43.636,30.968-54.482
						c10.009-5.823,21.469-8.953,33.916-8.407l16.103,0.618l783.375,30.354C3142.842,1133.236,3169.354,1161.113,3169.354,1194.961z
						"/>
					
						<linearGradient id="SVGID_00000158748540930979825670000015617719635709891515_" gradientUnits="userSpaceOnUse" x1="2090.7209" y1="1477.3339" x2="3197.5901" y2="1477.3339">
						<stop  offset="0" style="stop-color:#FF9085"/>
						<stop  offset="1" style="stop-color:#FB6FBB"/>
					</linearGradient>
					<path style="fill:url(#SVGID_00000158748540930979825670000015617719635709891515_);" d="M3197.59,1194.961v585.152
						c0,34.721-27.902,62.926-62.587,63.218l-1044.282,10.591l0.212-0.256l153.184-215.601
						c18.379-25.949,28.751-56.957,28.751-88.767v-385.602c0-14.302,4.274-27.477,12.317-38.031
						c9.717-12.811,23.993-21.764,40.552-24.239c3.895-0.581,7.812-0.8,11.924-0.618l799.588,30.973
						C3171.059,1133.236,3197.59,1161.113,3197.59,1194.961z"/>
				</g>
				<g>
					<path style="fill:#FFFFFF;" d="M2442.282,1560.436v-2.438l35.212-30.463c22.347-19.653,38.714-34.793,47.521-45.42
						c8.845-10.627,15.718-20.963,19.94-31.081c4.185-10.117,6.458-20.962,6.458-32.536c0-13.284-3.322-25.149-10.166-35.558
						c-6.877-10.408-16.472-18.562-28.883-24.456c-12.484-5.896-26.834-8.955-43.14-9.173c-12.409-0.181-23.607,0.839-33.653,3.094
						c-10.044,2.221-19.282,5.459-27.798,9.754c-8.516,4.295-19.25,11.647-32.244,22.128l30.246,34.829
						c10.446-8.189,20.455-14.485,30.026-18.889c9.536-4.404,19.399-6.55,29.518-6.405c9.644,0.071,17.361,2.657,23.111,7.641
						c5.786,5.024,8.662,12.592,8.662,22.711c0,6.769-1.312,13.321-3.931,19.617c-2.621,6.296-6.879,13.138-12.848,20.49
						c-5.932,7.387-19.152,20.635-38.588,39.78l-66.503,64.018v40.366h187.062v-47.756L2442.282,1560.436z"/>
					<path style="fill:#FFFFFF;" d="M2738.758,1512.941v-156.424l-49.696-0.656l-112.66,160.574v36.94l109.414,0.291v54.779h52.942
						v-54.633l28.236,0.073v-40.8L2738.758,1512.941z M2686.863,1440.449c-0.583,13.429-1.047,22.849-1.047,29.91v42.327
						l-61.479-0.291l47.072-68.16c6.042-8.845,11.332-19.322,15.627-26.381h1.42
						C2688.092,1417.854,2687.444,1427.02,2686.863,1440.449z"/>
					<path style="fill:#FFFFFF;" d="M2871.01,1358.264l-34.575,92.626l-59.214,157.555h47.786l31.446-84.62l61.835-164.177
						L2871.01,1358.264z"/>
					<path style="fill:#FFFFFF;" d="M2929.35,1359.392v43.782l121.85,2.878l-92.624,202.393h54.773l92.475-214.334v-32.391
						L2929.35,1359.392z"/>
				</g>
			</g>
			<g style="opacity:0.48;">
				<path style="fill:#FFFFFF;" d="M3197.59,1764.901v15.212c0,34.721-27.902,62.926-62.587,63.218l-1044.282,11.512l0.242,0.665
					h-0.035l-5.532-7.363c-5.823-6.805-6.296-17.201-1.091-24.517l131.571-185.333c18.379-25.949,28.756-57.188,28.756-88.997
					v-385.602c0-23.365,12.188-43.636,30.968-54.482c3.057,5.823,6.001,11.283,9.35,16.45c4.041,6.369,8.133,12.265,12.501,17.725
					c112.64,141.939,320.1,41.308,471.938,193.437c38.687,38.76,55.651,75.81,67.079,112.532
					c7.571,24.312,12.649,48.514,20.001,72.935c12.738,42.472,32.237,85.746,83.081,131.785
					c82.179,74.391,152.731,71.588,229.888,99.248C3178.755,1756.675,3190.531,1760.46,3197.59,1764.901z"/>
			</g>
		</g>
	</g>
</g>
</svg>
