<?xml version="1.0" encoding="utf-8"?>
<!-- Generator: Adobe Illustrator 27.5.0, SVG Export Plug-In . SVG Version: 6.00 Build 0)  -->
<svg version="1.1" xmlns="http://www.w3.org/2000/svg" xmlns:xlink="http://www.w3.org/1999/xlink" x="0px" y="0px"
	 viewBox="0 0 3710 3710" style="enable-background:new 0 0 3710 3710;" xml:space="preserve">
<g id="Background">
	<g>
		<g>
			<rect style="fill:#FFFFFF;" width="3710" height="3710"/>
		</g>
	</g>
</g>
<g id="Illustration">
	<g>
		<path style="fill:#F4F7FA;" d="M1950.511,427.969C1209.809,405.476,568.206,958.179,471.27,1683.394
			c-105.984,792.924,477.342,1506.365,1195.1,1620.632c892.771,142.131,1758.708-680.111,1680.956-1572.121
			C3288.747,1059.854,2703.449,450.833,1950.511,427.969z"/>
		<g>
			<g>
				<g>
					<defs>
						<path id="SVGID_1_" d="M2069.03,1989.568c167.869,34.419,386.033,51,607.313-14.221
							c56.471-16.644,405.324-119.466,392.626-294.738c-4.473-61.74-50.031-80.329-57.278-162.756
							c-8.588-97.67,49.878-134.088,103.16-243.202c31.793-65.108,124.837-255.646,35.188-388.967
							c-53.572-79.668-169.96-135.301-265.953-128.965c-140.802,9.293-210.135,150.084-323.829,390.615
							c-100.785,213.222-92.181,272.133-167.109,424.231C2337.537,1684.448,2242.083,1836.141,2069.03,1989.568z"/>
					</defs>
					
						<linearGradient id="SVGID_00000011030697655250885870000016973799059205925770_" gradientUnits="userSpaceOnUse" x1="3528.3779" y1="1052.1819" x2="2582.1931" y2="1447.6459">
						<stop  offset="0" style="stop-color:#AA80F9"/>
						<stop  offset="0.9964" style="stop-color:#6165D7"/>
					</linearGradient>
					
						<use xlink:href="#SVGID_1_"  style="overflow:visible;fill:url(#SVGID_00000011030697655250885870000016973799059205925770_);"/>
					<clipPath id="SVGID_00000050660960520895809300000013517125487469532812_">
						<use xlink:href="#SVGID_1_"  style="overflow:visible;"/>
					</clipPath>
					<g style="opacity:0.5;clip-path:url(#SVGID_00000050660960520895809300000013517125487469532812_);">
						<path style="fill:#FFFFFF;" d="M1807.679,2027.261c-155.894,0.004-312.916-40.963-467.73-122.141l3.333-6.358
							c175.454,92.003,353.705,131.995,529.79,118.892c630.246-46.923,968.876-785.904,1057.647-1011.274
							c50.423-128.019,67.181-277.455,49.799-444.157l7.136-0.743c17.504,167.857,0.596,318.429-50.255,447.533
							c-73.013,185.359-203.242,452.314-409.011,671.449c-198.03,210.89-418.331,326.746-654.784,344.35
							C1851.662,2026.447,1829.677,2027.261,1807.679,2027.261z"/>
						<path style="fill:#FFFFFF;" d="M2758.161,1368.473l-1.57-3.209c-0.372-0.755-37.325-76.877-59.876-186.432
							c-20.827-101.188-33.319-252.496,25.46-398.689l6.659,2.678c-58.113,144.533-45.719,294.341-25.089,394.563
							c19.761,95.997,50.588,165.954,57.763,181.483c396.365-193.738,438.702-496.34,442.217-584.663
							c0.105-2.667,0.147-3.622,0.252-4.267l7.087,1.139l-3.544-0.57l3.547,0.547c-0.063,0.477-0.098,1.639-0.168,3.437
							c-3.564,89.574-46.519,397.017-449.522,592.425L2758.161,1368.473z"/>
						<path style="fill:#FFFFFF;" d="M2791.476,1729.526c-73.974,0-161.837-13.787-263.546-51.823l-1.777-0.664l-0.452-1.845
							c-0.617-2.522-60.893-255.975,8.668-570.771l70.185-317.621l7.01,1.549l-70.185,317.621
							c-66.069,298.999-14.44,542.219-9.13,565.68c211.521,78.632,362.093,51.363,451.26,14.563
							c96.865-39.976,144.182-99.513,144.648-100.11l5.657,4.418c-0.477,0.61-48.706,61.417-147.162,102.159
							C2938.904,1712.443,2873.792,1729.526,2791.476,1729.526z"/>
					</g>
				</g>
			</g>
			<g>
				<g>
					<defs>
						<path id="SVGID_00000060736130931824911990000008198257732689765306_" d="M1553.39,2080.025
							c96.785-63.538,228.642-171.148,309.569-341.711c106.134-223.691,31.418-359.122,111.607-755.196
							c50.702-250.434,88.609-424.696,231.843-496.454c112.245-56.232,275.733-42.783,361.508,42.453
							c71.319,70.872,97.262,199.672,96.58,288.26c-0.556,72.199-18.827,121.504,15.168,165.519
							c34.743,44.982,83.093,31.382,116.86,66.101c68.479,70.408-9.689,250.419-22.323,279.512
							c-140.534,323.628-491.598,497.183-645.646,571.043C2001.185,1960.623,1807.171,2037.766,1553.39,2080.025z"/>
					</defs>
					
						<linearGradient id="SVGID_00000085240234325839825470000006406742596135894163_" gradientUnits="userSpaceOnUse" x1="1716.1563" y1="856.3092" x2="2361.9976" y2="1693.7744">
						<stop  offset="0.0036" style="stop-color:#E38DDD"/>
						<stop  offset="1" style="stop-color:#9571F6"/>
					</linearGradient>
					
						<use xlink:href="#SVGID_00000060736130931824911990000008198257732689765306_"  style="overflow:visible;fill:url(#SVGID_00000085240234325839825470000006406742596135894163_);"/>
					<clipPath id="SVGID_00000181782009751229351920000001707569092278082455_">
						<use xlink:href="#SVGID_00000060736130931824911990000008198257732689765306_"  style="overflow:visible;"/>
					</clipPath>
					<g style="opacity:0.5;clip-path:url(#SVGID_00000181782009751229351920000001707569092278082455_);">
						<path style="fill:#FFFFFF;" d="M1447.469,2125.945l-1.36-7.049c270.84-52.204,619.573-173.519,742.858-454.995
							c45.337-103.501,55.495-217.16,69.55-374.471c11.227-125.615,7.851-215.637,4.872-295.063
							c-3.891-103.806-6.965-185.799,24.787-298.447c32.229-114.316,90.787-223.324,174.052-323.995l5.531,4.574
							c-82.624,99.898-140.719,208.021-172.671,321.37c-31.45,111.559-28.394,193.055-24.524,296.228
							c2.986,79.639,6.368,169.904-4.893,295.943c-13.589,152.072-24.321,272.166-70.128,376.742
							c-58.576,133.734-173.971,244.254-342.983,328.492C1738.396,2052.175,1602.103,2096.139,1447.469,2125.945z"/>
						<path style="fill:#FFFFFF;" d="M2269.642,1201.431l-3.386-2.234c-0.757-0.503-76.792-51.383-144.344-150.486
							c-62.351-91.465-130.145-243.953-99.055-450.985l7.101,1.065c-30.746,204.732,36.26,355.472,97.885,445.877
							c58.751,86.19,123.765,135.327,139.04,146.219c106.707-212.178,251.432-331.65,354.336-394.593
							c112.245-68.658,200.519-86.798,201.398-86.974l1.406,7.038c-0.869,0.174-88.137,18.151-199.351,86.237
							c-102.606,62.819-247.177,182.375-353.221,395.206L2269.642,1201.431z"/>
						<path style="fill:#FFFFFF;" d="M2229.682,1539.875l-1.08-2.375c-0.603-1.327-61.348-134.168-148.308-255.419
							c-86.483-120.587-324.687-198.82-327.083-199.597l2.212-6.828c2.418,0.783,242.843,79.732,330.704,202.24
							c80.948,112.867,139.272,235.702,147.905,254.247c111.281-13.955,258.853-120.045,427.037-307.041
							c128.336-142.693,224.335-283.368,225.288-284.772l5.938,4.034c-0.957,1.409-97.233,142.488-225.891,285.538
							c-173.106,192.469-319.17,296.661-434.132,309.68L2229.682,1539.875z"/>
						<path style="fill:#FFFFFF;" d="M1940.816,1972.913c-22.723,0-35.527-0.654-35.923-0.675l-7.141-0.387l4.579-5.494
							c85.389-102.408,96.714-223.617,33.669-360.26c-47.202-102.301-120.743-175.256-121.48-175.98l5.033-5.121
							c0.745,0.732,75.109,74.473,122.882,177.916c43.644,94.5,73.367,233.495-30.003,362.431
							c28.843,0.885,142.037,2.352,288.606-21.733c156.397-25.702,383.869-86.595,579.369-230.725l379.677-279.918l4.262,5.776
							l-379.677,279.918c-196.708,145.02-425.425,206.24-582.653,232.062C2085.534,1969.853,1989.977,1972.913,1940.816,1972.913z"
							/>
					</g>
				</g>
			</g>
		</g>
		<g>
			<g>
				<g>
					<defs>
						<path id="SVGID_00000175287714670866286530000017224856508237130391_" d="M2061.153,2366.871
							c-113.999-20.214-277.609-67.095-419.248-191.913c-185.756-163.697-170.513-317.618-400.416-649.957
							c-145.366-210.135-248.931-355.319-408.855-364.767c-125.324-7.403-270.255,69.437-315.458,181.594
							c-37.585,93.256-10.625,221.847,24.942,302.984c28.987,66.127,65.224,104.229,51.344,158.083
							c-14.185,55.038-63.979,61.611-81.316,106.833c-35.158,91.709,107.672,226.297,130.756,248.049
							c256.783,241.965,647.84,262.987,818.531,270.102C1602.564,2433.763,1811.277,2428.131,2061.153,2366.871z"/>
					</defs>
					
						<linearGradient id="SVGID_00000157293313618275230950000013696775750478944151_" gradientUnits="userSpaceOnUse" x1="569.7882" y1="1255.9093" x2="1596.3683" y2="2587.0803">
						<stop  offset="0.0036" style="stop-color:#E38DDD"/>
						<stop  offset="1" style="stop-color:#9571F6"/>
					</linearGradient>
					
						<use xlink:href="#SVGID_00000175287714670866286530000017224856508237130391_"  style="overflow:visible;fill:url(#SVGID_00000157293313618275230950000013696775750478944151_);"/>
					<clipPath id="SVGID_00000131369550429947177040000002372130057841697717_">
						<use xlink:href="#SVGID_00000175287714670866286530000017224856508237130391_"  style="overflow:visible;"/>
					</clipPath>
					<g style="opacity:0.5;clip-path:url(#SVGID_00000131369550429947177040000002372130057841697717_);">
						<path style="fill:#FFFFFF;" d="M1821.594,2408.907c-23.389,0-46.321-0.64-68.784-1.921
							c-188.535-10.75-338.167-66.797-444.743-166.586c-83.344-78.038-140.574-184.171-213.031-318.541
							c-60.06-111.381-92.552-195.662-121.217-270.021c-37.139-96.337-66.474-172.429-139.373-262.543
							c-74.065-91.556-170.095-168.001-285.424-227.214l3.277-6.386c116.225,59.673,213.031,136.748,287.727,229.086
							c73.611,90.992,103.124,167.55,140.491,264.476c28.589,74.161,60.994,158.216,120.839,269.196
							c74.965,139.025,129.13,239.472,211.619,316.708c224.309,210.028,592.616,183.969,862.096,125.12l1.528,7.014
							C2049.881,2394.966,1930.805,2408.907,1821.594,2408.907z"/>
						<path style="fill:#FFFFFF;" d="M1056.439,1841.995l-3.093-2.622c-181.518-153.858-361.651-206.68-480.801-223.9
							c-128.979-18.643-216.004-0.755-216.864-0.571l-1.486-7.024c0.878-0.184,89.154-18.331,219.377,0.491
							c119.384,17.254,299.498,69.958,481.241,222.849c9.751-16.065,50.197-87.047,70.158-189.499
							c20.907-107.311,22.963-272.151-85.966-448.043l6.102-3.778c110.227,177.986,108.07,344.852,86.851,453.493
							c-22.991,117.713-72.792,194.455-73.292,195.217L1056.439,1841.995z"/>
						<path style="fill:#FFFFFF;" d="M1135.941,2149.695c-107.798,0-252.817-41.841-432.873-125.048
							c-174.65-80.71-318.76-172.38-320.195-173.297l3.862-6.05c1.432,0.915,145.194,92.359,319.416,172.864
							c228.268,105.478,405.69,144.755,513.446,113.691c0.62-20.448,5.766-156.329,35.637-291.97
							c32.421-147.23,222.216-314.607,224.13-316.28l4.725,5.405c-1.895,1.658-189.932,167.498-221.845,312.418
							c-32.097,145.749-35.513,291.75-35.543,293.209l-0.056,2.608l-2.497,0.754
							C1198.253,2145.799,1168.829,2149.695,1135.941,2149.695z"/>
						<path style="fill:#FFFFFF;" d="M1051.972,2549.76c-84.997,0-174.629-8.226-264.808-29.328l-459.303-107.476l1.637-6.989
							l459.303,107.476c236.501,55.341,469.546,21.579,623.404-16.49c144.177-35.67,247.624-81.667,273.782-93.857
							c-145.846-77.713-173.353-217.162-170.521-321.216c3.102-113.901,42.355-210.993,42.751-211.961l6.642,2.72
							c-0.391,0.957-39.197,97.003-42.221,209.628c-4.041,150.43,54.174,257.345,173.029,317.773l6.377,3.242l-6.411,3.174
							c-1.122,0.555-113.978,55.947-281.519,97.418C1318.058,2527.653,1191.259,2549.76,1051.972,2549.76z"/>
					</g>
				</g>
			</g>
			<g>
				<g>
					<defs>
						<path id="SVGID_00000029040747233586713740000002704838881253454509_" d="M1823.618,2418.375
							c-80.137,130.24-202.599,282.307-380.185,386.44c-45.32,26.575-325.288,190.742-431.566,75.429
							c-37.437-40.62-21.705-81.613-70.907-136.674c-58.3-65.242-117.703-49.447-221.238-81.425
							c-61.778-19.081-242.574-74.922-274.559-214.678c-19.112-83.514,15.779-193.216,78.532-251.801
							c92.044-85.931,225.992-45.049,451.926,27.891c200.282,64.659,233.355,106.239,378.076,150.386
							C1461.104,2406.709,1618.099,2437.256,1823.618,2418.375z"/>
					</defs>
					
						<linearGradient id="SVGID_00000140717945544948908890000004211242883086889625_" gradientUnits="userSpaceOnUse" x1="1961.3271" y1="2091.7302" x2="1108.8453" y2="2448.0305">
						<stop  offset="0" style="stop-color:#AA80F9"/>
						<stop  offset="0.9964" style="stop-color:#6165D7"/>
					</linearGradient>
					
						<use xlink:href="#SVGID_00000029040747233586713740000002704838881253454509_"  style="overflow:visible;fill:url(#SVGID_00000140717945544948908890000004211242883086889625_);"/>
					<clipPath id="SVGID_00000094586302259532516220000009292763133683749276_">
						<use xlink:href="#SVGID_00000029040747233586713740000002704838881253454509_"  style="overflow:visible;"/>
					</clipPath>
					<g style="opacity:0.5;clip-path:url(#SVGID_00000094586302259532516220000009292763133683749276_);">
						<path style="fill:#FFFFFF;" d="M1341.768,2528.831c-268.262,0-521.443-78.316-686.634-144.026
							c-115.108-45.788-223.45-126.787-322.016-240.749l5.429-4.697c97.804,113.083,205.213,193.419,319.24,238.776
							c200.797,79.876,888.231,310.854,1303.526-70.383c116.03-106.507,198.836-246.848,246.122-417.123l6.919,1.921
							c-47.654,171.588-131.154,313.063-248.187,420.492c-155.945,143.154-365.966,215.757-624.224,215.79
							C1341.894,2528.831,1341.817,2528.831,1341.768,2528.831z"/>
						<path style="fill:#FFFFFF;" d="M704.27,2546.833c-201.069,0-326.205-90.417-368.871-127.385
							c-1.195-1.036-1.965-1.716-2.319-1.971l4.043-5.93c0.394,0.264,1.395,1.107,2.976,2.478
							c59.559,51.599,282.001,208.687,649.713,69.45c-12.997-31.825-121.494-281.745-354.454-372.513l2.606-6.688
							c131.105,51.082,221.976,151.683,275.119,227.081c57.531,81.625,84.504,152.205,84.771,152.908l1.263,3.344l-3.339,1.278
							C885.687,2531.015,788.324,2546.833,704.27,2546.833z"/>
						<path style="fill:#FFFFFF;" d="M925.577,2868.208c-7.131,0-11.307-0.352-11.964-0.412l0.65-7.15
							c0.664,0.058,68.244,5.625,153.327-32.951c78.3-35.499,187.858-116.715,265.826-302.074
							c-12.679-18.729-139.291-200.117-373.375-339.279l-249.515-148.334l3.67-6.169l249.515,148.334
							c247.37,147.058,375.505,341.154,376.77,343.096l1.036,1.591l-0.731,1.752c-79.01,188.998-190.78,271.702-270.629,307.802
							C1003.735,2864.442,948.887,2868.208,925.577,2868.208z"/>
					</g>
				</g>
			</g>
		</g>
		<g>
			<path style="fill:#A5ACB7;" d="M944.155,3040.256c-81.097,2.481-144.61-58.07-144.61-137.851V1251.481
				c0-81.555,67.5-147.558,150.453-147.13l2054.011,10.6c0.755,0.004,1.29,0.009,2.041,0.028
				c67.576,1.652,122.133,62.15,122.133,134.871v1459.982c0,72.328-54.207,136.137-121.271,142.265L953.351,3039.689
				C950.22,3039.972,947.275,3040.16,944.155,3040.256z"/>
			<path style="fill:#BFC8D6;" d="M973.987,3039.343c-80.962,2.477-144.37-58.025-144.37-137.74V1252.058
				c0-81.487,67.388-147.436,150.203-147.01l2050.696,10.552c0.754,0.004,1.288,0.009,2.038,0.028
				c67.47,1.65,121.942,62.099,121.942,134.763v1458.842c0,72.271-54.123,136.03-121.082,142.151L983.167,3038.777
				C980.041,3039.06,977.101,3039.248,973.987,3039.343z"/>
			<path style="fill:#F4F7FA;" d="M3031.13,2813.824L980.377,2998.958c-59.733,5.392-108.423-38.686-108.423-98.482V1252.87
				c0-59.796,48.69-108.073,108.423-107.833l2050.752,8.27c47.646,0.192,86.082,43.315,86.082,96.319v1460.456
				C3117.211,2763.085,3078.775,2809.523,3031.13,2813.824z"/>
			<path style="fill:#D8DEE8;" d="M1492.074,2601.785l-330.885,23.805c-3.976,0.286-7.2-2.731-7.2-6.739v-79.686
				c0-4.008,3.224-7.473,7.2-7.74l330.885-22.206c3.84-0.258,6.952,2.725,6.952,6.661v78.275
				C1499.026,2598.094,1495.914,2601.509,1492.074,2601.785z"/>
			<path style="fill:#D8DEE8;" d="M2430.186,2701.68l-1268.998,102.963c-3.976,0.323-7.2-2.665-7.2-6.672v-79.686
				c0-4.008,3.224-7.502,7.2-7.806l1268.998-96.828c3.473-0.265,6.288,2.555,6.288,6.299v74.441
				C2436.474,2698.135,2433.659,2701.398,2430.186,2701.68z"/>
			<g>
				<path style="fill:#D8DEE8;" d="M1140.805,1559.706c-18.243,11.483-35.832,36.214-31.834,62.869
					c4.057,27.043,28.471,43.64,47.712,48.761c27.038,7.197,35.943-10.389,65.006-8.573c43.948,2.747,78.109,46.429,92.365,78.962
					c14.006,31.964,3.085,40.14,12.134,77.15c15.889,64.987,65.109,103.476,111.944,140.101
					c38.962,30.468,98.304,66.839,108.962,55.013c3.815-4.234,0.38-13.493-1.693-19.079c-8.226-22.168-27.01-26.645-52.633-46.753
					c-18.233-14.309-41.261-32.381-37.529-47.553c3.676-14.945,32.835-25.122,54.539-19.363
					c21.725,5.764,33.39,26.812,39.009,36.951c4.803,8.666,4.006,20.165,8.459,20.569c3.072,0.279,6.488-4.5,8.029-8.561
					c3.965-10.45-2.967-20.164-5.493-28.063c-5.817-18.193,7.966-38.497,21.672-58.687c22.913-33.753,36.325-34.415,71.698-73.876
					c23.64-26.372,35.465-39.915,36.759-58.644c2.219-32.114-24.473-55.343-28.95-59.239
					c-21.599-18.797-58.265-31.148-73.887-16.864c-14.022,12.82,0.74,36.268-15.747,54.81
					c-11.532,12.97-31.679,16.058-47.397,11.614c-22.214-6.281-34.988-27.435-36.271-46.821
					c-0.253-3.823-1.422-21.495,10.215-33.969c3.316-3.555,11.383-10.664,38.492-12.408c38.054-2.448,45.981,10.06,68.673,4.405
					c18.905-4.711,41.689-20.447,41.414-35.476c-0.322-17.6-31.997-18.779-68.374-57.816c-14.168-15.204-25.696-27.941-24.78-44.859
					c1.29-23.814,26.522-42.944,31.528-46.739c19.621-14.875,37.023-26.98,37.023-26.98c4.898-3.407,12.008-8.286,11.191-12.811
					c-0.538-2.978-4.36-4.977-11.191-6.839c-21.587-5.884-38.147-2.002-38.147-2.002c-25.717,6.029-33.914,18.894-65.431,36.559
					c-12.74,7.14-34.244,19.193-63.602,26.289c-33.533,8.106-45.07,1.966-61.733,14.738c-16.084,12.328-11.011,22.379-27.564,41.334
					c-17.348,19.864-38.56,26.75-71.575,37.466c-12.658,4.109-38.25,11.566-73.276,15.342
					C1170.537,1556.051,1159.958,1547.65,1140.805,1559.706z"/>
				<path style="fill:#D8DEE8;" d="M1687.687,1395.37c-34.812,9.803-65.121,18.337-71.437,39.957
					c-3.284,11.241-0.231,26.554,8.959,34.571c18.266,15.934,45.813-10,65.814,3.756c10.691,7.353,6.644,17.396,18.879,72.235
					c8.159,36.572,14.858,54.051,27.695,69.609c7.274,8.817,17.472,21.178,27.614,18.93c15.012-3.327,9.328-34.145,33.03-56.831
					c8.313-7.957,9.83-4.94,49.329-24.91c23.021-11.64,34.562-17.546,37.1-22.307c12.971-24.335-21.49-53.1-7.626-81.982
					c2.614-5.445,2.974-2.612,20.685-25.308c20.34-26.064,20.087-30.094,19.555-32.069c-2.258-8.385-17.382-8.872-56.603-13.193
					c-65.24-7.186-70.534-11.017-89.957-6.146c-12.897,3.235-16.333,6.368-44.195,14.14
					C1704.753,1391.896,1702.319,1391.25,1687.687,1395.37z"/>
				<path style="fill:#D8DEE8;" d="M1599.429,2011.824c-19.323,15.268-23.167,40.588-24.725,50.849
					c-3.855,25.391,3.367,41.594,16.865,82.615c16.389,49.808,24.573,74.679,25.801,88.933
					c1.907,22.121-2.067,26.192-17.941,114.364c-11.813,65.612-13.076,82.582-2.245,93.881c15.923,16.61,50.137,12.791,51.503,8.248
					c0.665-2.212-6.716-3.69-12.29-10.757c-12.417-15.74-3.474-43.45-1.118-50.752c9.295-28.804,27.049-41.85,55.745-71.366
					c33.828-34.797,55.838-57.436,71.981-90.202c8.02-16.278,25.108-52.103,19.837-97.327c-1.062-9.113-5.506-39.845-27.562-69.838
					c-28.658-38.972-67.378-49.959-78.718-52.99C1654.477,2001.579,1623.03,1993.176,1599.429,2011.824z"/>
				<path style="fill:#D8DEE8;" d="M1927.044,1840.183c-12.397,24.83-26.114,52.305-31.492,77.366
					c-4.815,22.437-9.414,73.094,15.216,91.642c22.265,16.767,47.922-8.197,78.943,10.293c15.81,9.424,22.774,24.04,31.177,41.673
					c18.052,37.885,9.443,59.614,17.156,108.896c3.625,23.159,15.136,96.71,43.819,100.414
					c23.896,3.085,49.882-43.621,54.219-51.416c11.518-20.702,15.953-41.859,24.348-83.299c11.315-55.854,7.107-63.417,19.01-79.477
					c15.311-20.656,33.842-23.736,37.904-43.137c2.985-14.254-4.134-26.694-8.41-34.366c-15.802-28.357-37.849-24.324-52.735-51.765
					c-8.562-15.783-10.878-34.832-7.407-36.806c3.103-1.764,11.698,9.626,15.865,15.149c12.797,16.96,11.231,23.328,19.002,31.83
					c15.704,17.182,42.198,13.172,44.186,12.841c12.141-2.023,33.987-10.086,36.66-24.898c2.058-11.405-7.905-23.143-19.883-37.255
					c-9.67-11.393-16.905-16.176-15.728-18.455c1.193-2.31,9.792,0.337,32.474,7.798c24.6,8.092,36.876,12.13,38.61,13.119
					c8.266,4.715,15.305,11.237,38.448,50.883c23.426,40.132,31.943,60.407,37.254,58.484c2.643-0.957,2.185-6.574,4.13-25.701
					c2.909-28.607,4.502-43.123,11.348-53.704c5.773-8.923,18.118-21.18,30.877-20.001c7.652,0.707,16.837,12.955,34.868,37.386
					c17.755,24.057,23.739,32.231,35.755,38.303c6.304,3.186,17.591,8.89,26.47,3.309c9.853-6.194,13.233-24.085,9.145-36.707
					c-4.948-15.276-18.698-16.238-18.299-25.719c0.569-13.522,29.011-23.46,31.491-24.303c18.326-6.228,23.012-0.122,32.393-6.686
					c13.92-9.74,19.651-34.432,16.153-53.249c-3.603-19.381-15.813-26.16-12.112-34.721c3.112-7.199,12.884-5.024,32.262-10.887
					c14.377-4.35,35.589-10.768,47.177-28.796c6.896-10.729,8.113-22.036,10.006-39.622c0.315-2.926,1.683-16.446,0-34.955
					c-2.331-25.63-7.463-27.292-5.001-34.837c5.4-16.552,31.404-12.626,80.682-29.098c28.145-9.408,48.444-20.316,50.43-16.3
					c2.49,5.039-30.38,20.403-32.598,47.418c-1.681,20.47,14.82,40.683,21.746,38.553c5.72-1.759,1.59-17.743,11.839-41.524
					c3.772-8.754,9.495-22.031,21.664-30.847c14.593-10.571,23.195-3.661,36.316-14.854c10.492-8.949,7.848-15.813,16.636-25.195
					c19.903-21.25,53.401-7.345,55.554-15.1c1.99-7.167-23.834-29.066-57.51-33.47c-29.989-3.922-34.611,10.134-68.718,10.935
					c-19.395,0.456-42.912-7.5-90.132-23.475c-26.716-9.039-40.65-15.293-64.94-16.445c-16.927-0.803-17.434,1.885-35.163,0.537
					c-20.129-1.53-45.094-3.427-64.654-21.009c-15.357-13.803-10.666-22.24-23.348-30.508c-20.49-13.358-48.572-1.681-72.458,8.636
					c-25.4,10.972-43.45,24.134-74.073,46.465c-35.664,26.008-47.624,38.838-67.391,36.687c-14.78-1.608-17.805-9.829-34.405-9.454
					c-13.439,0.304-17.656,5.826-45.024,18.657c-26.5,12.424-40.014,18.609-51.577,16.622
					c-17.924-3.079-18.615-16.264-38.078-24.036c-20.776-8.295-40.615-1.525-64.88,6.757c-30.003,10.24-59.562,20.328-73.94,47.745
					c-15.239,29.06-1.107,54.065-18.307,67.278c-14.281,10.971-28.917-2.468-42.136,8.95c-15.896,13.729-11.163,47.31-8.667,65.028
					c4.918,34.898,17.135,43.159,12.997,67.828C1940.377,1816.518,1937.129,1819.984,1927.044,1840.183z"/>
				<path style="fill:#D8DEE8;" d="M2217.345,2121.748c-7.403-0.455-19.798,31.622-16.827,61.338
					c0.177,1.768,2.619,24.808,9.469,25.271c6.363,0.43,12.985-18.868,13.66-20.877c1.111-3.303,4.448-14.073,3.149-31.5
					C2226.433,2151.107,2224.278,2122.174,2217.345,2121.748z"/>
				<path style="fill:#D8DEE8;" d="M2481.438,2037.145c-0.538,1.396,1.539,3.644,7.32,8.347
					c15.265,12.417,22.888,18.618,35.453,22.77c10.847,3.584,37.804,9.761,43.583-0.932c3.705-6.855-1.617-20.029-10.117-25.904
					c-9.061-6.264-15.877-0.188-37.531-0.506C2497.683,2040.589,2482.754,2033.732,2481.438,2037.145z"/>
				<path style="fill:#D8DEE8;" d="M2557.678,1976.584c-4.471,0.953-3.331,10.416-12.156,31.299
					c-4.119,9.747-6.354,12.388-5.07,15.62c2.833,7.128,19.885,9.871,28.353,0.945c7.903-8.331,4.299-22.581,3.032-27.588
					C2569.442,1987.386,2562.913,1975.468,2557.678,1976.584z"/>
				<path style="fill:#D8DEE8;" d="M2648.324,2052.637c3.357,5.144,9.055,11.441,23.02,17.506c4.87,2.115,40.808,17.723,49.84,4.188
					c3.678-5.511,1.875-14.313-0.994-19.557c-4.441-8.117-12.556-9.752-25.885-12.979c-39.745-9.624-48.751-14.736-51.995-9.663
					C2638.663,2037.832,2646.49,2049.827,2648.324,2052.637z"/>
				<path style="fill:#D8DEE8;" d="M2580.929,1937.201c-4.767,1.784-4.462,25.347,4.038,43.735
					c4.419,9.561,12.465,20.773,16.133,19.058c3.965-1.854,1.951-18.418-1.008-29.56
					C2595.696,1953.872,2585.545,1935.474,2580.929,1937.201z"/>
				<path style="fill:#D8DEE8;" d="M2619.215,1825.067c0.075-5.512,12.67-4.602,29.109-16.279
					c11.415-8.108,28.131-24.734,37.003-47.035c1.798-4.519,3.649-10.214,4.989-9.968c2.021,0.371,2.27,14.153,0,26.183
					c-4.195,22.229-17.752,42.478-34.979,52.453c-6.76,3.915-11.811,4.93-16.036,4.917
					C2629.905,1835.309,2619.145,1830.176,2619.215,1825.067z"/>
				<path style="fill:#D8DEE8;" d="M2584.967,2147.731c-22.078,21.801-34.143,18.63-37.418,30.504
					c-3.712,13.455,11.452,18.684,14.176,45.401c1.693,16.605-2.973,26.258,1.012,28.51c6.038,3.412,16.005-19.19,39.37-28.55
					c1.812-0.726,26.265-10.115,46.217,1.813c11.581,6.924,10.123,14.145,29.015,31.137c12.082,10.867,18.357,16.342,25.934,14.862
					c12.489-2.439,19.541-22.025,23.873-34.055c3.585-9.957,11.8-32.769,5.958-59.107c-2.53-11.407-4.394-8.596-38.8-60.103
					c-9.52-14.252-13.343-20.403-21.961-24.023c-17.604-7.394-36.914,3.452-40.068,5.224c-6.919,3.886-12.986,10.301-25.133,23.141
					C2592.781,2137.668,2593.675,2139.134,2584.967,2147.731z"/>
			</g>
		</g>
		<g>
			
				<linearGradient id="SVGID_00000012446503747922326020000000327620067360240520_" gradientUnits="userSpaceOnUse" x1="1065.9347" y1="1335.1852" x2="419.0452" y2="1542.7915">
				<stop  offset="0" style="stop-color:#FCB148"/>
				<stop  offset="0.0521" style="stop-color:#FDBA46"/>
				<stop  offset="0.1424" style="stop-color:#FFC244"/>
				<stop  offset="0.3183" style="stop-color:#FFC444"/>
				<stop  offset="0.4849" style="stop-color:#FDB946"/>
				<stop  offset="0.7754" style="stop-color:#F99C4D"/>
				<stop  offset="0.8658" style="stop-color:#F8924F"/>
				<stop  offset="1" style="stop-color:#F8924F"/>
			</linearGradient>
			<path style="fill:url(#SVGID_00000012446503747922326020000000327620067360240520_);" d="M1810.642,1311.713
				c0,300.1-234.66,536.174-534.582,526.964c-312.13-9.585-574.641-279.156-574.641-601.745
				c0-322.588,262.512-556.763,574.641-524.262C1575.982,743.899,1810.642,1011.612,1810.642,1311.713z"/>
			
				<linearGradient id="SVGID_00000121244910237379355780000010067101594836710556_" gradientUnits="userSpaceOnUse" x1="1589.2306" y1="691.2715" x2="1011.7274" y2="1965.3512">
				<stop  offset="0" style="stop-color:#FFDB44"/>
				<stop  offset="1" style="stop-color:#FEEF06"/>
			</linearGradient>
			<path style="fill:url(#SVGID_00000121244910237379355780000010067101594836710556_);" d="M1891.687,1285.837
				c0,300.1-234.661,536.173-534.582,526.963c-312.13-9.585-574.642-279.155-574.642-601.744
				c0-322.589,262.512-556.764,574.642-524.262C1657.026,718.023,1891.687,985.737,1891.687,1285.837z"/>
			
				<linearGradient id="SVGID_00000135661858273619262600000017575703199606478481_" gradientUnits="userSpaceOnUse" x1="1482.9987" y1="2036.5603" x2="1371.5682" y2="1427.8197">
				<stop  offset="0" style="stop-color:#FCB148"/>
				<stop  offset="0.0521" style="stop-color:#FDBA46"/>
				<stop  offset="0.1424" style="stop-color:#FFC244"/>
				<stop  offset="0.3183" style="stop-color:#FFC444"/>
				<stop  offset="0.4849" style="stop-color:#FDB946"/>
				<stop  offset="0.7754" style="stop-color:#F99C4D"/>
				<stop  offset="0.8658" style="stop-color:#F8924F"/>
				<stop  offset="1" style="stop-color:#F8924F"/>
			</linearGradient>
			<path style="fill:url(#SVGID_00000135661858273619262600000017575703199606478481_);" d="M1868.146,1284.249
				c0,286.885-224.526,512.181-511.041,502.904c-297.635-9.638-547.531-266.901-547.531-574.27s249.895-530.937,547.531-500.443
				C1643.62,741.795,1868.146,997.364,1868.146,1284.249z"/>
			
				<linearGradient id="SVGID_00000098188920104057823320000002524062034322208656_" gradientUnits="userSpaceOnUse" x1="1246.7449" y1="1051.2463" x2="1705.9646" y2="2026.0822">
				<stop  offset="0" style="stop-color:#FCB148"/>
				<stop  offset="0.0521" style="stop-color:#FDBA46"/>
				<stop  offset="0.1424" style="stop-color:#FFC244"/>
				<stop  offset="0.3183" style="stop-color:#FFC444"/>
				<stop  offset="0.4849" style="stop-color:#FDB946"/>
				<stop  offset="0.7754" style="stop-color:#F99C4D"/>
				<stop  offset="0.8658" style="stop-color:#F8924F"/>
				<stop  offset="1" style="stop-color:#F8924F"/>
			</linearGradient>
			<path style="fill:url(#SVGID_00000098188920104057823320000002524062034322208656_);" d="M1851.286,1283.113
				c0,277.42-217.257,495.019-494.181,485.721c-287.299-9.646-528.222-258.12-528.222-554.649s240.923-512.518,528.222-483.427
				C1634.029,758.801,1851.286,1005.693,1851.286,1283.113z"/>
			<g>
				
					<linearGradient id="SVGID_00000073000534984074511760000014502009831710993081_" gradientUnits="userSpaceOnUse" x1="1228.4492" y1="841.4744" x2="1459.3606" y2="1706.8896">
					<stop  offset="0" style="stop-color:#FFDB44"/>
					<stop  offset="1" style="stop-color:#FEEF06"/>
				</linearGradient>
				<path style="fill:url(#SVGID_00000073000534984074511760000014502009831710993081_);" d="M1354.269,825.138L1354.269,825.138
					c14.737,1.401,26.664,14.667,26.664,29.633v51.077c29.466,3.29,58.974,8.413,88.524,15.357
					c21.788,5.121,43.429,11.216,64.925,18.283c12.88,4.235,21.657,17.239,20.343,30.652l-6.273,64.049
					c-1.665,16.993-18.462,26.972-34.276,19.921c-14.159-6.314-28.677-11.723-43.555-16.225
					c-25.963-7.856-53.343-12.977-82.155-15.352l-7.533-0.62v146.279c76.873,21.507,133.329,50.441,169.814,86.834
					c36.309,36.218,54.399,81.357,54.399,135.546c0,58.601-20.001,105.524-60.16,140.914c-40.374,35.578-96.98,55.588-170.18,59.92
					v56.375c0,14.972-11.936,26.635-26.686,26.048l-0.473-0.019c-14.779-0.588-26.78-13.244-26.78-28.268v-55.612l-11.879-0.536
					c-34.315-1.548-67.185-5.049-98.59-10.511c-23.258-4.046-45.969-9.268-68.13-15.67c-13.402-3.871-22.603-16.638-21.373-30.354
					l7.381-82.334c1.595-17.799,19.474-28.156,36.399-21.48c19.728,7.782,39.702,14.337,59.919,19.669
					c31.506,8.309,63.441,13.638,95.799,16.005l0.475-162.716c-73.79-18.259-129.035-45.303-165.331-81.124
					c-36.466-35.991-54.763-82.05-54.763-138.051c0-57.954,19.84-102.689,59.37-134.085c39.33-31.237,95.239-46.777,167.369-46.738
					v-52.219C1327.512,834.768,1339.503,823.734,1354.269,825.138z M1327.512,1020.398c-22.805,1.659-40.589,7.922-53.317,18.797
					c-12.749,10.894-19.131,25.535-19.131,43.91c0,17.407,5.904,31.958,17.698,43.638c11.776,11.662,30.042,20.973,54.75,27.931
					V1020.398z M1374.806,1315.043v149.216c24.791,0.049,43.801-5.87,57.072-17.74c13.248-11.85,19.863-28.588,19.863-50.229
					c0-19.732-6.148-36.097-18.459-49.11C1420.951,1334.145,1401.477,1323.435,1374.806,1315.043z"/>
			</g>
			
				<linearGradient id="SVGID_00000082361225816014109550000008633421207834244270_" gradientUnits="userSpaceOnUse" x1="1111.6439" y1="1114.3329" x2="1569.937" y2="2087.2019">
				<stop  offset="0" style="stop-color:#FCB148"/>
				<stop  offset="0.0521" style="stop-color:#FDBA46"/>
				<stop  offset="0.1424" style="stop-color:#FFC244"/>
				<stop  offset="0.3183" style="stop-color:#FFC444"/>
				<stop  offset="0.4849" style="stop-color:#FDB946"/>
				<stop  offset="0.7754" style="stop-color:#F99C4D"/>
				<stop  offset="0.8658" style="stop-color:#F8924F"/>
				<stop  offset="1" style="stop-color:#F8924F"/>
			</linearGradient>
			<path style="opacity:0.3;fill:url(#SVGID_00000082361225816014109550000008633421207834244270_);" d="M1267.677,1351.048
				c16.696-164.906,168.252-234.717,148.475-386.405c-12.191-93.492-83.052-172.282-162.1-233.8
				c-239.765,25.145-425.169,223.677-425.169,483.344c0,296.53,240.923,545.003,528.222,554.649
				c27.895,0.936,55.138-0.514,81.629-3.986C1324.635,1651.312,1253.333,1492.723,1267.677,1351.048z"/>
		</g>
		<g>
			
				<linearGradient id="SVGID_00000078727816710683203230000016585353687730207879_" gradientUnits="userSpaceOnUse" x1="2399.6118" y1="2554.0774" x2="1752.7224" y2="2761.6836">
				<stop  offset="0" style="stop-color:#FCB148"/>
				<stop  offset="0.0521" style="stop-color:#FDBA46"/>
				<stop  offset="0.1424" style="stop-color:#FFC244"/>
				<stop  offset="0.3183" style="stop-color:#FFC444"/>
				<stop  offset="0.4849" style="stop-color:#FDB946"/>
				<stop  offset="0.7754" style="stop-color:#F99C4D"/>
				<stop  offset="0.8658" style="stop-color:#F8924F"/>
				<stop  offset="1" style="stop-color:#F8924F"/>
			</linearGradient>
			<path style="fill:url(#SVGID_00000078727816710683203230000016585353687730207879_);" d="M3144.319,2530.605
				c0,300.1-234.66,536.174-534.582,526.964c-312.13-9.585-574.641-279.156-574.641-601.745
				c0-322.588,262.512-556.763,574.641-524.262C2909.659,1962.792,3144.319,2230.505,3144.319,2530.605z"/>
			
				<linearGradient id="SVGID_00000077319175922554227680000000919005340916858775_" gradientUnits="userSpaceOnUse" x1="2922.9077" y1="1910.1637" x2="2345.4045" y2="3184.2434">
				<stop  offset="0" style="stop-color:#FFDB44"/>
				<stop  offset="1" style="stop-color:#FEEF06"/>
			</linearGradient>
			<path style="fill:url(#SVGID_00000077319175922554227680000000919005340916858775_);" d="M3225.364,2504.729
				c0,300.1-234.661,536.173-534.582,526.963c-312.13-9.585-574.642-279.156-574.642-601.744
				c0-322.589,262.512-556.764,574.642-524.262C2990.704,1936.915,3225.364,2204.629,3225.364,2504.729z"/>
			
				<linearGradient id="SVGID_00000131363216096177058010000013066304281432422554_" gradientUnits="userSpaceOnUse" x1="2816.6758" y1="3255.4526" x2="2705.2454" y2="2646.7119">
				<stop  offset="0" style="stop-color:#FCB148"/>
				<stop  offset="0.0521" style="stop-color:#FDBA46"/>
				<stop  offset="0.1424" style="stop-color:#FFC244"/>
				<stop  offset="0.3183" style="stop-color:#FFC444"/>
				<stop  offset="0.4849" style="stop-color:#FDB946"/>
				<stop  offset="0.7754" style="stop-color:#F99C4D"/>
				<stop  offset="0.8658" style="stop-color:#F8924F"/>
				<stop  offset="1" style="stop-color:#F8924F"/>
			</linearGradient>
			<path style="fill:url(#SVGID_00000131363216096177058010000013066304281432422554_);" d="M3201.823,2503.141
				c0,286.885-224.527,512.181-511.041,502.904c-297.635-9.638-547.531-266.9-547.531-574.27s249.895-530.937,547.531-500.443
				C2977.297,1960.687,3201.823,2216.257,3201.823,2503.141z"/>
			
				<linearGradient id="SVGID_00000092437433403362279840000008660410972079250869_" gradientUnits="userSpaceOnUse" x1="2580.4221" y1="2270.1387" x2="3039.6418" y2="3244.9744">
				<stop  offset="0" style="stop-color:#FCB148"/>
				<stop  offset="0.0521" style="stop-color:#FDBA46"/>
				<stop  offset="0.1424" style="stop-color:#FFC244"/>
				<stop  offset="0.3183" style="stop-color:#FFC444"/>
				<stop  offset="0.4849" style="stop-color:#FDB946"/>
				<stop  offset="0.7754" style="stop-color:#F99C4D"/>
				<stop  offset="0.8658" style="stop-color:#F8924F"/>
				<stop  offset="1" style="stop-color:#F8924F"/>
			</linearGradient>
			<path style="fill:url(#SVGID_00000092437433403362279840000008660410972079250869_);" d="M3184.963,2502.005
				c0,277.42-217.257,495.019-494.181,485.721c-287.299-9.646-528.222-258.12-528.222-554.649s240.923-512.518,528.222-483.427
				C2967.706,1977.693,3184.963,2224.585,3184.963,2502.005z"/>
			
				<linearGradient id="SVGID_00000053534150441101599670000016849103739282070922_" gradientUnits="userSpaceOnUse" x1="2445.321" y1="2333.2251" x2="2903.6143" y2="3306.094">
				<stop  offset="0" style="stop-color:#FCB148"/>
				<stop  offset="0.0521" style="stop-color:#FDBA46"/>
				<stop  offset="0.1424" style="stop-color:#FFC244"/>
				<stop  offset="0.3183" style="stop-color:#FFC444"/>
				<stop  offset="0.4849" style="stop-color:#FDB946"/>
				<stop  offset="0.7754" style="stop-color:#F99C4D"/>
				<stop  offset="0.8658" style="stop-color:#F8924F"/>
				<stop  offset="1" style="stop-color:#F8924F"/>
			</linearGradient>
			<path style="opacity:0.3;fill:url(#SVGID_00000053534150441101599670000016849103739282070922_);" d="M2601.354,2569.941
				c16.696-164.907,168.252-234.717,148.475-386.406c-12.191-93.492-83.052-172.282-162.1-233.801
				c-239.765,25.145-425.169,223.677-425.169,483.344c0,296.53,240.923,545.002,528.222,554.649
				c27.895,0.936,55.138-0.513,81.629-3.986C2658.313,2870.204,2587.01,2711.615,2601.354,2569.941z"/>
			<g>
				
					<linearGradient id="SVGID_00000127014110814515141260000010850877313726720404_" gradientUnits="userSpaceOnUse" x1="2605.2009" y1="2150.7537" x2="2773.9387" y2="2783.1533">
					<stop  offset="0" style="stop-color:#FFDB44"/>
					<stop  offset="1" style="stop-color:#FEEF06"/>
				</linearGradient>
				<path style="fill:url(#SVGID_00000127014110814515141260000010850877313726720404_);" d="M2774.945,2261.343
					c21.281,1.626,42.127,6.456,61.671,14.147c19.875,7.821,41.31,1.023,51.187-15.959l20.247-34.819
					c5.922-10.182,6.796-22.897,2.463-34.788c-4.344-11.922-13.535-21.926-25.219-27.369
					c-34.431-16.042-71.811-26.723-110.35-31.169c-196.566-22.674-374.425,117.819-374.425,315.725s177.859,345.037,374.425,329.701
					c35.159-2.743,69.501-10.758,101.451-23.385c11.871-4.692,21.376-14.173,26.076-25.863c4.685-11.654,4.159-24.446-1.464-35.057
					l-19.162-36.165c-9.395-17.731-30.597-25.938-50.778-19.376c-17.833,5.799-36.595,9.125-56.124,9.889
					c-114.69,4.482-213.977-83.65-213.977-196.749C2560.967,2337.005,2660.254,2252.579,2774.945,2261.343z"/>
				<g>
					
						<linearGradient id="SVGID_00000039836899354050813650000001631694003828320427_" gradientUnits="userSpaceOnUse" x1="5273.0093" y1="-864.2449" x2="5380.6069" y2="-460.9879" gradientTransform="matrix(0 1 -1 0 1865 -2948)">
						<stop  offset="0" style="stop-color:#FFDB44"/>
						<stop  offset="1" style="stop-color:#FEEF06"/>
					</linearGradient>
					<path style="fill:url(#SVGID_00000039836899354050813650000001631694003828320427_);" d="M2745.033,2387.807
						c0,15.802-13.537,28.209-30.387,27.709l-366.059-10.868c-20.894-0.62-38.003-15.59-38.003-33.43l0,0
						c0-17.84,17.109-31.503,38.003-30.528l366.059,17.088C2731.496,2358.563,2745.033,2372.005,2745.033,2387.807
						L2745.033,2387.807z"/>
					
						<linearGradient id="SVGID_00000031927572815235460570000007006585765958752155_" gradientUnits="userSpaceOnUse" x1="5411.1304" y1="-866.3114" x2="5519.8408" y2="-458.8842" gradientTransform="matrix(0 1 -1 0 1865 -2948)">
						<stop  offset="0" style="stop-color:#FFDB44"/>
						<stop  offset="1" style="stop-color:#FEEF06"/>
					</linearGradient>
					<path style="fill:url(#SVGID_00000031927572815235460570000007006585765958752155_);" d="M2745.033,2518.147
						c0,15.802-13.537,28.733-30.387,28.885l-366.059,3.3c-20.894,0.188-38.003-14.12-38.003-31.959l0,0
						c0-17.84,17.109-32.166,38.003-31.999l366.059,2.92C2731.496,2489.428,2745.033,2502.345,2745.033,2518.147L2745.033,2518.147z
						"/>
				</g>
			</g>
		</g>
		
			<linearGradient id="SVGID_00000022535314490101558160000014645736498183595669_" gradientUnits="userSpaceOnUse" x1="4095.8064" y1="1503.5829" x2="3489.1001" y2="2716.9932" gradientTransform="matrix(0.7814 0.624 -0.624 0.7814 -429.6161 -1458.5894)">
			<stop  offset="0" style="stop-color:#FB6FBB"/>
			<stop  offset="1" style="stop-color:#FF9085"/>
		</linearGradient>
		<path style="fill:url(#SVGID_00000022535314490101558160000014645736498183595669_);" d="M1067.72,2237.168
			c29.691,14.143,59.483,27.03,89.289,38.69c-40.479-90.052-71.178-182.72-92.106-276.401
			c-72.464,85.964-138.745,179.6-197.813,280.008c31.404-15.721,62.714-31.608,93.929-47.661
			c4.763,177.244,91.752,334.185,205.537,442.213c114.397,109.733,255.59,170.558,382.107,194.977
			c261.976,49.318,441.149-43.474,439.757-41.2c-205.382,32.026-386.176-9.596-522.664-74.156
			c-137.722-65.38-231.137-153.695-290.522-233.686C1058.106,2354.507,1068.819,2235.766,1067.72,2237.168z"/>
		
			<linearGradient id="SVGID_00000182510001415154613590000007605529254426183857_" gradientUnits="userSpaceOnUse" x1="-489.3573" y1="-4391.873" x2="-1096.0637" y2="-3178.4626" gradientTransform="matrix(-0.7814 -0.624 0.624 -0.7814 4393.8604 -2179.7749)">
			<stop  offset="0" style="stop-color:#FB6FBB"/>
			<stop  offset="1" style="stop-color:#FF9085"/>
		</linearGradient>
		<path style="fill:url(#SVGID_00000182510001415154613590000007605529254426183857_);" d="M2800.607,1592.319
			c-29.691-14.143-59.483-27.03-89.289-38.69c40.479,90.052,71.178,182.721,92.106,276.401
			c72.464-85.964,138.745-179.6,197.813-280.008c-31.404,15.721-62.714,31.609-93.929,47.661
			c-4.763-177.244-91.752-334.185-205.537-442.213c-114.397-109.733-255.59-170.558-382.106-194.977
			c-261.977-49.318-441.149,43.474-439.757,41.2c205.382-32.026,386.175,9.596,522.664,74.156
			c137.722,65.38,231.137,153.694,290.522,233.686C2810.22,1474.98,2799.508,1593.721,2800.607,1592.319z"/>
	</g>
</g>
</svg>
